<svg width="83" height="80" viewBox="0 0 83 80" fill="none" xmlns="http://www.w3.org/2000/svg">
<circle cx="42.5" cy="40.5" r="31.5" fill="#989BF0"/>
<circle cx="79.5" cy="12.5" r="3.5" fill="#989BF0"/>
<circle cx="8.5" cy="4.5" r="4.5" fill="#989BF0"/>
<circle cx="4" cy="59" r="2" fill="#989BF0"/>
<circle cx="73" cy="71" r="1" fill="#989BF0"/>
<path fill-rule="evenodd" clip-rule="evenodd" d="M48.249 36.0803H52.8327C52.8327 32.4 50.6275 30.25 46.8912 30.25H37.1075C33.3712 30.25 31.166 32.4 31.166 36.0333V43.9667C31.166 47.6 33.3712 49.75 37.1075 49.75H46.8912C50.6275 49.75 52.8327 47.6 52.8327 43.9667V43.6287H48.249C46.1217 43.6287 44.3971 41.9473 44.3971 39.8733C44.3971 37.7992 46.1217 36.1178 48.249 36.1178V36.0803ZM48.2498 37.6949H52.0247C52.4714 37.6949 52.8335 38.048 52.8335 38.4835V41.225C52.8283 41.6584 52.4692 42.0086 52.0247 42.0136H48.3365C47.2596 42.0278 46.3178 41.3089 46.0735 40.2861C45.9512 39.6513 46.1229 38.9962 46.5427 38.4964C46.9625 37.9966 47.5873 37.7032 48.2498 37.6949ZM48.4139 40.5773H48.7702C49.2275 40.5773 49.5983 40.2158 49.5983 39.7699C49.5983 39.324 49.2275 38.9625 48.7702 38.9625H48.4139C48.1951 38.96 47.9844 39.0429 47.8289 39.1929C47.6733 39.3428 47.5857 39.5472 47.5857 39.7605C47.5857 40.208 47.9549 40.5721 48.4139 40.5773ZM36.2981 36.0801H42.4129C42.8703 36.0801 43.241 35.7186 43.241 35.2727C43.241 34.8267 42.8703 34.4652 42.4129 34.4652H36.2981C35.8444 34.4652 35.4752 34.821 35.4699 35.2633C35.4699 35.7107 35.8391 36.0749 36.2981 36.0801Z" fill="white"/>
<circle cx="47" cy="2" r="1" fill="#989BF0"/>
<circle cx="27.5" cy="78.5" r="1.5" fill="#989BF0"/>
<circle cx="54.5" cy="76.5" r="0.5" fill="#00BCD3"/>
<circle cx="76" cy="49" r="1" fill="#989BF0"/>
<circle cx="0.5" cy="33.5" r="0.5" fill="#00BCD3"/>
</svg>
