<svg width="83" height="80" viewBox="0 0 83 80" fill="none" xmlns="http://www.w3.org/2000/svg">
<circle cx="42.5" cy="40.5" r="31.5" fill="#4448AE"/>
<circle cx="79.5" cy="12.5" r="3.5" fill="#4448AE"/>
<circle cx="8.5" cy="4.5" r="4.5" fill="#4448AE"/>
<circle cx="4" cy="59" r="2" fill="#4448AE"/>
<circle cx="73" cy="71" r="1" fill="#4448AE"/>
<path fill-rule="evenodd" clip-rule="evenodd" d="M37.3085 29.1665H46.701C50.3735 29.1665 52.8327 31.7448 52.8327 35.5798V44.4318C52.8327 48.2548 50.3735 50.8332 46.701 50.8332H37.3085C33.636 50.8332 31.166 48.2548 31.166 44.4318V35.5798C31.166 31.7448 33.636 29.1665 37.3085 29.1665ZM41.3818 43.2389L46.5277 38.0931C46.896 37.7247 46.896 37.1289 46.5277 36.7497C46.1593 36.3814 45.5527 36.3814 45.1843 36.7497L40.7102 41.2239L38.8143 39.3281C38.446 38.9597 37.8393 38.9597 37.471 39.3281C37.1027 39.6964 37.1027 40.2922 37.471 40.6714L40.0493 43.2389C40.2335 43.4231 40.4718 43.5097 40.7102 43.5097C40.9593 43.5097 41.1977 43.4231 41.3818 43.2389Z" fill="white"/>
<circle cx="47" cy="2" r="1" fill="#4448AE"/>
<circle cx="27.5" cy="78.5" r="1.5" fill="#4448AE"/>
<circle cx="54.5" cy="76.5" r="0.5" fill="#4ADE80"/>
<circle cx="76" cy="49" r="1" fill="#4448AE"/>
<circle cx="0.5" cy="33.5" r="0.5" fill="#4ADE80"/>
</svg>
