<svg width="83" height="80" viewBox="0 0 83 80" fill="none" xmlns="http://www.w3.org/2000/svg">
<circle cx="42.5" cy="40.5" r="31.5" fill="url(#paint0_linear_106_6573)"/>
<circle cx="79.5" cy="12.5" r="3.5" fill="url(#paint1_linear_106_6573)"/>
<circle cx="8.5" cy="4.5" r="4.5" fill="url(#paint2_linear_106_6573)"/>
<circle cx="4" cy="59" r="2" fill="url(#paint3_linear_106_6573)"/>
<circle cx="73" cy="71" r="1" fill="url(#paint4_linear_106_6573)"/>
<path fill-rule="evenodd" clip-rule="evenodd" d="M47.9828 35.0122V36.6733C49.8487 37.2557 51.2082 38.9448 51.2082 40.9623V46.3106C51.2082 48.8082 49.1375 50.8332 46.5847 50.8332H37.416C34.8621 50.8332 32.7915 48.8082 32.7915 46.3106V40.9623C32.7915 38.9448 34.1521 37.2557 36.0169 36.6733V35.0122C36.0279 31.7825 38.7029 29.1665 41.9833 29.1665C45.3078 29.1665 47.9828 31.7825 47.9828 35.0122ZM42.0055 31.0504C44.2402 31.0504 46.0565 32.8267 46.0565 35.0121V36.4396H37.9435V34.9906C37.9545 32.8159 39.7709 31.0504 42.0055 31.0504ZM42.9628 44.8259C42.9628 45.3534 42.5335 45.7733 41.9941 45.7733C41.4657 45.7733 41.0364 45.3534 41.0364 44.8259V42.436C41.0364 41.9192 41.4657 41.4994 41.9941 41.4994C42.5335 41.4994 42.9628 41.9192 42.9628 42.436V44.8259Z" fill="white"/>
<circle cx="47" cy="2" r="1" fill="url(#paint5_linear_106_6573)"/>
<circle cx="27.5" cy="78.5" r="1.5" fill="url(#paint6_linear_106_6573)"/>
<circle cx="54.5" cy="76.5" r="0.5" fill="url(#paint7_linear_106_6573)"/>
<circle cx="76" cy="49" r="1" fill="url(#paint8_linear_106_6573)"/>
<circle cx="0.5" cy="33.5" r="0.5" fill="url(#paint9_linear_106_6573)"/>
<defs>
<linearGradient id="paint0_linear_106_6573" x1="74" y1="72" x2="-0.964344" y2="50.2648" gradientUnits="userSpaceOnUse">
<stop stop-color="#4448AE"/>
<stop offset="1" stop-color="#989BF0"/>
</linearGradient>
<linearGradient id="paint1_linear_106_6573" x1="83" y1="16" x2="74.6706" y2="13.585" gradientUnits="userSpaceOnUse">
<stop stop-color="#4448AE"/>
<stop offset="1" stop-color="#7784FF"/>
</linearGradient>
<linearGradient id="paint2_linear_106_6573" x1="13" y1="9" x2="2.29081" y2="5.89497" gradientUnits="userSpaceOnUse">
<stop stop-color="#4D5DFA"/>
<stop offset="1" stop-color="#7784FF"/>
</linearGradient>
<linearGradient id="paint3_linear_106_6573" x1="6" y1="61" x2="1.24036" y2="59.62" gradientUnits="userSpaceOnUse">
<stop stop-color="#4448AE"/>
<stop offset="1" stop-color="#7784FF"/>
</linearGradient>
<linearGradient id="paint4_linear_106_6573" x1="74" y1="72" x2="71.6202" y2="71.31" gradientUnits="userSpaceOnUse">
<stop stop-color="#4448AE"/>
<stop offset="1" stop-color="#7784FF"/>
</linearGradient>
<linearGradient id="paint5_linear_106_6573" x1="48" y1="3" x2="45.6202" y2="2.30999" gradientUnits="userSpaceOnUse">
<stop stop-color="#4448AE"/>
<stop offset="1" stop-color="#7784FF"/>
</linearGradient>
<linearGradient id="paint6_linear_106_6573" x1="29" y1="80" x2="25.4303" y2="78.965" gradientUnits="userSpaceOnUse">
<stop stop-color="#4448AE"/>
<stop offset="1" stop-color="#7784FF"/>
</linearGradient>
<linearGradient id="paint7_linear_106_6573" x1="55" y1="77" x2="53.8101" y2="76.655" gradientUnits="userSpaceOnUse">
<stop stop-color="#4D5DFA"/>
<stop offset="1" stop-color="#7784FF"/>
</linearGradient>
<linearGradient id="paint8_linear_106_6573" x1="77" y1="50" x2="74.6202" y2="49.31" gradientUnits="userSpaceOnUse">
<stop stop-color="#4448AE"/>
<stop offset="1" stop-color="#7784FF"/>
</linearGradient>
<linearGradient id="paint9_linear_106_6573" x1="1" y1="34" x2="-0.18991" y2="33.655" gradientUnits="userSpaceOnUse">
<stop stop-color="#4D5DFA"/>
<stop offset="1" stop-color="#7784FF"/>
</linearGradient>
</defs>
</svg>
