<svg width="83" height="80" viewBox="0 0 83 80" fill="none" xmlns="http://www.w3.org/2000/svg">
<circle cx="42.5" cy="40.5" r="31.5" fill="url(#paint0_linear_106_6556)"/>
<circle cx="79.5" cy="12.5" r="3.5" fill="#F75555"/>
<circle cx="8.5" cy="4.5" r="4.5" fill="#F75555"/>
<circle cx="4" cy="59" r="2" fill="#F75555"/>
<circle cx="73" cy="71" r="1" fill="#F75555"/>
<path fill-rule="evenodd" clip-rule="evenodd" d="M37.3102 29.1663H46.7027C50.3752 29.1663 52.8344 31.7446 52.8344 35.5796V44.4315C52.8344 48.2557 50.3752 50.8329 46.7027 50.8329H37.3102C33.6377 50.8329 31.1677 48.2557 31.1677 44.4315V35.5796C31.1677 31.7446 33.6377 29.1663 37.3102 29.1663ZM45.2609 43.2496C45.6293 42.8823 45.6293 42.2865 45.2609 41.9182L43.3326 39.9898L45.2609 38.0604C45.6293 37.6932 45.6293 37.0865 45.2609 36.7182C44.8926 36.3488 44.2968 36.3488 43.9176 36.7182L42.0001 38.6454L40.0718 36.7182C39.6926 36.3488 39.0968 36.3488 38.7284 36.7182C38.3601 37.0865 38.3601 37.6932 38.7284 38.0604L40.6568 39.9898L38.7284 41.9073C38.3601 42.2865 38.3601 42.8823 38.7284 43.2496C38.9126 43.4338 39.1618 43.5323 39.4001 43.5323C39.6493 43.5323 39.8876 43.4338 40.0718 43.2496L42.0001 41.3332L43.9284 43.2496C44.1126 43.4457 44.3509 43.5323 44.5893 43.5323C44.8384 43.5323 45.0768 43.4338 45.2609 43.2496Z" fill="white"/>
<circle cx="47" cy="2" r="1" fill="#F75555"/>
<circle cx="27.5" cy="78.5" r="1.5" fill="#F75555"/>
<circle cx="54.5" cy="76.5" r="0.5" fill="#F75555"/>
<circle cx="76" cy="49" r="1" fill="#F75555"/>
<circle cx="0.5" cy="33.5" r="0.5" fill="#F75555"/>
<defs>
<linearGradient id="paint0_linear_106_6556" x1="74" y1="72" x2="-0.964344" y2="50.2648" gradientUnits="userSpaceOnUse">
<stop stop-color="#FF5A5F"/>
<stop offset="1" stop-color="#FF9094"/>
</linearGradient>
</defs>
</svg>
