<svg width="83" height="80" viewBox="0 0 83 80" fill="none" xmlns="http://www.w3.org/2000/svg">
<circle cx="42.5" cy="40.5" r="31.5" fill="url(#paint0_linear_106_6540)"/>
<circle cx="79.5" cy="12.5" r="3.5" fill="#4448AE"/>
<circle cx="8.5" cy="4.5" r="4.5" fill="#4448AE"/>
<circle cx="4" cy="59" r="2" fill="#4448AE"/>
<circle cx="73" cy="71" r="1" fill="#4448AE"/>
<path fill-rule="evenodd" clip-rule="evenodd" d="M37.3085 29.1669H46.701C50.3735 29.1669 52.8327 31.7452 52.8327 35.5802V44.4321C52.8327 48.2552 50.3735 50.8335 46.701 50.8335H37.3085C33.636 50.8335 31.166 48.2552 31.166 44.4321V35.5802C31.166 31.7452 33.636 29.1669 37.3085 29.1669ZM41.3818 43.2397L46.5277 38.0938C46.896 37.7255 46.896 37.1297 46.5277 36.7505C46.1593 36.3822 45.5527 36.3822 45.1843 36.7505L40.7102 41.2247L38.8143 39.3288C38.446 38.9605 37.8393 38.9605 37.471 39.3288C37.1027 39.6972 37.1027 40.293 37.471 40.6722L40.0493 43.2397C40.2335 43.4238 40.4718 43.5105 40.7102 43.5105C40.9593 43.5105 41.1977 43.4238 41.3818 43.2397Z" fill="white"/>
<circle cx="47" cy="2" r="1" fill="#4448AE"/>
<circle cx="27.5" cy="78.5" r="1.5" fill="#4448AE"/>
<circle cx="54.5" cy="76.5" r="0.5" fill="#4ADE80"/>
<circle cx="76" cy="49" r="1" fill="#4448AE"/>
<circle cx="0.5" cy="33.5" r="0.5" fill="#4ADE80"/>
<defs>
<linearGradient id="paint0_linear_106_6540" x1="74" y1="72" x2="-0.964344" y2="50.2648" gradientUnits="userSpaceOnUse">
<stop stop-color="#D0CBF1"/>
<stop offset="1" stop-color="#4448AE"/>
</linearGradient>
</defs>
</svg>
