<svg width="270" height="190" viewBox="0 0 270 270" fill="none" xmlns="http://www.w3.org/2000/svg">
<path d="M192.24 98.9764C189.368 102.829 185.419 105.743 180.891 107.352C176.363 108.96 171.46 109.19 166.801 108.012C162.143 106.834 157.938 104.302 154.719 100.735C151.499 97.168 149.409 92.7266 148.714 87.9721C148.018 83.2177 148.747 78.3637 150.81 74.0238C152.872 69.6838 156.175 66.0527 160.3 63.5894C164.426 61.1261 169.189 59.9412 173.988 60.1845C178.787 60.4278 183.406 62.0884 187.261 64.9564H187.288C189.848 66.8643 192.007 69.2579 193.642 72.0005C195.276 74.7431 196.354 77.7809 196.814 80.9403C197.274 84.0997 197.106 87.3187 196.322 90.4134C195.537 93.5082 194.15 96.4179 192.24 98.9764Z" fill="#F0F0F0"/>
<path d="M187.601 95.515C185.412 98.4539 182.4 100.677 178.947 101.904C175.493 103.131 171.754 103.307 168.201 102.408C164.648 101.509 161.441 99.577 158.987 96.8557C156.532 94.1344 154.939 90.7462 154.41 87.1197C153.882 83.4933 154.44 79.7914 156.015 76.4824C157.591 73.1734 160.112 70.4059 163.26 68.53C166.409 66.654 170.042 65.7539 173.702 65.9435C177.362 66.1331 180.884 67.4038 183.821 69.595C185.773 71.0478 187.419 72.8711 188.665 74.9604C189.911 77.0497 190.733 79.3642 191.084 81.7715C191.435 84.1788 191.308 86.6317 190.711 88.9899C190.113 91.3481 189.057 93.5654 187.601 95.515Z" fill="#F5F5F5"/>
<path d="M187.947 95.0399C187.855 94.9805 188.276 94.2785 188.887 92.9663C189.747 91.1229 190.317 89.1574 190.577 87.1397C190.744 85.756 190.76 84.3582 190.625 82.9709C190.467 81.3864 190.104 79.8292 189.545 78.3377C188.936 76.6914 188.082 75.1459 187.013 73.7531C186.456 73.0118 185.84 72.3165 185.171 71.6741C184.481 71.0166 183.744 70.4085 182.968 69.8543C182.18 69.3162 181.355 68.8326 180.5 68.4071C179.668 67.9999 178.805 67.6586 177.919 67.3865C177.066 67.1168 176.192 66.9164 175.306 66.7871C174.457 66.6514 173.6 66.5827 172.741 66.5819C171.149 66.5559 169.56 66.7374 168.016 67.1219C166.666 67.4688 165.358 67.9632 164.117 68.5961C162.311 69.5315 160.66 70.7411 159.224 72.1817C158.198 73.2077 157.691 73.8449 157.604 73.8017C157.518 73.7585 157.891 73.0079 158.819 71.8361C160.16 70.1839 161.795 68.7943 163.642 67.7375C166.411 66.1446 169.546 65.2963 172.741 65.2751C174.631 65.2537 176.513 65.5177 178.324 66.0581C179.284 66.3442 180.219 66.7053 181.121 67.1381C182.045 67.5911 182.935 68.1108 183.784 68.6933C184.621 69.2934 185.415 69.952 186.16 70.6643C186.876 71.3607 187.535 72.1137 188.131 72.9161C188.711 73.6874 189.225 74.5057 189.67 75.3623C191.612 79.0165 192.286 83.2122 191.587 87.2909C191.227 89.3887 190.484 91.4023 189.394 93.2309C188.595 94.4999 188.012 95.0939 187.947 95.0399Z" fill="#E0E0E0"/>
<path d="M167.827 94.5324L165.931 97.1406L163.62 95.4504L165.462 92.907C163.258 91.0926 161.563 88.7652 161.012 86.832L164.355 84.915C165.015 86.8214 166.162 88.5225 167.681 89.8506L170.505 85.9572C168.372 83.4516 166.104 80.487 168.523 77.1552C170.316 74.682 173.653 73.8612 177.644 76.113L179.523 73.5264L181.856 75.2166L179.988 77.76C181.59 79.0639 182.859 80.7295 183.692 82.62L180.452 84.645C179.809 83.2196 178.892 81.935 177.752 80.865L174.879 84.78C177.039 87.264 179.248 90.18 176.861 93.4794C175.106 95.931 171.807 96.741 167.827 94.5324ZM172.968 82.5282L175.371 79.218C173.934 78.597 172.951 78.921 172.395 79.6932C171.839 80.4654 172.179 81.459 172.968 82.5282ZM172.903 91.0602C173.497 90.2448 173.14 89.3106 172.395 88.2306L170.057 91.4706C171.412 92.043 172.363 91.8 172.903 91.0602Z" fill="#E0E0E0"/>
<path d="M105.251 134.914C106.058 140.403 105.219 146.008 102.84 151.02C100.461 156.032 96.6484 160.225 91.8855 163.07C87.1226 165.916 81.6229 167.284 76.082 167.004C70.5411 166.723 65.208 164.805 60.7572 161.493C56.3064 158.18 52.9379 153.623 51.0778 148.396C49.2177 143.169 48.9494 137.508 50.3071 132.128C51.6647 126.749 54.5872 121.893 58.7049 118.175C62.8226 114.457 67.9505 112.043 73.4401 111.24H73.4941C77.1344 110.707 80.8442 110.896 84.4114 111.797C87.9787 112.697 91.3336 114.292 94.2846 116.489C97.2356 118.687 99.7248 121.444 101.61 124.603C103.496 127.763 104.74 131.262 105.273 134.903L105.251 134.914Z" fill="#F0F0F0"/>
<path d="M98.6472 135.869C99.2651 140.051 98.629 144.322 96.8194 148.143C95.0099 151.963 92.1081 155.161 88.481 157.332C84.8539 159.503 80.6645 160.55 76.4425 160.34C72.2205 160.13 68.1555 158.673 64.7617 156.153C61.3678 153.633 58.7974 150.163 57.3756 146.182C55.9538 142.201 55.7444 137.888 56.7739 133.788C57.8034 129.688 60.0255 125.985 63.1593 123.148C66.2931 120.311 70.1978 118.467 74.3797 117.85H74.4283C80.0292 117.029 85.7267 118.466 90.2683 121.846C94.8099 125.225 97.8237 130.269 98.6472 135.869Z" fill="#F5F5F5"/>
<path d="M98.5445 135.21C98.4149 135.21 98.1935 134.319 97.6157 132.748C96.811 130.543 95.6708 128.476 94.2353 126.619C93.2433 125.354 92.1172 124.201 90.8765 123.179C89.4495 122.022 87.8797 121.053 86.2055 120.296C85.3029 119.885 84.3716 119.54 83.4191 119.264C82.4294 118.972 81.4183 118.757 80.3951 118.622C79.336 118.477 78.2671 118.415 77.1983 118.438C76.0979 118.464 75.0007 118.569 73.9151 118.751C72.8336 118.955 71.7673 119.233 70.7237 119.583C69.7114 119.933 68.7275 120.361 67.7807 120.863C66.8676 121.335 65.992 121.877 65.1617 122.483C64.3619 123.068 63.6074 123.712 62.9045 124.41C61.5928 125.698 60.453 127.15 59.5133 128.73C58.6963 130.113 58.0353 131.582 57.5423 133.11C56.8305 135.347 56.4663 137.68 56.4623 140.027C56.4623 141.701 56.5703 142.635 56.4623 142.657C56.3543 142.679 56.0465 141.777 55.8467 140.06C55.593 137.62 55.7926 135.153 56.4353 132.786C57.3928 129.227 59.2528 125.976 61.8353 123.347C62.5759 122.581 63.3758 121.875 64.2275 121.235C66.0272 119.861 68.0317 118.779 70.1675 118.028C71.2908 117.638 72.4427 117.337 73.6127 117.126C74.7837 116.926 75.9676 116.813 77.1551 116.786C78.3094 116.775 79.4628 116.851 80.6057 117.012C81.7031 117.173 82.7863 117.419 83.8457 117.747C84.8647 118.055 85.8578 118.444 86.8157 118.908C88.5898 119.763 90.2408 120.853 91.7243 122.148C93.0096 123.266 94.1555 124.535 95.1371 125.928C96.56 127.927 97.5983 130.174 98.1989 132.554C98.6255 134.238 98.6363 135.194 98.5445 135.21Z" fill="#E0E0E0"/>
<path d="M81.7183 151.2L82.3069 154.877L79.0291 155.417L78.4567 151.843C75.1735 152.167 71.8903 151.648 69.8599 150.525L71.0263 146.232C73.121 147.24 75.4404 147.69 77.7601 147.539L76.8799 142.052C73.0999 141.755 68.8339 141.188 68.0833 136.496C67.5433 133.018 69.5737 129.627 74.6659 128.207L74.0827 124.562L77.3659 124.022L77.9383 127.597C80.306 127.349 82.6986 127.665 84.9205 128.52L83.9269 132.84C82.2393 132.187 80.4381 131.879 78.6295 131.933L79.5259 137.516C83.3059 137.786 87.5017 138.359 88.2415 142.987C88.7977 146.41 86.7727 149.764 81.7183 151.2ZM76.1401 137.23L75.3895 132.57C73.7155 133.24 73.1755 134.303 73.3483 135.389C73.5211 136.474 74.5957 137.003 76.1401 137.23ZM83.0521 144.25C82.8631 143.1 81.8155 142.63 80.3521 142.36L81.0757 146.891C82.6201 146.254 83.1979 145.271 83.0305 144.239L83.0521 144.25Z" fill="#E0E0E0"/>
<path d="M162.032 37.4975C161.538 40.193 160.255 42.6813 158.346 44.6477C156.438 46.6142 153.989 47.9705 151.309 48.5451C148.629 49.1198 145.84 48.887 143.292 47.8761C140.745 46.8652 138.555 45.1218 136.999 42.8661C135.442 40.6105 134.59 37.944 134.549 35.2038C134.508 32.4636 135.28 29.7728 136.769 27.4717C138.257 25.1705 140.394 23.3624 142.91 22.2759C145.426 21.1894 148.207 20.8733 150.903 21.3677H150.935C152.722 21.6964 154.427 22.3741 155.952 23.362C157.477 24.3499 158.792 25.6286 159.823 27.125C160.853 28.6214 161.579 30.3063 161.958 32.0833C162.337 33.8603 162.362 35.6946 162.032 37.4813V37.4975Z" fill="#F0F0F0"/>
<path d="M158.792 36.8927C158.415 38.9463 157.438 40.8419 155.983 42.3399C154.529 43.8379 152.663 44.871 150.621 45.3086C148.58 45.7461 146.454 45.5684 144.514 44.798C142.573 44.0276 140.905 42.6991 139.719 40.9804C138.533 39.2617 137.884 37.2301 137.853 35.1424C137.822 33.0547 138.411 31.0047 139.545 29.2517C140.679 27.4986 142.308 26.1212 144.225 25.2936C146.142 24.4661 148.261 24.2255 150.314 24.6023C151.678 24.8519 152.98 25.3679 154.144 26.1208C155.309 26.8737 156.314 27.8488 157.101 28.9902C157.888 30.1317 158.443 31.4172 158.733 32.7731C159.023 34.1291 159.044 35.529 158.792 36.8927Z" fill="#F5F5F5"/>
<path d="M158.846 36.5688C158.791 36.1373 158.778 35.7013 158.809 35.2674C158.786 34.1083 158.588 32.9593 158.22 31.86C157.959 31.105 157.617 30.3807 157.199 29.7C156.714 28.9328 156.134 28.2306 155.471 27.6102C155.116 27.2713 154.735 26.9607 154.332 26.6814C153.91 26.3902 153.464 26.1355 152.998 25.92C152.527 25.6824 152.037 25.482 151.535 25.3206C151.015 25.1583 150.485 25.0338 149.947 24.948C149.411 24.8679 148.869 24.8282 148.327 24.8292C147.799 24.8291 147.272 24.8725 146.75 24.9588C146.247 25.0354 145.75 25.1528 145.265 25.3098C144.797 25.4545 144.34 25.6351 143.899 25.8498C142.357 26.5939 141.021 27.7067 140.011 29.0898C139.314 30.0213 138.768 31.0562 138.391 32.157C138.288 32.5788 138.143 32.9893 137.959 33.3828C137.905 32.9412 137.949 32.4929 138.089 32.0706C138.354 30.8872 138.839 29.7642 139.52 28.7604C139.982 28.0627 140.526 27.4228 141.14 26.8542C141.859 26.2099 142.662 25.665 143.527 25.2342C143.995 24.9941 144.48 24.7901 144.979 24.624C145.508 24.4502 146.05 24.3167 146.599 24.2244C147.161 24.128 147.73 24.0775 148.3 24.0732C149.478 24.063 150.649 24.2454 151.767 24.6132C152.313 24.7718 152.846 24.974 153.36 25.218C154.317 25.7101 155.196 26.3416 155.968 27.0918C157.269 28.3678 158.229 29.9497 158.76 31.6926C159.106 32.8541 159.235 34.0699 159.138 35.2782C159.134 35.7242 159.034 36.1642 158.846 36.5688Z" fill="#E0E0E0"/>
<path d="M148.435 41.3747L148.122 43.1999L146.502 42.9245L146.804 41.1587C145.373 40.8679 144.052 40.1812 142.992 39.1769L144.218 37.3517C145.038 38.1599 146.054 38.7405 147.166 39.0365L147.625 36.3365C145.903 35.5913 143.996 34.6517 144.385 32.3351C144.677 30.6179 146.173 29.3597 148.781 29.5055L149.089 27.7073L150.709 27.9827L150.406 29.7485C151.555 30.0165 152.623 30.5553 153.522 31.3199L152.372 33.1721C151.696 32.5823 150.908 32.1359 150.055 31.8599L149.58 34.6247C151.308 35.3537 153.176 36.2879 152.788 38.5721C152.507 40.2569 151.027 41.5043 148.435 41.3747ZM148.036 33.9443L148.43 31.6439C147.539 31.6925 147.118 32.1029 147.026 32.6375C146.934 33.1721 147.366 33.5987 148.036 33.9443ZM150.158 38.3399C150.25 37.7999 149.834 37.3841 149.18 37.0223L148.797 39.2525C149.639 39.1985 150.066 38.8421 150.158 38.3399Z" fill="#E0E0E0"/>
<path d="M245.835 245.948C245.835 246.029 176.089 246.089 129.643 246.089C83.1977 246.089 25.9199 246.029 25.9199 245.948C25.9199 245.867 83.1599 245.808 129.643 245.808C176.126 245.808 245.835 245.873 245.835 245.948Z" fill="#263238"/>
<path d="M66.3011 223.884C75.5675 217.404 77.6735 205.389 77.3063 194.584C77.2469 192.78 77.4413 190.879 76.5881 189.292C75.7349 187.704 73.7261 186.629 72.1115 187.391C70.7723 188.023 70.1891 189.578 69.4385 190.868C68.4336 192.585 66.9666 193.984 65.2049 194.908C64.0601 195.502 62.6399 195.869 61.5059 195.242C59.9507 194.384 59.7671 192.235 59.7779 190.442C59.7995 187.097 59.8193 183.753 59.8373 180.409C59.8373 178.616 59.8373 176.785 59.2973 175.084C58.7573 173.383 57.5045 171.796 55.7981 171.304C54.0917 170.813 51.9803 171.812 51.6239 173.567C51.5547 174.308 51.5367 175.053 51.5699 175.797C51.5213 176.542 51.1757 177.368 50.4899 177.574C49.8041 177.779 49.0535 177.277 48.5189 176.753C46.6667 174.938 45.4085 172.606 44.2367 170.273C43.0649 167.94 41.9201 165.575 40.2407 163.598C38.5613 161.622 36.2393 160.056 33.6689 159.91C31.0985 159.764 28.3607 161.352 27.7289 163.874C27.0971 166.396 28.5551 168.971 30.1589 171.018C32.5415 174.055 35.3496 176.732 38.4965 178.967C39.1102 179.302 39.5989 179.827 39.8897 180.463C40.2785 181.661 39.1499 182.849 37.9673 183.244C36.6281 183.686 35.1809 183.546 33.7823 183.713C32.3837 183.881 30.8663 184.496 30.3371 185.814C29.6027 187.65 31.1363 189.594 32.6429 190.831C35.6658 193.351 39.0999 195.333 42.7949 196.69C44.1179 197.176 45.4949 197.597 46.5749 198.526C47.6549 199.454 48.2813 201.064 47.6549 202.306C47.0285 203.548 45.3599 203.974 43.9775 203.72C42.5951 203.467 41.3585 202.711 40.0409 202.214C37.5785 201.285 34.3925 201.452 32.8157 203.585C31.7735 204.984 31.6871 206.939 32.2109 208.607C32.8061 210.25 33.7241 211.758 34.9109 213.041C38.8205 217.732 43.9034 221.304 49.6421 223.393C55.3607 225.374 60.6581 225.909 66.3443 223.83" fill="#4448AE"/>
<path d="M30.2832 161.46C30.3324 161.525 30.3906 161.584 30.456 161.633L30.996 162.108C31.4658 162.524 32.157 163.134 33.0264 163.949C35.4938 166.239 37.7845 168.712 39.879 171.347C41.2182 173.011 42.579 174.89 44.0532 176.936C45.5274 178.983 47.0394 181.192 48.5676 183.568C50.1791 186.042 51.6555 188.602 52.9902 191.236C53.6814 192.607 54.3024 194.038 54.9288 195.502L56.835 199.951C59.2864 205.587 61.4192 211.356 63.2232 217.231C64.68 222.033 65.6816 226.962 66.2148 231.952C66.5648 235.317 66.6208 238.707 66.3822 242.082C66.2904 243.281 66.1986 244.204 66.1122 244.831C66.0798 245.133 66.0528 245.371 66.0312 245.543C66.0258 245.626 66.0258 245.709 66.0312 245.792C66.0526 245.712 66.0688 245.631 66.0798 245.549C66.1056 245.311 66.1453 245.075 66.1986 244.841C66.3012 244.215 66.4146 243.292 66.528 242.093C66.8169 238.71 66.7952 235.308 66.4632 231.93C65.9633 226.919 64.9814 221.967 63.531 217.145C61.7324 211.245 59.5959 205.454 57.132 199.8L55.2258 195.35C54.594 193.887 53.973 192.44 53.2764 191.063C51.9321 188.423 50.443 185.86 48.816 183.384C47.277 181.003 45.7326 178.805 44.2746 176.758C42.8166 174.712 41.4072 172.838 40.0572 171.18C37.9385 168.552 35.6146 166.096 33.1074 163.836C32.2218 163.037 31.5198 162.437 31.0338 162.043L30.4938 161.59L30.2832 161.46Z" fill="#263238"/>
<path d="M53.1791 191.057C53.265 190.809 53.3247 190.552 53.3573 190.291C53.4491 189.794 53.5625 189.076 53.6867 188.179C53.9405 186.397 54.2267 183.919 54.4913 181.159C54.7559 178.4 55.0745 175.959 55.3553 174.182C55.4903 173.291 55.6091 172.562 55.7009 172.076C55.7631 171.822 55.7957 171.561 55.7981 171.299C55.6999 171.541 55.6257 171.793 55.5767 172.049C55.4471 172.541 55.2905 173.254 55.1285 174.139C54.7829 175.916 54.4481 178.389 54.1619 181.127C53.8757 183.865 53.6219 186.262 53.4545 188.147C53.3681 188.989 53.2925 189.697 53.2277 190.269C53.1844 190.529 53.1682 190.794 53.1791 191.057Z" fill="#263238"/>
<path d="M30.1157 186.748C30.418 186.811 30.7251 186.847 31.0337 186.856C31.6277 186.91 32.4863 186.98 33.5393 187.105C35.6507 187.331 38.5613 187.747 41.7473 188.347C44.9333 188.946 47.7953 189.626 49.8473 190.172C50.8787 190.436 51.7049 190.674 52.2827 190.836C52.5743 190.936 52.8743 191.01 53.1791 191.057C52.9055 190.913 52.6178 190.797 52.3205 190.712C51.7805 190.512 50.9381 190.242 49.9121 189.945C47.8655 189.34 45.0035 188.627 41.8121 188.023C39.0854 187.495 36.3331 187.109 33.5663 186.867C32.4863 186.775 31.6439 186.737 31.0499 186.727C30.7387 186.699 30.4253 186.706 30.1157 186.748Z" fill="#263238"/>
<path d="M63.2285 216.686C63.2944 216.6 63.3472 216.506 63.3851 216.405L63.7793 215.573C64.1195 214.844 64.5839 213.781 65.1401 212.463C66.2525 209.817 67.6727 206.118 69.1901 202.019C70.7075 197.921 72.0899 194.206 73.1429 191.549L74.4065 188.395C74.5415 188.055 74.6495 187.769 74.7413 187.537C74.7898 187.44 74.8226 187.336 74.8385 187.229C74.7726 187.314 74.7198 187.409 74.6819 187.51L74.2877 188.347C73.9475 189.07 73.4831 190.134 72.9269 191.457C71.8145 194.098 70.3943 197.797 68.8769 201.901C67.3595 206.005 65.9771 209.709 64.9241 212.371L63.6605 215.519L63.3257 216.378C63.2773 216.475 63.2445 216.579 63.2285 216.686Z" fill="#263238"/>
<path d="M32.5781 206.82C32.673 206.874 32.7747 206.916 32.8805 206.944L33.7715 207.241L37.0547 208.321C39.8249 209.223 43.6373 210.481 47.8547 211.934C52.0721 213.386 55.8953 214.634 58.6871 215.454C60.0857 215.876 61.2143 216.205 62.0027 216.416L62.9099 216.653C63.015 216.686 63.1239 216.706 63.2339 216.713C63.1372 216.658 63.0337 216.616 62.9261 216.588L62.0405 216.291L58.7573 215.211C55.9871 214.31 52.1747 213.051 47.9573 211.599C43.7399 210.146 39.9167 208.899 37.1573 208.083C35.7587 207.662 34.6301 207.333 33.8417 207.117L32.9399 206.879C32.8226 206.843 32.7009 206.823 32.5781 206.82Z" fill="#263238"/>
<path d="M154.354 218.992L94.4137 218.716C92.6997 218.708 91.004 218.363 89.4235 217.7C87.8429 217.037 86.4085 216.069 85.202 214.851C83.9956 213.634 83.0407 212.191 82.392 210.604C81.7433 209.018 81.4135 207.319 81.4213 205.605L82.0801 55.3446C82.0972 51.882 83.4884 48.568 85.948 46.1307C88.4075 43.6934 91.7341 42.3324 95.1967 42.3468L155.137 42.6222C158.599 42.6379 161.913 44.0279 164.35 46.4866C166.788 48.9453 168.149 52.2713 168.134 55.7334L167.497 205.994C167.491 207.708 167.147 209.404 166.485 210.985C165.822 212.566 164.855 214.001 163.638 215.209C162.421 216.416 160.978 217.371 159.391 218.02C157.805 218.669 156.106 218.999 154.391 218.992H154.354Z" fill="#263238"/>
<path d="M155.023 47.8117L143.408 47.7577C143.029 47.764 142.655 47.8449 142.308 47.9957C141.961 48.1465 141.646 48.3642 141.383 48.6365C141.12 48.9088 140.913 49.2303 140.774 49.5826C140.635 49.935 140.566 50.3112 140.573 50.6899V52.8013C140.586 53.5666 140.295 54.3058 139.763 54.8566C139.232 55.4074 138.503 55.7247 137.738 55.7389L115.09 55.6309C114.325 55.6097 113.6 55.2865 113.073 54.7319C112.546 54.1774 112.259 53.4367 112.277 52.6717V50.5603C112.296 49.7958 112.011 49.0551 111.484 48.5004C110.958 47.9457 110.233 47.6223 109.469 47.6011H105.381L95.2129 47.5201C94.0123 47.5151 92.8225 47.7467 91.7114 48.2015C90.6003 48.6564 89.5897 49.3256 88.7373 50.171C87.8848 51.0165 87.2072 52.0215 86.7432 53.1288C86.2792 54.2361 86.0378 55.4239 86.0329 56.6245L85.4119 203.288C85.4118 205.709 86.3678 208.032 88.0719 209.751C89.776 211.471 92.0902 212.447 94.5109 212.469L154.327 212.744C156.751 212.753 159.079 211.798 160.801 210.091C162.522 208.384 163.495 206.064 163.507 203.639L164.128 56.9755C164.133 54.5536 163.178 52.2284 161.471 50.5104C159.764 48.7923 157.445 47.8217 155.023 47.8117Z" fill="white"/>
<path d="M141.437 120.344H102.913V157.453H141.437V120.344Z" fill="#4448AE"/>
<path d="M113.535 110.003L102.908 120.344H141.432L148.797 110.003H113.535Z" fill="#4448AE"/>
<path opacity="0.1" d="M113.535 110.003L102.908 120.344H141.432L148.797 110.003H113.535Z" fill="black"/>
<path d="M141.431 157.448L148.797 146.972V110.003L141.431 120.344V157.448Z" fill="#4448AE"/>
<path opacity="0.3" d="M141.431 157.448L148.797 146.972V110.003L141.431 120.344V157.448Z" fill="black"/>
<path d="M131.355 135.75H111.245V138.029H131.355V135.75Z" fill="#4448AE"/>
<path opacity="0.2" d="M131.355 135.75H111.245V138.029H131.355V135.75Z" fill="black"/>
<path d="M127.721 139.736H114.885V141.885H127.721V139.736Z" fill="#4448AE"/>
<path opacity="0.2" d="M127.721 139.736H114.885V141.885H127.721V139.736Z" fill="black"/>
<path d="M110.765 108.54C110.715 108.071 110.637 107.606 110.533 107.147C110.198 105.901 109.454 104.804 108.421 104.031C107.72 103.497 106.902 103.138 106.035 102.983C105.041 102.806 104.018 102.896 103.07 103.243C102.557 103.423 102.076 103.684 101.644 104.015C101.187 104.349 100.786 104.753 100.456 105.214C99.7438 106.177 99.3593 107.344 99.3593 108.543C99.3593 109.741 99.7438 110.908 100.456 111.872C101.114 112.772 102.024 113.458 103.07 113.843C103.958 114.167 104.914 114.265 105.849 114.126C106.785 113.987 107.671 113.617 108.427 113.049C109.457 112.277 110.198 111.182 110.533 109.939C110.637 109.477 110.715 109.01 110.765 108.54C110.802 109.019 110.76 109.5 110.641 109.966C110.339 111.254 109.601 112.399 108.551 113.206C107.423 114.073 106.019 114.502 104.598 114.415C103.178 114.329 101.837 113.731 100.823 112.733C99.8082 111.735 99.1889 110.404 99.0789 108.985C98.9689 107.567 99.3757 106.156 100.224 105.014C100.883 104.117 101.783 103.427 102.819 103.021C103.855 102.616 104.985 102.513 106.078 102.724C107.178 102.936 108.194 103.461 109.003 104.236C109.813 105.011 110.381 106.003 110.641 107.093C110.763 107.565 110.805 108.054 110.765 108.54Z" fill="#263238"/>
<path d="M102.406 107.741C102.406 106.931 102.859 106.391 103.529 106.391C104.198 106.391 104.652 106.931 104.652 107.741C104.652 108.551 104.188 109.091 103.529 109.091C103.364 109.082 103.203 109.039 103.056 108.965C102.909 108.891 102.778 108.787 102.673 108.661C102.568 108.534 102.489 108.387 102.443 108.229C102.397 108.07 102.385 107.904 102.406 107.741ZM104.296 107.741C104.296 107.093 103.988 106.709 103.529 106.709C103.07 106.709 102.762 107.098 102.762 107.741C102.762 108.383 103.059 108.767 103.529 108.767C103.999 108.767 104.296 108.383 104.296 107.741ZM106.537 106.423H106.958L103.561 111.397H103.14L106.537 106.423ZM105.457 110.084C105.457 109.274 105.921 108.734 106.58 108.734C107.239 108.734 107.703 109.274 107.703 110.084C107.703 110.894 107.249 111.434 106.58 111.434C105.91 111.434 105.451 110.894 105.451 110.084H105.457ZM107.347 110.084C107.347 109.442 107.05 109.053 106.58 109.053C106.11 109.053 105.813 109.436 105.813 110.084C105.813 110.732 106.121 111.11 106.58 111.11C107.039 111.11 107.341 110.7 107.341 110.084H107.347Z" fill="#263238"/>
<path d="M135.383 170.003C135.383 171.083 134.6 172.001 132.872 172.001C132.058 172.016 131.258 171.791 130.572 171.353L131.112 170.273C131.613 170.629 132.214 170.818 132.829 170.813C133.526 170.813 133.958 170.521 133.958 170.03C133.958 169.538 133.65 169.241 132.554 169.241H131.009L131.323 165.85H135V166.968H132.484L132.392 168.113H132.883C134.676 168.129 135.383 168.933 135.383 170.003Z" fill="#263238"/>
<path d="M135.95 168.88C135.95 166.887 137.057 165.758 138.537 165.758C140.017 165.758 141.124 166.887 141.124 168.88C141.124 170.872 140.044 172.001 138.537 172.001C137.03 172.001 135.95 170.872 135.95 168.88ZM139.73 168.88C139.73 167.508 139.25 166.941 138.548 166.941C137.846 166.941 137.376 167.508 137.376 168.88C137.376 170.251 137.862 170.818 138.548 170.818C139.234 170.818 139.72 170.251 139.72 168.88H139.73Z" fill="#263238"/>
<path d="M144.72 167.184C144.755 167.498 144.664 167.814 144.466 168.061C144.269 168.308 143.981 168.466 143.667 168.502C143.601 168.507 143.534 168.507 143.467 168.502C143.23 168.507 142.995 168.449 142.787 168.334L142.997 167.918C143.136 168.005 143.298 168.047 143.462 168.037C143.634 168.048 143.804 167.989 143.933 167.875C144.063 167.761 144.142 167.6 144.153 167.427C144.158 167.393 144.158 167.358 144.153 167.324C143.985 167.477 143.764 167.556 143.537 167.546C143.436 167.555 143.333 167.544 143.236 167.513C143.138 167.482 143.048 167.432 142.97 167.367C142.891 167.301 142.827 167.221 142.78 167.13C142.733 167.039 142.704 166.94 142.695 166.838V166.779C142.698 166.668 142.722 166.559 142.767 166.458C142.812 166.357 142.877 166.266 142.957 166.19C143.037 166.113 143.132 166.054 143.235 166.014C143.338 165.974 143.448 165.955 143.559 165.958H143.64C144.32 165.969 144.72 166.39 144.72 167.184ZM144.088 166.757C144.085 166.658 144.044 166.563 143.972 166.493C143.901 166.424 143.805 166.385 143.705 166.385H143.64C143.591 166.375 143.541 166.375 143.492 166.385C143.443 166.395 143.396 166.415 143.355 166.443C143.314 166.471 143.279 166.508 143.252 166.55C143.225 166.592 143.207 166.639 143.199 166.688C143.191 166.737 143.192 166.788 143.204 166.836C143.215 166.885 143.237 166.931 143.266 166.971C143.296 167.011 143.333 167.045 143.376 167.07C143.419 167.096 143.466 167.113 143.516 167.119H143.64C143.689 167.128 143.739 167.127 143.788 167.116C143.836 167.105 143.882 167.085 143.923 167.056C143.963 167.027 143.998 166.991 144.024 166.949C144.051 166.907 144.069 166.86 144.077 166.812C144.08 166.792 144.08 166.772 144.077 166.752L144.088 166.757Z" fill="#263238"/>
<path d="M146.972 167.184C147.007 167.498 146.915 167.814 146.718 168.061C146.52 168.308 146.233 168.466 145.919 168.502C145.852 168.507 145.785 168.507 145.719 168.502C145.481 168.507 145.247 168.449 145.039 168.334L145.26 167.94C145.396 168.027 145.557 168.069 145.719 168.059C145.804 168.065 145.889 168.055 145.97 168.028C146.051 168.002 146.126 167.959 146.19 167.904C146.254 167.848 146.307 167.78 146.345 167.704C146.382 167.627 146.405 167.544 146.41 167.459C146.416 167.422 146.416 167.384 146.41 167.346C146.329 167.423 146.233 167.482 146.128 167.52C146.023 167.558 145.911 167.574 145.8 167.567C145.697 167.576 145.594 167.565 145.496 167.534C145.398 167.503 145.307 167.453 145.228 167.387C145.15 167.32 145.085 167.239 145.037 167.148C144.99 167.057 144.961 166.957 144.952 166.855V166.801C144.955 166.69 144.98 166.581 145.024 166.48C145.069 166.379 145.134 166.287 145.214 166.211C145.294 166.135 145.389 166.075 145.492 166.036C145.595 165.996 145.706 165.977 145.816 165.98H145.886C146.556 165.969 146.972 166.39 146.972 167.184ZM146.335 166.757C146.332 166.658 146.29 166.563 146.219 166.493C146.147 166.424 146.051 166.385 145.951 166.385H145.908C145.811 166.385 145.717 166.423 145.648 166.492C145.579 166.561 145.541 166.655 145.541 166.752C145.541 166.849 145.579 166.943 145.648 167.012C145.717 167.08 145.811 167.119 145.908 167.119C145.957 167.127 146.007 167.125 146.055 167.113C146.103 167.101 146.148 167.079 146.188 167.05C146.228 167.02 146.261 166.983 146.286 166.94C146.312 166.897 146.328 166.85 146.335 166.801C146.337 166.784 146.337 166.768 146.335 166.752V166.757Z" fill="#263238"/>
<path d="M146.95 169.349H142.641V169.895H146.95V169.349Z" fill="#263238"/>
<path d="M122.445 167.632H100.197V168.323H122.445V167.632Z" fill="#263238"/>
<path d="M113.702 169.835H100.197V170.527H113.702V169.835Z" fill="#263238"/>
<path d="M148.063 198.331L103.583 198.126C103.124 198.126 102.751 197.618 102.757 197.003L102.805 185.366C102.805 184.75 103.183 184.253 103.642 184.253L148.122 184.464C148.581 184.464 148.954 184.966 148.954 185.582L148.905 197.219C148.9 197.834 148.527 198.331 148.063 198.331Z" fill="#4448AE"/>
<path d="M124.011 191.814C124.011 192.408 123.59 192.742 122.758 192.737H121.225V189.254H122.666C123.406 189.254 123.833 189.589 123.833 190.156C123.839 190.328 123.79 190.497 123.693 190.639C123.595 190.781 123.455 190.888 123.293 190.944C123.5 190.971 123.69 191.076 123.823 191.237C123.957 191.399 124.024 191.605 124.011 191.814ZM123.66 191.781C123.66 191.328 123.347 191.128 122.758 191.128H121.581V192.434H122.758C123.341 192.44 123.66 192.24 123.66 191.781ZM121.586 189.54V190.804H122.666C123.206 190.804 123.509 190.593 123.514 190.177C123.52 189.762 123.206 189.546 122.672 189.54H121.586Z" fill="white"/>
<path d="M124.794 191.257V189.265H125.145V191.246C125.145 192.073 125.512 192.451 126.16 192.456C126.808 192.461 127.186 192.083 127.186 191.257V189.275H127.526V191.273C127.526 192.272 126.986 192.785 126.155 192.785C125.323 192.785 124.789 192.24 124.794 191.257Z" fill="white"/>
<path d="M129.686 191.565V192.78H129.341V191.576L128.018 189.292H128.39L129.53 191.252L130.68 189.302H131.031L129.686 191.565Z" fill="white"/>
<path d="M111.272 80.3789H94.4568V88.9649H111.272V80.3789Z" fill="#4448AE"/>
<path d="M98.0856 77.3711L94.4568 80.3789H111.272L113.751 77.3711H98.0856Z" fill="#4448AE"/>
<path opacity="0.2" d="M98.0856 77.3711L94.4568 80.3789H111.272L113.751 77.3711H98.0856Z" fill="black"/>
<path d="M111.272 88.9649L113.751 85.6925V77.3711L111.272 80.3789V88.9649Z" fill="#4448AE"/>
<path opacity="0.1" d="M111.272 88.9649L113.751 85.6925V77.3711L111.272 80.3789V88.9649Z" fill="black"/>
<path d="M108.41 83.1709H96.9463V84.0565H108.41V83.1709Z" fill="#4448AE"/>
<path opacity="0.1" d="M108.41 83.1709H96.9463V84.0565H108.41V83.1709Z" fill="black"/>
<path d="M106.332 84.7693H99.2144V85.6549H106.332V84.7693Z" fill="#4448AE"/>
<path opacity="0.1" d="M106.332 84.7693H99.2144V85.6549H106.332V84.7693Z" fill="black"/>
<path d="M106.877 93.5928H99.2144V94.7646H106.877V93.5928Z" fill="#263238"/>
<path d="M94.4568 80.3791C94.7267 80.3395 94.9994 80.3214 95.2722 80.3251L97.4916 80.2765C99.3654 80.2765 101.957 80.2387 104.814 80.2387L111.294 80.2711L111.208 80.3089L113.054 78.1489C113.272 77.8724 113.513 77.6142 113.773 77.3767C113.591 77.6787 113.383 77.9642 113.152 78.2299L111.359 80.4601L111.326 80.4979H111.272L104.792 80.5303C101.936 80.5303 99.3438 80.5303 97.47 80.4871L95.2506 80.4439C94.9845 80.4494 94.7185 80.4277 94.4568 80.3791Z" fill="#4448AE"/>
<g opacity="0.2">
<path opacity="0.2" d="M94.4568 80.3791C94.7267 80.3395 94.9994 80.3214 95.2722 80.3251L97.4916 80.2765C99.3654 80.2765 101.957 80.2387 104.814 80.2387L111.294 80.2711L111.208 80.3089L113.054 78.1489C113.272 77.8724 113.513 77.6142 113.773 77.3767C113.591 77.6787 113.383 77.9642 113.152 78.2299L111.359 80.4601L111.326 80.4979H111.272L104.792 80.5303C101.936 80.5303 99.3438 80.5303 97.47 80.4871L95.2506 80.4439C94.9845 80.4494 94.7185 80.4277 94.4568 80.3791Z" fill="black"/>
</g>
<path d="M111.273 88.965C111.131 87.5387 111.084 86.1046 111.132 84.6721C111.082 83.2305 111.129 81.7873 111.273 80.3521C111.418 81.7871 111.467 83.2304 111.418 84.6721C111.467 86.1047 111.418 87.539 111.273 88.965Z" fill="#4448AE"/>
<g opacity="0.2">
<path opacity="0.2" d="M111.273 88.965C111.131 87.5387 111.084 86.1046 111.132 84.6721C111.082 83.2305 111.129 81.7873 111.273 80.3521C111.418 81.7871 111.467 83.2304 111.418 84.6721C111.467 86.1047 111.418 87.539 111.273 88.965Z" fill="black"/>
</g>
<path d="M130.864 93.5928H123.201V94.7646H130.864V93.5928Z" fill="#263238"/>
<path d="M120.768 75.6173L120.657 88.9116L132.715 89.0126L132.826 75.7183L120.768 75.6173Z" fill="#4448AE"/>
<path d="M124.281 72.9377L120.722 75.6701H132.781L135.259 72.9377H124.281Z" fill="#4448AE"/>
<path d="M132.781 88.9649L135.259 85.6925V72.9377L132.781 75.6701V88.9649Z" fill="#4448AE"/>
<path d="M129.433 81.0432H123.336V81.9288H129.433V81.0432Z" fill="#4448AE"/>
<path opacity="0.2" d="M129.433 81.0432H123.336V81.9288H129.433V81.0432Z" fill="black"/>
<path d="M128.331 82.647H124.546V83.5326H128.331V82.647Z" fill="#4448AE"/>
<path opacity="0.2" d="M128.331 82.647H124.546V83.5326H128.331V82.647Z" fill="black"/>
<path d="M120.722 75.6703C120.927 75.6307 121.135 75.6126 121.343 75.6163L123.028 75.5677C124.454 75.5407 126.419 75.5245 128.596 75.5245H132.781L132.689 75.5623C133.445 74.7469 134.077 74.0773 134.525 73.6129C134.745 73.3547 134.991 73.1195 135.259 72.9109C135.075 73.1957 134.865 73.4632 134.633 73.7101C134.212 74.2015 133.607 74.8927 132.872 75.7243L132.835 75.7675H128.596C126.436 75.7675 124.454 75.7675 123.028 75.7243L121.343 75.6811C121.137 75.7018 120.928 75.6982 120.722 75.6703Z" fill="#4448AE"/>
<g opacity="0.3">
<path opacity="0.3" d="M120.722 75.6703C120.927 75.6307 121.135 75.6126 121.343 75.6163L123.028 75.5677C124.454 75.5407 126.419 75.5245 128.596 75.5245H132.781L132.689 75.5623C133.445 74.7469 134.077 74.0773 134.525 73.6129C134.745 73.3547 134.991 73.1195 135.259 72.9109C135.075 73.1957 134.865 73.4632 134.633 73.7101C134.212 74.2015 133.607 74.8927 132.872 75.7243L132.835 75.7675H128.596C126.436 75.7675 124.454 75.7675 123.028 75.7243L121.343 75.6811C121.137 75.7018 120.928 75.6982 120.722 75.6703Z" fill="black"/>
</g>
<path d="M132.781 88.965C132.7 88.965 132.635 85.9896 132.635 82.3176C132.635 78.6456 132.7 75.6702 132.781 75.6702C132.862 75.6702 132.926 78.6456 132.926 82.3176C132.926 85.9896 132.84 88.965 132.781 88.965Z" fill="#4448AE"/>
<g opacity="0.3">
<path opacity="0.3" d="M132.781 88.965C132.7 88.965 132.635 85.9896 132.635 82.3176C132.635 78.6456 132.7 75.6702 132.781 75.6702C132.862 75.6702 132.926 78.6456 132.926 82.3176C132.926 85.9896 132.84 88.965 132.781 88.965Z" fill="black"/>
</g>
<path d="M152.215 93.5928H144.553V94.7646H152.215V93.5928Z" fill="#263238"/>
<path d="M142.911 80.6003C143.537 80.5122 144.169 80.4778 144.801 80.4977C145.973 80.4977 147.588 80.4545 149.375 80.4545C150.957 80.4545 152.41 80.4545 153.511 80.4869L153.43 80.5247C153.922 79.9847 154.321 79.5851 154.608 79.2989C154.742 79.1379 154.899 78.9962 155.072 78.8777C154.97 79.0605 154.845 79.2293 154.699 79.3799C154.446 79.6931 154.068 80.1359 153.619 80.6705L153.587 80.7083H153.533C152.453 80.7083 150.979 80.7407 149.397 80.7407C147.609 80.7407 145.995 80.7407 144.823 80.6975C144.184 80.7138 143.545 80.6813 142.911 80.6003Z" fill="#4448AE"/>
<path d="M153.517 80.6003H142.911V88.9703H153.517V80.6003Z" fill="#4448AE"/>
<path opacity="0.2" d="M153.517 80.6003H142.911V88.9703H153.517V80.6003Z" fill="black"/>
<path d="M145.152 78.8777L142.911 80.5949H153.517L155.072 78.8777H145.152Z" fill="#4448AE"/>
<path d="M153.517 88.9649L155.072 86.9075V78.8777L153.517 80.5949V88.9649Z" fill="#4448AE"/>
<path opacity="0.1" d="M153.517 88.9649L155.072 86.9075V78.8777L153.517 80.5949V88.9649Z" fill="black"/>
<path d="M150.768 83.7917H145.914V84.4397H150.768V83.7917Z" fill="#4448AE"/>
<path d="M149.888 84.969H146.875V85.617H149.888V84.969Z" fill="#4448AE"/>
<path d="M153.517 88.9649C153.367 87.5753 153.315 86.1769 153.36 84.7799C153.311 83.385 153.36 81.9885 153.506 80.6003C153.644 81.9889 153.691 83.3852 153.646 84.7799C153.695 86.1763 153.652 87.5743 153.517 88.9649Z" fill="#4448AE"/>
<path d="M168.653 40.2732L167.551 42.282L165.542 43.3782L167.551 44.4798L168.653 46.4832L169.749 44.4798L171.758 43.3782L169.749 42.282L168.653 40.2732Z" fill="#4448AE"/>
<path d="M74.709 91.9458L73.6074 93.9546L71.5986 95.0508L73.6074 96.147L74.709 98.1558L75.8052 96.147L77.814 95.0508L75.8052 93.9546L74.709 91.9458Z" fill="#4448AE"/>
<path d="M176.655 48.7944L175.98 50.0256L174.749 50.7006L175.98 51.3756L176.655 52.6122L177.336 51.3756L178.567 50.7006L177.336 50.0256L176.655 48.7944Z" fill="#4448AE"/>
<path d="M68.6826 80.4006L68.0076 81.6318L66.7764 82.3068L68.0076 82.9818L68.6826 84.2184L69.3576 82.9818L70.5888 82.3068L69.3576 81.6318L68.6826 80.4006Z" fill="#4448AE"/>
<path d="M221.232 220.86L217.258 217.733L223.063 210.254L228.922 214.763L228.593 215.249C227.108 217.409 220.881 226.093 219.413 227.129C217.728 228.344 221.232 220.86 221.232 220.86Z" fill="#4448AE"/>
<path d="M218.889 227.059C218.819 227.005 220.952 224.175 223.652 220.741C226.352 217.307 228.598 214.569 228.668 214.623C228.738 214.677 226.605 217.506 223.905 220.941C221.205 224.375 218.959 227.113 218.889 227.059Z" fill="#263238"/>
<path d="M221.94 221.648C221.94 221.735 221.664 221.767 221.362 221.767C221.06 221.767 220.795 221.724 220.784 221.637C220.773 221.551 221.027 221.438 221.362 221.443C221.697 221.448 221.94 221.562 221.94 221.648Z" fill="#263238"/>
<path d="M221.827 222.329C221.8 222.415 221.513 222.41 221.179 222.361C220.844 222.312 220.563 222.248 220.563 222.161C220.563 222.075 220.86 221.994 221.222 222.042C221.584 222.091 221.854 222.242 221.827 222.329Z" fill="#263238"/>
<path d="M226.876 216.842C226.832 216.842 226.741 216.686 226.633 216.394C226.487 216.004 226.416 215.59 226.422 215.174C226.428 214.738 226.584 214.319 226.865 213.986C227.086 213.737 227.291 213.678 227.313 213.716C227.335 213.754 227.194 213.878 227.048 214.121C226.858 214.449 226.754 214.821 226.746 215.201C226.747 215.587 226.783 215.972 226.854 216.351C226.903 216.637 226.919 216.832 226.876 216.842Z" fill="#263238"/>
<path d="M221.173 221.081C221.141 221 221.303 220.855 221.513 220.72C221.724 220.585 221.929 220.498 221.988 220.563C222.048 220.628 221.929 220.838 221.691 220.995C221.454 221.152 221.205 221.168 221.173 221.081Z" fill="#263238"/>
<path d="M220.86 220.666C220.795 220.601 220.898 220.358 221.087 220.126C221.276 219.893 221.497 219.731 221.573 219.785C221.648 219.839 221.54 220.077 221.341 220.325C221.141 220.574 220.946 220.725 220.86 220.666Z" fill="#263238"/>
<path d="M194.902 156.6C194.902 156.6 183.022 188.103 184.642 193.989C186.262 199.875 218.219 223.247 218.219 223.247L226.897 210.751C226.897 210.751 201.96 191.014 201.879 189.929C201.798 188.843 211.782 162.664 211.782 162.664L194.902 156.6Z" fill="#263238"/>
<path d="M217.669 213.64L217.555 213.581C217.474 213.521 217.372 213.457 217.242 213.376L216.054 212.56C215.033 211.842 213.554 210.794 211.734 209.466C208.138 206.809 203.251 203.018 198.067 198.58C196.771 197.467 195.512 196.371 194.287 195.307L192.521 193.725C191.918 193.241 191.403 192.656 190.998 191.997C190.665 191.318 190.586 190.542 190.777 189.81C190.912 189.113 191.09 188.46 191.257 187.817C191.597 186.548 191.938 185.371 192.245 184.297L193.725 179.215C193.887 178.632 194.017 178.168 194.114 177.827L194.211 177.466C194.194 177.461 194.18 177.449 194.171 177.434C194.162 177.419 194.159 177.402 194.162 177.385C194.167 177.367 194.178 177.353 194.193 177.344C194.208 177.334 194.226 177.332 194.243 177.336C194.261 177.34 194.275 177.351 194.284 177.366C194.294 177.382 194.296 177.4 194.292 177.417C194.289 177.429 194.283 177.44 194.275 177.448C194.266 177.457 194.255 177.463 194.243 177.466C194.229 177.59 194.204 177.713 194.168 177.833C194.098 178.151 193.99 178.627 193.833 179.231C193.525 180.446 193.045 182.191 192.445 184.345C192.148 185.425 191.819 186.597 191.489 187.871C191.327 188.503 191.155 189.167 191.025 189.842C190.853 190.519 190.928 191.235 191.236 191.862C191.629 192.49 192.126 193.047 192.704 193.509L194.476 195.08C195.68 196.16 196.938 197.24 198.256 198.347C203.434 202.781 208.294 206.593 211.858 209.288L216.103 212.458L217.258 213.316L217.555 213.543C217.62 213.608 217.674 213.64 217.669 213.64Z" fill="#455A64"/>
<path d="M214.774 217.447C214.709 217.399 216.356 215.125 218.451 212.371C220.547 209.617 222.302 207.419 222.366 207.468C222.431 207.517 220.779 209.79 218.684 212.549C216.588 215.309 214.839 217.496 214.774 217.447Z" fill="#455A64"/>
<path d="M215.843 96.6924C216.923 98.8092 217.463 100.645 219.558 101.736C220.503 102.233 221.659 102.514 222.258 103.41C222.879 104.393 222.588 105.813 223.371 106.65C224.516 107.897 226.848 106.888 228.128 107.984C229.273 108.967 228.906 111.073 230.142 111.937C230.834 112.428 231.762 112.32 232.572 112.622C233.868 113.125 234.484 114.62 234.651 115.997C234.83 117.103 234.689 118.236 234.246 119.264C234.02 119.774 233.669 120.219 233.225 120.558C232.782 120.897 232.26 121.119 231.708 121.203C230.234 121.36 228.571 120.344 227.388 121.203C227.004 121.559 226.67 121.966 226.395 122.413C226.094 122.796 225.72 123.116 225.295 123.354C224.87 123.593 224.402 123.745 223.918 123.803C223.434 123.86 222.944 123.822 222.474 123.69C222.005 123.558 221.567 123.335 221.184 123.034C220.838 122.757 220.546 122.421 220.32 122.04C219.499 120.668 219.553 118.8 218.349 117.72C217.666 117.24 216.901 116.889 216.092 116.683C215.309 116.392 214.499 115.906 214.266 115.106C213.997 114.399 213.614 113.741 213.132 113.157C212.533 112.261 211.734 113.357 210.935 112.914C210.135 112.471 210.443 111.607 210.395 110.7" fill="#263238"/>
<path d="M201.874 127.3L191.614 123.871C191.614 123.871 187.083 136.917 185.674 137.047C177.984 137.749 169.754 135.194 166.871 134.19C166.574 133.861 166.239 133.466 165.866 132.98C165.549 132.564 165.304 132.096 165.143 131.598C164.92 130.986 164.782 130.347 164.732 129.697C164.747 129.538 164.699 129.38 164.598 129.257C164.497 129.133 164.351 129.055 164.192 129.038C164.102 129.031 164.011 129.044 163.926 129.076C163.841 129.107 163.764 129.157 163.701 129.222C163.372 129.654 163.285 131.301 164.041 133.078C164.797 134.854 162.113 133.439 161.125 132.943C160.137 132.446 157.01 131.053 156.616 131.236C156.038 131.506 156.222 132.17 157.221 132.646C158.22 133.121 161.114 134.746 160.823 135.254C160.531 135.761 155.547 133.159 155.547 133.159C155.547 133.159 154.564 132.435 154.213 133.013C153.581 134.055 159.073 136.42 159.613 136.631C159.986 136.782 159.694 137.344 159.305 137.171C158.917 136.998 154.445 134.471 153.776 135.551C153.268 136.361 158.29 137.543 158.938 138.586C159.586 139.628 155.223 137.306 154.775 138.1C154.607 138.391 154.521 138.64 157.221 139.612C159.2 140.228 161.209 140.74 163.242 141.145V141.172C163.242 141.172 190.21 153.236 196.031 141.61C202.187 129.233 201.874 127.3 201.874 127.3Z" fill="#E5BAAB"/>
<path d="M212.009 116.494L216.486 116.575L220.039 126.765L217.145 138.44C216.297 141.847 220.142 148.673 220.039 152.437L194.94 156.503L194.4 139.736V139.196L185.711 134.876L188.579 127.856C192.991 117.52 200.696 116.894 200.696 116.894L212.009 116.494Z" fill="#4448AE"/>
<g opacity="0.2">
<path opacity="0.2" d="M212.009 116.494L216.486 116.575L220.039 126.765L217.145 138.44C216.297 141.847 220.142 148.673 220.039 152.437L194.94 156.503L194.4 139.736V139.196L185.711 134.876L188.579 127.856C192.991 117.52 200.696 116.894 200.696 116.894L212.009 116.494Z" fill="white"/>
</g>
<path d="M216.669 116.602C216.617 116.61 216.567 116.63 216.524 116.661C216.38 116.71 216.234 116.752 216.086 116.786C215.512 116.889 214.931 116.947 214.347 116.958L214.401 116.856L216.113 119.637L216.232 119.82L216.011 119.783C215.019 119.61 214.009 119.577 213.008 119.685L213.111 119.556C213.148 120.697 213.311 121.831 213.597 122.936L213.672 123.163L213.435 123.109C212.295 122.865 211.195 122.462 210.168 121.91L210.378 121.818C210.173 122.823 209.963 123.876 209.747 124.95L209.698 125.183L209.514 125.037C209.062 124.676 208.631 124.288 208.224 123.876C207.822 123.474 207.445 123.049 207.095 122.601L207.3 122.628L204.428 124.891L204.249 125.031L204.201 124.81C203.996 123.811 203.801 122.839 203.612 121.91L203.785 122.007L200.712 123.087L200.502 123.163L200.561 122.947C200.885 121.721 201.182 120.609 201.452 119.621L201.528 119.739L198.86 119.28H198.752L198.812 119.189L199.978 117.482L200.291 117.045C200.361 116.948 200.405 116.899 200.41 116.904C200.415 116.91 200.356 117.012 200.324 117.066L200.043 117.52L198.936 119.264L198.887 119.156L201.56 119.561H201.668V119.669L200.815 123.006L200.664 122.861L203.72 121.781L203.866 121.727L203.898 121.878L204.503 124.778L204.276 124.697L207.144 122.423L207.257 122.331L207.349 122.445C207.685 122.871 208.045 123.277 208.429 123.66C208.828 124.063 209.25 124.444 209.693 124.799L209.466 124.886C209.682 123.806 209.898 122.758 210.103 121.754L210.141 121.559L210.314 121.662C211.315 122.201 212.388 122.598 213.5 122.839L213.343 123.006C213.059 121.883 212.903 120.731 212.879 119.572V119.453H212.997C214.021 119.349 215.054 119.395 216.065 119.588L215.962 119.739C215.309 118.659 214.752 117.687 214.299 116.926L214.245 116.829H214.353C214.932 116.833 215.512 116.797 216.086 116.721C216.278 116.671 216.473 116.631 216.669 116.602Z" fill="#455A64"/>
<path d="M221.627 120.884C221.451 120.81 221.271 120.749 221.087 120.701C220.568 120.557 220.022 120.548 219.499 120.674L219.542 120.614C219.645 121.208 219.807 121.921 220.028 122.737C220.25 123.552 220.52 124.475 220.763 125.518L220.801 125.669L220.644 125.626C219.364 125.253 217.858 124.972 216.275 124.438L216.421 124.319C216.589 125.858 216.578 127.559 216.669 129.395V129.551H216.508C215.065 129.301 213.647 128.927 212.268 128.434C212.096 128.385 211.896 128.315 211.847 128.39C211.739 128.521 211.658 128.671 211.61 128.833L211.162 129.913C210.865 130.642 210.557 131.382 210.249 132.127L210.157 132.354L210.006 132.165L207.133 128.601L206.917 128.336H207.112L202.5 131.512L202.349 131.614L202.284 131.441C201.744 129.94 201.258 128.493 200.772 127.089L200.977 127.159C199.364 128.208 197.64 129.075 195.836 129.746L195.647 129.821V129.6C195.977 127.262 196.274 125.161 196.528 123.347L196.663 123.449C195.35 123.968 193.94 124.195 192.532 124.114H192.44L192.472 124.027L193.439 121.424C193.552 121.149 193.633 120.928 193.698 120.76C193.724 120.683 193.759 120.609 193.801 120.539C193.785 120.618 193.763 120.695 193.736 120.771C193.676 120.944 193.601 121.165 193.509 121.451C193.293 122.067 192.969 122.947 192.596 124.076L192.537 123.984C193.922 124.04 195.303 123.799 196.587 123.277L196.743 123.212V123.379C196.5 125.199 196.203 127.294 195.912 129.638L195.744 129.508C197.525 128.833 199.227 127.965 200.821 126.922L200.966 126.83L201.026 126.992L202.548 131.312L202.333 131.247L206.949 128.066L207.063 127.991L207.144 128.093L207.36 128.358L210.227 131.927L209.984 131.96L210.902 129.746L211.351 128.666C211.415 128.462 211.528 128.277 211.68 128.126C211.735 128.077 211.802 128.046 211.874 128.034H212.058C212.158 128.055 212.258 128.082 212.355 128.115C213.72 128.605 215.124 128.98 216.551 129.238L216.399 129.373C216.318 127.548 216.335 125.836 216.183 124.308V124.13L216.351 124.189C217.917 124.729 219.413 125.026 220.703 125.415L220.584 125.523C220.358 124.492 220.093 123.568 219.888 122.742C219.683 121.916 219.531 121.203 219.44 120.582V120.533H219.488C220.025 120.413 220.585 120.439 221.108 120.609C221.292 120.679 221.466 120.771 221.627 120.884Z" fill="#455A64"/>
<path d="M194.54 139.05C194.343 138.992 194.159 138.895 194 138.764C193.54 138.444 193.146 138.039 192.839 137.57C192.384 136.858 192.177 136.015 192.251 135.173C192.286 134.255 192.558 133.362 193.041 132.58C193.523 131.799 194.2 131.155 195.005 130.712L194.929 130.82C195.134 129.281 195.323 127.958 195.469 127.04C195.523 126.539 195.615 126.043 195.745 125.555C195.749 126.061 195.713 126.567 195.637 127.067C195.545 128.007 195.388 129.335 195.199 130.88V130.945L195.129 130.982C194.376 131.414 193.743 132.027 193.288 132.765C192.832 133.504 192.569 134.344 192.521 135.211C192.439 136.002 192.613 136.799 193.018 137.484C193.305 137.948 193.67 138.359 194.098 138.699C194.251 138.808 194.399 138.925 194.54 139.05Z" fill="#455A64"/>
<path d="M195.48 127.737C195.41 127.775 195.161 127.413 194.94 126.938C194.719 126.463 194.573 126.047 194.648 126.009C194.724 125.971 194.967 126.333 195.188 126.814C195.41 127.294 195.561 127.705 195.48 127.737Z" fill="#455A64"/>
<path d="M211.707 116.64L212.479 98.9981L205.459 93.6899L199.093 96.8003C199.093 96.8003 198.877 104.798 199.093 108.27C199.309 111.742 202.802 112.104 202.802 112.104C202.802 112.104 202.721 114.14 202.64 116.273C202.594 117.468 203.022 118.633 203.831 119.513C204.641 120.393 205.766 120.917 206.96 120.971H207.187C208.353 120.969 209.473 120.518 210.315 119.711C211.157 118.905 211.656 117.805 211.707 116.64Z" fill="#E5BAAB"/>
<path d="M199.8 102.632C199.799 102.721 199.824 102.808 199.872 102.882C199.921 102.956 199.99 103.015 200.072 103.05C200.153 103.085 200.243 103.094 200.33 103.078C200.417 103.062 200.498 103.02 200.561 102.958C200.625 102.896 200.668 102.817 200.686 102.73C200.705 102.644 200.697 102.553 200.664 102.471C200.631 102.389 200.575 102.318 200.502 102.268C200.428 102.218 200.342 102.191 200.253 102.189C200.136 102.189 200.023 102.236 199.94 102.319C199.857 102.402 199.811 102.515 199.811 102.632H199.8Z" fill="#263238"/>
<path d="M199.368 102.146C199.422 102.206 199.751 101.925 200.226 101.898C200.702 101.871 201.063 102.103 201.117 102.038C201.171 101.974 201.08 101.909 200.923 101.801C200.712 101.663 200.462 101.597 200.21 101.612C199.959 101.626 199.718 101.721 199.524 101.882C199.384 102.011 199.335 102.125 199.368 102.146Z" fill="#263238"/>
<path d="M204.941 102.632C204.941 102.72 204.967 102.805 205.015 102.878C205.064 102.951 205.133 103.008 205.214 103.041C205.295 103.075 205.384 103.084 205.47 103.067C205.556 103.049 205.635 103.007 205.697 102.945C205.759 102.883 205.801 102.805 205.818 102.719C205.835 102.633 205.826 102.544 205.793 102.463C205.759 102.382 205.702 102.313 205.629 102.264C205.557 102.215 205.471 102.189 205.383 102.189C205.266 102.189 205.153 102.236 205.07 102.319C204.987 102.402 204.941 102.515 204.941 102.632Z" fill="#263238"/>
<path d="M204.66 102.146C204.714 102.206 205.043 101.925 205.524 101.898C206.005 101.871 206.356 102.103 206.41 102.038C206.464 101.974 206.372 101.909 206.215 101.801C206.004 101.663 205.754 101.597 205.503 101.612C205.251 101.626 205.011 101.721 204.817 101.882C204.772 101.911 204.734 101.95 204.707 101.996C204.68 102.042 204.664 102.093 204.66 102.146Z" fill="#263238"/>
<path d="M204.519 106.634C203.79 107.007 203.012 107.276 202.208 107.433C202.385 107.673 202.636 107.847 202.922 107.929C203.209 108.01 203.514 107.993 203.79 107.881C203.918 107.852 204.038 107.798 204.145 107.722C204.251 107.646 204.341 107.55 204.411 107.439C204.48 107.328 204.527 107.205 204.548 107.076C204.569 106.947 204.565 106.815 204.536 106.688L204.519 106.634Z" fill="white"/>
<path d="M202.808 112.104C204.456 112.037 206.051 111.499 207.403 110.554C207.403 110.554 206.361 113.103 202.883 112.957L202.808 112.104Z" fill="#D78776"/>
<path d="M222.572 108.967C222.134 108.983 221.7 108.885 221.313 108.68C220.742 108.374 220.267 107.914 219.942 107.352C219.538 106.65 219.195 105.915 218.916 105.154C218.268 103.534 217.782 102.049 217.447 100.958C217.398 100.786 217.35 100.629 217.307 100.478C217.263 100.327 217.247 100.127 217.215 100.003C215.319 92.7719 208.98 91.4219 207.705 91.4219C206.431 91.4219 204.001 90.6821 200.561 94.2515C200.042 94.7872 199.602 95.3946 199.254 96.0551C198.494 97.009 197.969 98.1281 197.721 99.3221C197.57 99.8838 197.542 100.471 197.64 101.045C197.705 101.045 197.715 100.386 197.985 99.3815C198.149 98.7912 198.374 98.2193 198.655 97.6751C198.353 99.0112 198.476 100.408 199.006 101.671L200.237 101.331L204.654 99.8297C204.255 98.4581 204.843 96.7625 205.194 95.9687L205.227 95.9417C205.475 97.3836 206.175 98.7094 207.225 99.7283C208.275 100.747 209.621 101.407 211.07 101.612L211.885 112.952C217.755 111.699 217.62 103.842 217.582 102.244C217.852 103.145 218.198 104.177 218.63 105.262C218.918 106.04 219.28 106.788 219.71 107.498C220.075 108.095 220.606 108.573 221.238 108.875C221.664 109.075 222.139 109.144 222.604 109.075C222.776 109.057 222.94 108.994 223.079 108.891C222.913 108.931 222.743 108.956 222.572 108.967Z" fill="#263238"/>
<path d="M202.937 106.186C202.683 106.121 202.422 106.088 202.16 106.088C202.036 106.088 201.917 106.061 201.89 105.975C201.875 105.841 201.899 105.706 201.96 105.586L202.284 104.598C202.516 103.891 202.711 103.248 202.824 102.784C202.915 102.536 202.975 102.279 203.002 102.017C202.868 102.243 202.764 102.487 202.694 102.74C202.532 103.199 202.316 103.82 202.084 104.539C201.976 104.884 201.874 105.219 201.771 105.532C201.7 105.688 201.685 105.863 201.728 106.029C201.744 106.072 201.771 106.11 201.806 106.14C201.841 106.171 201.883 106.192 201.928 106.202C201.997 106.213 202.068 106.213 202.138 106.202C202.404 106.229 202.673 106.223 202.937 106.186Z" fill="#263238"/>
<path d="M212.846 106.04C212.792 105.462 212.857 104.88 213.035 104.328C213.127 104.053 213.292 103.807 213.511 103.617C213.731 103.427 213.997 103.3 214.283 103.248C214.615 103.234 214.942 103.342 215.2 103.552C215.459 103.762 215.632 104.059 215.687 104.387C215.727 104.719 215.668 105.055 215.516 105.352C215.363 105.65 215.126 105.895 214.834 106.056C214.537 106.211 214.21 106.296 213.876 106.306C213.542 106.315 213.21 106.248 212.906 106.11" fill="#E5BAAB"/>
<path d="M213.84 105.532C213.84 105.494 214.029 105.581 214.277 105.505C214.433 105.454 214.568 105.356 214.665 105.225C214.762 105.093 214.815 104.934 214.817 104.771C214.83 104.689 214.826 104.605 214.804 104.525C214.783 104.445 214.745 104.371 214.693 104.306C214.586 104.222 214.451 104.182 214.315 104.193C214.056 104.22 213.872 104.285 213.856 104.241C213.84 104.198 213.975 104.079 214.283 103.993C214.382 103.967 214.486 103.964 214.587 103.983C214.688 104.003 214.783 104.045 214.866 104.106C214.957 104.192 215.027 104.299 215.068 104.417C215.11 104.536 215.122 104.663 215.103 104.787C215.091 105.026 215 105.253 214.844 105.435C214.716 105.586 214.534 105.683 214.337 105.705C213.986 105.743 213.84 105.554 213.84 105.532Z" fill="#D78776"/>
<path d="M208.542 243.443V238.388L218.014 238.329L218.09 245.721L217.506 245.765C214.893 245.927 204.212 246.402 202.462 245.883C200.513 245.306 208.542 243.443 208.542 243.443Z" fill="#4448AE"/>
<path d="M202.241 245.419C202.241 245.333 205.783 245.257 210.152 245.257C214.52 245.257 218.057 245.333 218.057 245.419C218.057 245.505 214.52 245.581 210.152 245.581C205.783 245.581 202.241 245.511 202.241 245.419Z" fill="#263238"/>
<path d="M208.381 244.474C208.3 244.517 208.116 244.334 207.927 244.091C207.738 243.848 207.614 243.626 207.673 243.551C207.733 243.475 207.981 243.621 208.186 243.885C208.391 244.15 208.44 244.431 208.381 244.474Z" fill="#263238"/>
<path d="M207.776 244.809C207.689 244.841 207.522 244.609 207.349 244.318C207.176 244.026 207.057 243.778 207.128 243.707C207.198 243.637 207.441 243.837 207.624 244.156C207.808 244.474 207.857 244.777 207.776 244.809Z" fill="#263238"/>
<path d="M215.206 245.387C215.174 245.36 215.249 245.181 215.411 244.917C215.627 244.56 215.909 244.249 216.243 243.999C216.588 243.736 217.013 243.598 217.447 243.61C217.782 243.61 217.955 243.756 217.938 243.794C217.922 243.831 217.733 243.794 217.452 243.837C217.082 243.888 216.731 244.033 216.432 244.258C216.127 244.496 215.847 244.764 215.595 245.057C215.384 245.279 215.244 245.414 215.206 245.387Z" fill="#263238"/>
<path d="M208.348 243.54C208.397 243.464 208.607 243.502 208.845 243.583C209.083 243.664 209.277 243.772 209.261 243.859C209.245 243.945 209.007 243.983 208.721 243.891C208.435 243.799 208.305 243.599 208.348 243.54Z" fill="#263238"/>
<path d="M208.499 243.032C208.499 242.946 208.759 242.876 209.066 242.881C209.374 242.887 209.606 242.962 209.606 243.049C209.606 243.135 209.358 243.211 209.039 243.205C208.721 243.2 208.489 243.124 208.499 243.032Z" fill="#263238"/>
<path d="M200.086 155.736L194.902 156.605L197.888 160.277C198.747 177.557 198.536 194.324 199.33 202.678C199.449 203.947 204.806 243.718 204.271 242.806L220.044 243.464L215.336 203.504L217.566 168.01C219.985 163.816 220.693 158.851 219.542 154.148L219.154 152.555" fill="#455A64"/>
<path d="M210.956 93.2796C210.563 93.1283 210.211 92.8859 209.93 92.5724C209.648 92.2589 209.445 91.8832 209.336 91.476C209.238 91.0659 209.253 90.6367 209.379 90.2344C209.506 89.8321 209.739 89.4717 210.055 89.1918C210.378 88.9219 210.775 88.7562 211.195 88.7167C211.614 88.6772 212.035 88.7656 212.404 88.9704C212.967 89.3599 213.379 89.9322 213.57 90.5904C213.748 91.015 213.797 91.4827 213.71 91.935C213.602 92.2605 213.411 92.5524 213.157 92.7823C212.902 93.0123 212.593 93.1724 212.258 93.2472C211.585 93.3811 210.895 93.3994 210.217 93.3012" fill="#263238"/>
<path d="M224.872 102.902C224.931 102.671 224.942 102.43 224.904 102.195C224.843 101.928 224.715 101.681 224.532 101.477C224.279 101.213 223.957 101.026 223.603 100.937C223.167 100.831 222.716 100.8 222.269 100.845C221.778 100.877 221.254 100.964 220.682 100.974C220.068 101.012 219.458 100.868 218.927 100.559C218.395 100.16 218.022 99.5862 217.874 98.9387C217.517 97.7976 216.929 96.7424 216.146 95.8391C215.504 95.1024 214.749 94.4718 213.91 93.9707C213.117 93.5382 212.281 93.1889 211.415 92.9285H211.604C211.788 92.943 211.969 92.9793 212.144 93.0365C212.798 93.2028 213.428 93.4533 214.018 93.7817C214.894 94.2711 215.682 94.9025 216.351 95.6501C217.171 96.5672 217.787 97.6474 218.16 98.8199C218.286 99.4069 218.615 99.9308 219.089 100.299C219.579 100.585 220.142 100.721 220.709 100.688C221.249 100.688 221.789 100.607 222.285 100.586C222.758 100.55 223.233 100.595 223.689 100.721C224.074 100.829 224.42 101.046 224.683 101.347C224.876 101.579 225.003 101.859 225.05 102.157C225.078 102.338 225.061 102.524 225.002 102.697C224.926 102.854 224.877 102.908 224.872 102.902Z" fill="#263238"/>
<path d="M214.92 106.007C214.92 105.98 215.179 106.186 215.179 106.65C215.176 106.787 215.145 106.921 215.089 107.046C215.032 107.17 214.951 107.282 214.85 107.374C214.728 107.492 214.58 107.581 214.417 107.631C214.255 107.682 214.083 107.694 213.915 107.665C213.748 107.636 213.59 107.57 213.453 107.47C213.315 107.371 213.202 107.242 213.122 107.093C213.057 106.973 213.018 106.842 213.005 106.706C212.992 106.571 213.006 106.434 213.046 106.304C213.074 106.186 213.129 106.075 213.207 105.982C213.284 105.888 213.383 105.814 213.494 105.764C213.364 105.933 213.279 106.132 213.246 106.342C213.208 106.552 213.246 106.768 213.354 106.952C213.421 107.06 213.511 107.152 213.616 107.224C213.721 107.295 213.839 107.345 213.964 107.368C214.089 107.386 214.217 107.378 214.339 107.344C214.461 107.309 214.574 107.25 214.671 107.168C214.834 107.031 214.942 106.839 214.974 106.628C215.006 106.256 214.855 106.029 214.92 106.007Z" fill="#E0E0E0"/>
<path d="M213.5 93.9599C212.343 92.8078 210.869 92.0274 209.266 91.7189C210.107 91.6863 210.941 91.8764 211.684 92.27C212.428 92.6635 213.054 93.2465 213.5 93.9599Z" fill="#4448AE"/>
<path d="M215.514 105.343C215.514 105.305 215.671 105.295 215.768 105.473C215.792 105.526 215.804 105.584 215.804 105.643C215.804 105.701 215.792 105.759 215.768 105.813C215.732 105.88 215.68 105.936 215.615 105.976C215.55 106.016 215.476 106.038 215.401 106.04C215.285 106.047 215.172 106.009 215.085 105.933C214.998 105.857 214.944 105.75 214.936 105.635C214.931 105.606 214.931 105.577 214.936 105.548C214.936 105.365 215.066 105.305 215.093 105.327C215.12 105.349 215.093 105.435 215.141 105.543C215.149 105.602 215.179 105.656 215.225 105.694C215.272 105.732 215.33 105.751 215.39 105.748C215.412 105.75 215.435 105.747 215.457 105.739C215.478 105.732 215.498 105.72 215.515 105.705C215.532 105.69 215.546 105.672 215.556 105.652C215.566 105.631 215.572 105.609 215.573 105.586C215.573 105.586 215.573 105.559 215.573 105.543C215.568 105.44 215.503 105.386 215.514 105.343Z" fill="#E0E0E0"/>
<path d="M211.82 116.1C211.875 116.289 211.895 116.487 211.88 116.683C211.868 117.221 211.762 117.753 211.566 118.254C211.314 118.902 210.922 119.486 210.417 119.964C209.912 120.441 209.308 120.801 208.648 121.018C207.987 121.234 207.287 121.301 206.598 121.215C205.908 121.128 205.246 120.89 204.66 120.517C203.98 120.081 203.423 119.479 203.04 118.767C202.785 118.293 202.615 117.778 202.538 117.245C202.5 117.052 202.5 116.854 202.538 116.661C202.652 117.365 202.883 118.044 203.223 118.67C203.613 119.328 204.153 119.883 204.8 120.29C205.602 120.772 206.532 121 207.466 120.943C208.4 120.886 209.295 120.548 210.033 119.972C210.628 119.489 211.098 118.87 211.404 118.168C211.655 117.506 211.796 116.807 211.82 116.1Z" fill="#455A64"/>
<path d="M210.686 239.852C210.67 239.804 210.66 239.755 210.654 239.706C210.654 239.592 210.616 239.452 210.595 239.274C210.541 238.874 210.465 238.318 210.373 237.616C210.19 236.174 209.947 234.09 209.66 231.503C209.083 226.341 208.375 219.202 207.738 211.302C207.101 203.402 206.658 196.23 206.41 191.041C206.275 188.449 206.188 186.348 206.14 184.896C206.118 184.176 206.102 183.62 206.091 183.227V182.79C206.086 182.741 206.086 182.692 206.091 182.644C206.096 182.692 206.096 182.741 206.091 182.79C206.088 182.935 206.099 183.079 206.123 183.222C206.15 183.627 206.183 184.183 206.231 184.89C206.318 186.365 206.437 188.454 206.588 191.03C206.901 196.214 207.376 203.375 208.008 211.275C208.64 219.175 209.32 226.319 209.839 231.482C210.103 234.052 210.314 236.136 210.465 237.605C210.535 238.307 210.589 238.863 210.627 239.268C210.631 239.413 210.644 239.557 210.665 239.7C210.68 239.749 210.687 239.8 210.686 239.852Z" fill="#263238"/>
<path d="M219.499 239.889C219.302 239.942 219.099 239.971 218.894 239.976C218.506 240.008 217.939 240.046 217.242 240.078C215.843 240.149 213.91 240.181 211.777 240.149C209.644 240.116 207.711 240.051 206.318 239.997L204.665 239.917C204.46 239.922 204.255 239.9 204.055 239.852C204.256 239.809 204.461 239.792 204.665 239.803H206.323C207.716 239.803 209.65 239.836 211.783 239.868C213.916 239.9 215.838 239.9 217.237 239.868H218.889C219.093 239.851 219.297 239.858 219.499 239.889Z" fill="#263238"/>
<path d="M216.67 116.602C215.926 116.875 215.14 117.016 214.348 117.018L214.45 116.824L215.492 118.514L216.151 119.594L216.308 119.858L216.005 119.799C215.007 119.652 214.001 119.568 212.992 119.545C213.269 119.454 213.559 119.408 213.851 119.41C214.587 119.363 215.327 119.403 216.054 119.529L215.914 119.734L215.244 118.654L214.234 116.948L214.121 116.759H214.337C215.028 116.726 215.617 116.683 216.022 116.645C216.236 116.609 216.453 116.595 216.67 116.602Z" fill="#455A64"/>
<path d="M221.627 120.884C221.627 120.933 220.844 120.744 219.499 120.712L219.591 120.609C219.91 121.873 220.331 123.557 220.822 125.501L220.876 125.728L220.655 125.669L217.22 124.74L216.286 124.481L216.47 124.335C216.545 126.198 216.616 127.926 216.675 129.411V129.573L216.524 129.53L213.224 128.606L212.312 128.336C212.202 128.309 212.097 128.267 211.999 128.212C212.112 128.214 212.225 128.232 212.333 128.266L213.262 128.477L216.572 129.298L216.427 129.422C216.351 127.937 216.265 126.209 216.173 124.351V124.151L216.367 124.205L217.301 124.465L220.725 125.42L220.558 125.588C220.104 123.628 219.715 121.932 219.418 120.658L219.391 120.55H219.51C220.038 120.576 220.563 120.642 221.081 120.749C221.267 120.776 221.45 120.821 221.627 120.884Z" fill="#455A64"/>
<path d="M222.307 134.579C222.155 134.467 222.023 134.33 221.918 134.174C221.692 133.888 221.443 133.412 221.087 132.862H221.233C220.358 134.568 219.336 136.194 218.176 137.722L218.068 137.867L217.955 137.722C217.415 137.048 216.875 136.328 216.335 135.562L215.093 133.942H215.298L213.3 135.702L212.404 136.474L211.988 136.836L211.788 137.009L211.739 137.052H211.68C211.68 137.101 211.502 136.987 211.54 136.939V136.906C211.54 136.906 211.577 136.998 211.594 136.993L211.502 137.02L211.469 136.917C211.151 135.837 210.929 134.984 210.794 134.368C210.702 134.055 210.666 133.728 210.686 133.402C210.744 133.718 210.818 134.032 210.908 134.341C211.075 134.941 211.329 135.799 211.68 136.852L211.556 136.777C211.595 136.766 211.636 136.766 211.675 136.777C211.702 136.786 211.725 136.803 211.742 136.826C211.758 136.85 211.767 136.878 211.766 136.906C211.772 136.931 211.772 136.957 211.766 136.982H211.739L211.664 136.949C211.658 136.929 211.647 136.91 211.631 136.895L211.599 136.863L211.642 136.82L211.842 136.642L212.252 136.274C212.533 136.021 212.825 135.734 213.133 135.486L215.104 133.731L215.217 133.628L215.314 133.753L216.556 135.373C217.129 136.118 217.679 136.841 218.176 137.533H217.955C219.115 136.022 220.16 134.426 221.081 132.759L221.157 132.629L221.233 132.754C221.578 133.331 221.773 133.834 221.994 134.109C222.215 134.384 222.323 134.563 222.307 134.579Z" fill="#455A64"/>
<path d="M212.76 126.9C212.757 127.083 212.726 127.266 212.668 127.44C212.587 127.775 212.463 128.25 212.29 128.839C211.95 130.01 211.421 131.62 210.74 133.353C210.06 135.086 209.347 136.625 208.796 137.716C208.521 138.256 208.289 138.699 208.116 138.996C208.04 139.157 207.944 139.308 207.83 139.444C208.055 138.825 208.316 138.219 208.613 137.63C209.115 136.517 209.79 134.978 210.47 133.25C211.151 131.522 211.707 129.929 212.09 128.774C212.273 128.135 212.497 127.509 212.76 126.9Z" fill="#455A64"/>
<path d="M216.67 116.602C215.926 116.875 215.14 117.016 214.348 117.018L214.45 116.824L215.492 118.514L216.151 119.594L216.308 119.858L216.005 119.799C215.007 119.652 214.001 119.568 212.992 119.545C213.269 119.454 213.559 119.408 213.851 119.41C214.587 119.363 215.327 119.403 216.054 119.529L215.914 119.734L215.244 118.654L214.234 116.948L214.121 116.759H214.337C215.028 116.726 215.617 116.683 216.022 116.645C216.236 116.609 216.453 116.595 216.67 116.602Z" fill="#455A64"/>
<path d="M212.76 126.9C212.757 127.083 212.726 127.266 212.668 127.44C212.587 127.775 212.463 128.25 212.29 128.839C211.95 130.01 211.421 131.62 210.74 133.353C210.06 135.086 209.347 136.625 208.796 137.716C208.521 138.256 208.289 138.699 208.116 138.996C208.04 139.157 207.944 139.308 207.83 139.444C208.055 138.825 208.316 138.219 208.613 137.63C209.115 136.517 209.79 134.978 210.47 133.25C211.151 131.522 211.707 129.929 212.09 128.774C212.273 128.135 212.497 127.509 212.76 126.9Z" fill="#455A64"/>
<path d="M162.736 120.033L150.183 163.099C149.536 165.32 150.812 167.647 153.034 168.294L223.586 188.858C225.808 189.506 228.134 188.23 228.782 186.008L241.335 142.942C241.982 140.72 240.706 138.394 238.484 137.747L167.931 117.182C165.71 116.535 163.383 117.811 162.736 120.033Z" fill="#4448AE"/>
<g opacity="0.3">
<path opacity="0.3" d="M162.736 120.033L150.183 163.099C149.536 165.32 150.812 167.647 153.034 168.294L223.586 188.858C225.808 189.506 228.134 188.23 228.782 186.008L241.335 142.942C241.982 140.72 240.706 138.394 238.484 137.747L167.931 117.182C165.71 116.535 163.383 117.811 162.736 120.033Z" fill="black"/>
</g>
<path d="M160.261 150.714L158.987 155.077L158.539 154.948L159.694 150.984L158.663 150.682L158.782 150.282L160.261 150.714Z" fill="white"/>
<path d="M164.7 155.984L164.581 156.384L161.498 155.52L161.59 155.201L163.922 153.954C164.56 153.614 164.738 153.344 164.824 153.047C164.97 152.539 164.705 152.129 164.041 151.934C163.823 151.856 163.59 151.827 163.359 151.85C163.128 151.873 162.905 151.948 162.707 152.069L162.47 151.702C162.728 151.55 163.016 151.455 163.315 151.426C163.613 151.396 163.914 151.431 164.198 151.529C165.083 151.789 165.51 152.404 165.278 153.149C165.159 153.565 164.916 153.9 164.165 154.305L162.254 155.331L164.7 155.984Z" fill="white"/>
<path d="M169.49 156.6L168.615 156.346L168.28 157.491L167.832 157.361L168.167 156.211L165.704 155.52L165.796 155.196L168.955 152.982L169.452 153.128L166.401 155.288L168.296 155.828L168.588 154.818L169.025 154.948L168.734 155.957L169.603 156.211L169.49 156.6Z" fill="white"/>
<path d="M176.175 158.528L175.3 158.269L174.965 159.419L174.517 159.289L174.852 158.139L172.389 157.421L172.487 157.097L175.64 154.877L176.137 155.023L173.086 157.183L174.981 157.723L175.273 156.713L175.71 156.838L175.419 157.853L176.288 158.107L176.175 158.528Z" fill="white"/>
<path d="M180.031 159.5C179.809 160.24 179.123 160.672 178.06 160.358C177.478 160.214 176.975 159.85 176.656 159.343L176.98 159.052C177.114 159.274 177.291 159.467 177.5 159.621C177.71 159.775 177.948 159.886 178.2 159.948C178.94 160.164 179.442 159.916 179.593 159.408C179.744 158.9 179.512 158.393 178.4 158.074L177.471 157.799L178.335 155.677L180.722 156.373L180.608 156.773L178.61 156.19L178.07 157.54L178.61 157.702C179.906 158.063 180.252 158.728 180.031 159.5Z" fill="white"/>
<path d="M184.345 160.736C184.236 161.095 183.99 161.396 183.661 161.574C183.331 161.752 182.944 161.793 182.585 161.687L182.466 161.643C181.305 161.309 180.911 160.32 181.31 158.943C181.742 157.464 182.779 156.924 183.962 157.269C184.328 157.356 184.662 157.543 184.928 157.809L184.642 158.117C184.43 157.891 184.156 157.733 183.854 157.664C182.914 157.388 182.131 157.82 181.791 159.003C181.758 159.122 181.726 159.24 181.704 159.365C181.9 159.161 182.151 159.019 182.426 158.955C182.701 158.89 182.989 158.907 183.254 159.003C183.433 159.034 183.603 159.099 183.756 159.196C183.909 159.293 184.042 159.418 184.146 159.566C184.251 159.714 184.325 159.881 184.364 160.058C184.404 160.235 184.408 160.417 184.377 160.596L184.345 160.736ZM183.897 160.623C183.934 160.498 183.946 160.366 183.932 160.237C183.918 160.107 183.879 159.981 183.816 159.867C183.753 159.752 183.668 159.651 183.566 159.57C183.464 159.488 183.347 159.428 183.222 159.392C183.175 159.376 183.126 159.365 183.076 159.359C182.958 159.301 182.829 159.267 182.697 159.258C182.566 159.25 182.434 159.268 182.309 159.31C182.184 159.353 182.069 159.42 181.97 159.507C181.87 159.594 181.79 159.7 181.731 159.818C181.673 159.937 181.639 160.065 181.631 160.197C181.622 160.329 181.64 160.461 181.682 160.586C181.725 160.71 181.792 160.826 181.879 160.925C181.966 161.024 182.072 161.105 182.19 161.163C182.299 161.216 182.416 161.249 182.536 161.26C182.777 161.367 183.05 161.375 183.296 161.281C183.542 161.187 183.741 160.998 183.848 160.758C183.87 160.715 183.886 160.67 183.897 160.623Z" fill="white"/>
<path d="M190.301 162.54C190.091 163.269 189.394 163.674 188.341 163.366C187.759 163.219 187.256 162.856 186.932 162.351L187.256 162.054C187.523 162.501 187.956 162.825 188.46 162.956C189.183 163.166 189.68 162.956 189.842 162.416C190.004 161.876 189.723 161.438 188.913 161.206L188.6 161.114L188.697 160.785L190.35 159.619L188.12 158.971L188.233 158.571L191.041 159.386L190.949 159.705L189.259 160.92C190.182 161.201 190.506 161.827 190.301 162.54Z" fill="white"/>
<path d="M194.692 163.755C194.637 163.933 194.547 164.099 194.428 164.243C194.309 164.387 194.163 164.506 193.998 164.593C193.833 164.68 193.652 164.734 193.467 164.752C193.281 164.769 193.093 164.75 192.915 164.695L192.807 164.657C191.651 164.322 191.257 163.334 191.657 161.957C192.089 160.472 193.126 159.937 194.308 160.277C194.672 160.369 195.006 160.555 195.275 160.817L194.989 161.125C194.773 160.903 194.5 160.746 194.2 160.672C193.261 160.402 192.478 160.828 192.132 162.011C192.1 162.13 192.073 162.248 192.051 162.373C192.245 162.167 192.496 162.023 192.772 161.959C193.048 161.896 193.336 161.916 193.601 162.016C193.78 162.047 193.952 162.113 194.106 162.21C194.26 162.308 194.393 162.435 194.497 162.584C194.602 162.733 194.675 162.901 194.714 163.079C194.753 163.257 194.757 163.441 194.724 163.62C194.718 163.666 194.707 163.711 194.692 163.755ZM194.243 163.636C194.279 163.509 194.29 163.376 194.274 163.245C194.259 163.114 194.218 162.988 194.153 162.873C194.088 162.758 194.001 162.657 193.897 162.575C193.793 162.494 193.674 162.434 193.547 162.4L193.423 162.373C193.304 162.314 193.175 162.28 193.044 162.272C192.912 162.263 192.78 162.281 192.655 162.324C192.53 162.366 192.415 162.433 192.316 162.52C192.217 162.607 192.136 162.713 192.078 162.832C192.02 162.95 191.986 163.079 191.977 163.21C191.969 163.342 191.986 163.474 192.029 163.599C192.072 163.724 192.138 163.839 192.226 163.938C192.313 164.037 192.419 164.118 192.537 164.176C192.645 164.23 192.762 164.263 192.883 164.273C193.002 164.326 193.131 164.355 193.261 164.358C193.392 164.362 193.522 164.339 193.644 164.292C193.766 164.245 193.877 164.174 193.972 164.084C194.066 163.993 194.142 163.885 194.195 163.766C194.195 163.717 194.233 163.669 194.243 163.62V163.636Z" fill="white"/>
<path d="M199.595 161.859L199.503 162.178L196.5 165.693L196.014 165.553L198.963 162.108L196.716 161.46L196.479 162.275L196.036 162.146L196.392 160.931L199.595 161.859Z" fill="white"/>
<path d="M205.832 163.679L205.74 163.998L202.737 167.508L202.251 167.368L205.2 163.928L202.953 163.274L202.716 164.09L202.273 163.96L202.629 162.745L205.832 163.679Z" fill="white"/>
<path d="M209.212 168.08C208.985 168.853 208.192 169.16 207.149 168.836C206.107 168.512 205.605 167.864 205.832 167.092C205.9 166.842 206.052 166.624 206.262 166.473C206.473 166.323 206.729 166.249 206.987 166.266C206.803 166.143 206.663 165.963 206.59 165.753C206.517 165.544 206.514 165.316 206.582 165.105C206.788 164.398 207.522 164.128 208.445 164.398C209.369 164.668 209.855 165.289 209.644 166.018C209.586 166.233 209.459 166.424 209.283 166.56C209.106 166.697 208.89 166.772 208.667 166.774C208.891 166.899 209.067 167.096 209.166 167.333C209.265 167.57 209.281 167.833 209.212 168.08ZM208.753 167.94C208.91 167.4 208.543 166.93 207.77 166.703C206.998 166.477 206.442 166.703 206.285 167.243C206.129 167.783 206.485 168.253 207.263 168.48C208.04 168.707 208.591 168.48 208.753 167.94ZM207.9 166.347C208.58 166.547 209.077 166.347 209.212 165.888C209.347 165.429 209.012 164.97 208.359 164.781C207.706 164.592 207.193 164.781 207.052 165.251C206.912 165.721 207.193 166.153 207.9 166.347Z" fill="white"/>
<path d="M213.743 168.307C213.311 169.792 212.274 170.332 211.086 169.986C210.723 169.896 210.391 169.71 210.125 169.446L210.411 169.139C210.621 169.364 210.894 169.522 211.194 169.592C212.139 169.868 212.917 169.436 213.262 168.253C213.295 168.134 213.327 168.015 213.349 167.891C213.154 168.097 212.904 168.241 212.628 168.305C212.352 168.368 212.063 168.348 211.799 168.248C211.621 168.217 211.451 168.152 211.299 168.055C211.147 167.959 211.016 167.833 210.912 167.685C210.809 167.538 210.736 167.371 210.697 167.195C210.658 167.019 210.655 166.837 210.686 166.66C210.692 166.61 210.703 166.562 210.719 166.514C210.825 166.156 211.069 165.855 211.397 165.677C211.725 165.499 212.11 165.458 212.468 165.564L212.598 165.607C213.748 165.942 214.142 166.93 213.743 168.307ZM213.376 167.265C213.431 166.984 213.373 166.693 213.214 166.455C213.055 166.217 212.808 166.052 212.528 165.996H212.495C212.253 165.905 211.985 165.913 211.748 166.017C211.511 166.121 211.324 166.314 211.227 166.554C211.13 166.794 211.13 167.062 211.228 167.302C211.325 167.542 211.513 167.734 211.75 167.837C211.816 167.864 211.885 167.884 211.955 167.897C212.087 167.95 212.228 167.978 212.37 167.977C212.512 167.976 212.652 167.947 212.783 167.892C212.914 167.837 213.033 167.756 213.133 167.655C213.233 167.554 213.311 167.434 213.365 167.303C213.365 167.289 213.369 167.276 213.376 167.265Z" fill="white"/>
<path d="M218.792 167.454L217.517 171.817L217.069 171.688L218.225 167.724L217.193 167.422L217.312 167.022L218.792 167.454Z" fill="white"/>
<path d="M221.233 172.724L221.114 173.124L218.052 172.26L218.144 171.941L220.477 170.694C221.114 170.354 221.292 170.084 221.378 169.787C221.524 169.285 221.26 168.869 220.595 168.674C220.377 168.596 220.144 168.567 219.913 168.59C219.682 168.614 219.46 168.688 219.262 168.809L219.024 168.442C219.283 168.291 219.571 168.197 219.87 168.168C220.168 168.139 220.469 168.176 220.752 168.275C221.638 168.529 222.064 169.144 221.832 169.895C221.708 170.311 221.47 170.645 220.72 171.05L218.808 172.076L221.233 172.724Z" fill="white"/>
<path d="M225.18 173.016C224.964 173.745 224.273 174.15 223.22 173.842C222.641 173.685 222.144 173.312 221.832 172.8L222.156 172.508C222.287 172.731 222.461 172.925 222.668 173.079C222.875 173.234 223.11 173.347 223.36 173.41C224.084 173.621 224.58 173.41 224.737 172.87C224.894 172.33 224.624 171.893 223.814 171.661L223.5 171.569L223.598 171.234L225.245 170.073L223.014 169.425L223.133 169.025L225.936 169.841L225.844 170.159L224.159 171.353C225.077 171.688 225.401 172.314 225.18 173.016Z" fill="white"/>
<path d="M191.454 167.748L190.903 169.64L225.852 179.82L226.403 177.928L191.454 167.748Z" fill="white"/>
<path d="M207.38 176.48L206.827 178.377L224.755 183.6L225.308 181.702L207.38 176.48Z" fill="white"/>
<path d="M161.119 137.818L159.425 143.63C159.011 145.05 159.827 146.536 161.247 146.95L170.771 149.726C172.191 150.14 173.678 149.325 174.092 147.904L175.785 142.093C176.199 140.673 175.384 139.186 173.964 138.772L164.44 135.996C163.02 135.582 161.533 136.398 161.119 137.818Z" fill="#263238"/>
<path d="M159.57 143.165L159.775 142.463L167.335 144.666C167.755 144.788 168.206 144.739 168.589 144.529C168.972 144.319 169.256 143.965 169.379 143.546C169.501 143.126 169.452 142.675 169.242 142.291C169.032 141.908 168.678 141.624 168.258 141.502L160.698 139.304L160.904 138.602L168.464 140.8C169.043 140.998 169.524 141.412 169.806 141.955C170.088 142.498 170.15 143.13 169.979 143.718C169.808 144.306 169.418 144.805 168.888 145.113C168.358 145.42 167.731 145.511 167.135 145.368L159.57 143.165Z" fill="white"/>
<path d="M169.813 143.282L169.607 143.987L174.79 145.502L174.996 144.798L169.813 143.282Z" fill="white"/>
<path d="M166.236 126.736L165.293 129.971L203.009 140.965L203.951 137.73L166.236 126.736Z" fill="white"/>
<path d="M222.572 134.411L213.3 128.32C213.3 128.32 208.769 141.366 207.36 141.496C199.67 142.198 191.441 139.644 188.557 138.639C188.265 138.31 187.931 137.916 187.558 137.43C187.24 137.013 186.996 136.546 186.834 136.047C186.609 135.436 186.471 134.796 186.424 134.147C186.439 133.988 186.391 133.829 186.29 133.706C186.189 133.583 186.043 133.504 185.884 133.488C185.794 133.481 185.703 133.494 185.618 133.525C185.533 133.557 185.456 133.607 185.393 133.671C185.058 134.103 184.971 135.75 185.733 137.527C186.494 139.304 183.805 137.889 182.817 137.392C181.829 136.895 178.697 135.502 178.302 135.686C177.73 135.956 177.908 136.62 178.907 137.095C179.906 137.57 182.801 139.196 182.514 139.703C182.228 140.211 177.233 137.608 177.233 137.608C177.233 137.608 176.256 136.884 175.905 137.462C175.268 138.504 180.765 140.87 181.305 141.08C181.672 141.231 181.38 141.793 180.992 141.62C180.603 141.447 176.067 138.92 175.413 139.968C174.911 140.778 179.933 141.96 180.581 143.003C181.229 144.045 176.861 141.723 176.412 142.511C176.245 142.808 176.164 143.051 178.864 144.029C180.841 144.645 182.849 145.157 184.88 145.562V145.589C184.88 145.589 212.452 157.934 217.668 146.027C223.252 133.337 222.572 134.411 222.572 134.411Z" fill="#E5BAAB"/>
<path d="M216.486 116.575C216.486 116.575 224.91 117.569 224.046 127.591C223.482 133.787 221.741 139.819 218.916 145.363L207.867 139.563C210.355 134.6 212.227 129.352 213.44 123.935L216.54 116.575H216.486Z" fill="#4448AE"/>
<g opacity="0.2">
<path opacity="0.2" d="M216.486 116.575C216.486 116.575 224.91 117.569 224.046 127.591C223.482 133.787 221.741 139.819 218.916 145.363L207.867 139.563C210.355 134.6 212.227 129.352 213.44 123.935L216.54 116.575H216.486Z" fill="white"/>
</g>
<path d="M221.627 120.884C221.627 120.933 220.844 120.744 219.499 120.712L219.591 120.609C219.91 121.873 220.331 123.557 220.822 125.501L220.876 125.728L220.655 125.669L217.22 124.74L216.286 124.481L216.47 124.335C216.545 126.198 216.616 127.926 216.675 129.411V129.573L216.524 129.53L213.224 128.606L212.312 128.336C212.202 128.309 212.097 128.267 211.999 128.212C212.112 128.214 212.225 128.232 212.333 128.266L213.262 128.477L216.572 129.298L216.427 129.422C216.351 127.937 216.265 126.209 216.173 124.351V124.151L216.367 124.205L217.301 124.465L220.725 125.42L220.558 125.588C220.104 123.628 219.715 121.932 219.418 120.658L219.391 120.55H219.51C220.038 120.576 220.563 120.642 221.081 120.749C221.267 120.776 221.45 120.821 221.627 120.884Z" fill="#455A64"/>
<path d="M222.307 134.579C222.155 134.467 222.023 134.33 221.918 134.174C221.692 133.888 221.443 133.412 221.087 132.862H221.233C220.358 134.568 219.336 136.194 218.176 137.722L218.068 137.867L217.955 137.722C217.415 137.048 216.875 136.328 216.335 135.562L215.093 133.942H215.298L213.3 135.702L212.404 136.474L211.988 136.836L211.788 137.009L211.739 137.052H211.68C211.68 137.101 211.502 136.987 211.54 136.939V136.906C211.54 136.906 211.577 136.998 211.594 136.993L211.502 137.02L211.469 136.917C211.151 135.837 210.929 134.984 210.794 134.368C210.702 134.055 210.666 133.728 210.686 133.402C210.744 133.718 210.818 134.032 210.908 134.341C211.075 134.941 211.329 135.799 211.68 136.852L211.556 136.777C211.595 136.766 211.636 136.766 211.675 136.777C211.702 136.786 211.725 136.803 211.742 136.826C211.758 136.85 211.767 136.878 211.766 136.906C211.772 136.931 211.772 136.957 211.766 136.982H211.739L211.664 136.949C211.658 136.929 211.647 136.91 211.631 136.895L211.599 136.863L211.642 136.82L211.842 136.642L212.252 136.274C212.533 136.021 212.825 135.734 213.133 135.486L215.104 133.731L215.217 133.628L215.314 133.753L216.556 135.373C217.129 136.118 217.679 136.841 218.176 137.533H217.955C219.115 136.022 220.16 134.426 221.081 132.759L221.157 132.629L221.233 132.754C221.578 133.331 221.773 133.834 221.994 134.109C222.215 134.384 222.323 134.563 222.307 134.579Z" fill="#455A64"/>
</svg>
