<svg width="10" height="10" viewBox="0 0 10 10" fill="none" xmlns="http://www.w3.org/2000/svg">
<path d="M4.0575 8.85903C4.00917 8.81194 3.8025 8.63415 3.6325 8.46854C2.56333 7.49761 0.813333 4.96473 0.279167 3.63902C0.193333 3.43769 0.0116667 2.92868 0 2.65672C0 2.39613 0.06 2.14771 0.181667 1.91066C0.351667 1.61516 0.619167 1.37811 0.935 1.24821C1.15417 1.1646 1.81 1.03471 1.82167 1.03471C2.53917 0.904814 3.705 0.833374 4.99333 0.833374C6.22083 0.833374 7.33917 0.904814 8.0675 1.01116C8.07917 1.02334 8.89417 1.15323 9.17333 1.2953C9.68333 1.55589 10 2.06491 10 2.60964V2.65672C9.9875 3.01149 9.67083 3.75755 9.65917 3.75755C9.12417 5.01181 7.46 7.48624 6.35417 8.48072C6.35417 8.48072 6.07 8.7608 5.8925 8.88257C5.6375 9.07254 5.32167 9.16671 5.00583 9.16671C4.65333 9.16671 4.325 9.06036 4.0575 8.85903Z" fill="#9E9E9E"/>
</svg>
