<svg width="31" height="31" viewBox="0 0 31 31" fill="none" xmlns="http://www.w3.org/2000/svg">
<path fill-rule="evenodd" clip-rule="evenodd" d="M22.3035 0.931698C24.4014 0.800584 26.4701 1.529 28.0289 2.95669C29.4566 4.51549 30.185 6.58418 30.0685 8.69658V22.3033C30.1996 24.4157 29.4566 26.4844 28.0435 28.0432C26.4846 29.4709 24.4014 30.1993 22.3035 30.0682H8.69664C6.58423 30.1993 4.51552 29.4709 2.9567 28.0432C1.529 26.4844 0.800583 24.4157 0.931698 22.3033V8.69658C0.800583 6.58418 1.529 4.51549 2.9567 2.95669C4.51552 1.529 6.58423 0.800584 8.69664 0.931698H22.3035ZM14.0138 22.5661L23.8183 12.7325C24.707 11.8293 24.707 10.3725 23.8183 9.48379L21.9244 7.58991C21.0212 6.68668 19.5643 6.68668 18.6611 7.58991L17.685 8.58055C17.5393 8.72624 17.5393 8.9739 17.685 9.11958C17.685 9.11958 20.0014 11.4214 20.0451 11.4796C20.2053 11.6545 20.3073 11.8876 20.3073 12.1498C20.3073 12.6742 19.8848 13.1113 19.3458 13.1113C19.0981 13.1113 18.865 13.0093 18.7048 12.8491L16.2719 10.4307C16.1553 10.3142 15.9514 10.3142 15.8348 10.4307L8.88571 17.3798C8.40495 17.8605 8.12816 18.5015 8.11359 19.1863L8.02618 22.6389C8.02618 22.8283 8.08445 23.0031 8.21557 23.1342C8.34668 23.2654 8.5215 23.3382 8.71089 23.3382H12.1345C12.8337 23.3382 13.5039 23.0614 14.0138 22.5661Z" fill="#4448AE"/>
</svg>
