<svg width="320" height="240" viewBox="0 0 336 286" fill="none" xmlns="http://www.w3.org/2000/svg">
<path d="M270.043 99.711C265.474 130.725 233.554 161.687 198.448 181.627C107.728 233.576 20.0256 145.425 42.1479 113.765C58.753 81.653 110.551 90.4732 132.586 77.8492C256.428 6.39497 274.337 73.7537 270.043 99.711Z" fill="#4448AE"/>
<path opacity="0.9" d="M270.043 99.711C265.474 130.725 233.554 161.687 198.448 181.627C107.728 233.576 20.0256 145.425 42.1479 113.765C58.753 81.653 110.551 90.4732 132.586 77.8492C256.428 6.39497 274.337 73.7537 270.043 99.711Z" fill="white"/>
<path d="M168 244.564C239.959 244.564 298.294 241.665 298.294 238.089C298.294 234.513 239.959 231.614 168 231.614C96.0405 231.614 37.7058 234.513 37.7058 238.089C37.7058 241.665 96.0405 244.564 168 244.564Z" fill="#F5F5F5"/>
<path d="M167.973 206.521H72.5491L67.3276 75.8929H162.752L167.973 206.521Z" fill="#4448AE"/>
<path d="M172.738 202.465H77.3136L72.0854 71.8375H167.509L172.738 202.465Z" fill="#4448AE"/>
<path opacity="0.3" d="M172.738 202.465H77.3136L72.0854 71.8375H167.509L172.738 202.465Z" fill="white"/>
<path d="M140.765 125.591C150.983 116.744 150.548 102.278 139.795 93.2797C129.041 84.2817 112.041 84.1592 101.824 93.006C91.6067 101.853 92.0413 116.319 102.795 125.317C113.548 134.315 130.548 134.437 140.765 125.591Z" fill="#4448AE"/>
<path d="M143.452 109.303C143.589 112.416 142.791 115.507 141.133 118.284C139.344 121.276 136.611 123.785 133.24 125.529C129.869 127.273 125.993 128.183 122.049 128.157C118.011 128.138 114.051 127.216 110.564 125.483C107.078 123.75 104.188 121.268 102.184 118.284C100.316 115.55 99.2729 112.464 99.1469 109.303C99.0229 106.852 99.4857 104.406 100.507 102.112C101.528 99.8176 103.087 97.7242 105.088 95.9588C107.089 94.1933 109.491 92.7926 112.148 91.8417C114.805 90.8909 117.661 90.4097 120.543 90.4275C126.481 90.4632 132.174 92.4444 136.44 95.9596C140.706 99.4747 143.217 104.254 143.452 109.303Z" fill="white"/>
<path opacity="0.6" d="M141.12 118.284C139.331 121.276 136.597 123.785 133.226 125.529C129.855 127.273 125.98 128.183 122.035 128.157C117.998 128.138 114.037 127.216 110.551 125.483C107.064 123.75 104.174 121.268 102.171 118.284C107.854 114.986 114.579 113.233 121.457 113.256C128.446 113.269 135.28 115.016 141.12 118.284Z" fill="#4448AE"/>
<path opacity="0.6" d="M128.199 108.833C131.956 105.58 131.796 100.261 127.842 96.9521C123.888 93.6435 117.636 93.5984 113.88 96.8515C110.123 100.105 110.282 105.424 114.236 108.733C118.191 112.041 124.442 112.086 128.199 108.833Z" fill="#4448AE"/>
<path d="M153.565 155.161H92.6956L92.2856 144.865H153.155L153.565 155.161Z" fill="white"/>
<path d="M154.305 173.562H93.4282L93.0183 163.266H153.895L154.305 173.562Z" fill="white"/>
<path d="M130.811 164.685L116.142 166.401C116.002 166.414 115.866 166.452 115.745 166.512C115.623 166.573 115.517 166.654 115.434 166.75C115.35 166.847 115.291 166.957 115.261 167.074C115.23 167.191 115.228 167.312 115.255 167.43L117.183 175.798C117.246 176.044 117.415 176.261 117.656 176.406C117.898 176.551 118.194 176.614 118.487 176.582L133.157 174.866C133.296 174.851 133.431 174.812 133.552 174.751C133.673 174.69 133.778 174.608 133.861 174.511C133.943 174.414 134.001 174.303 134.032 174.186C134.062 174.069 134.064 173.948 134.037 173.831L132.115 165.462C132.052 165.217 131.883 165.001 131.641 164.857C131.4 164.713 131.104 164.651 130.811 164.685ZM126.598 173.162L123.91 173.465L123.648 170.765C123.371 170.663 123.127 170.506 122.936 170.307C122.746 170.108 122.614 169.872 122.552 169.621C122.503 169.426 122.502 169.225 122.55 169.029C122.598 168.834 122.693 168.65 122.83 168.488C122.967 168.327 123.142 168.191 123.344 168.091C123.547 167.99 123.771 167.927 124.004 167.905C124.481 167.853 124.964 167.955 125.357 168.191C125.751 168.427 126.025 168.78 126.128 169.18C126.186 169.422 126.168 169.673 126.076 169.907C125.984 170.141 125.821 170.35 125.603 170.513L126.598 173.162Z" fill="#4448AE"/>
<path d="M129.36 164.233C129.101 164.261 128.838 164.205 128.624 164.077C128.411 163.949 128.261 163.758 128.204 163.54L128.016 162.723C127.747 161.606 127.012 160.611 125.947 159.921C124.882 159.231 123.559 158.893 122.223 158.97C121.549 159.003 120.892 159.159 120.295 159.427C119.698 159.695 119.176 160.07 118.764 160.525C118.352 160.98 118.06 161.506 117.908 162.065C117.756 162.625 117.747 163.206 117.882 163.769L118.097 164.713C118.122 164.818 118.121 164.926 118.095 165.03C118.068 165.134 118.016 165.232 117.942 165.319C117.868 165.405 117.773 165.477 117.665 165.53C117.556 165.583 117.436 165.617 117.311 165.628C117.051 165.659 116.787 165.605 116.573 165.476C116.358 165.348 116.209 165.155 116.155 164.936L115.974 164.141C115.789 163.398 115.783 162.631 115.956 161.886C116.128 161.141 116.476 160.433 116.978 159.805C117.481 159.177 118.127 158.642 118.878 158.233C119.629 157.823 120.47 157.546 121.35 157.42C123.257 157.147 125.215 157.51 126.817 158.434C128.419 159.357 129.541 160.77 129.951 162.379L130.166 163.317C130.191 163.423 130.19 163.533 130.162 163.638C130.134 163.743 130.08 163.842 130.004 163.929C129.928 164.015 129.831 164.087 129.72 164.139C129.609 164.192 129.486 164.223 129.36 164.233Z" fill="#4448AE"/>
<path d="M144.258 187.982H104.63L104.368 181.278H143.989L144.258 187.982Z" fill="#4448AE"/>
<path d="M125.14 150.013C125.152 150.257 125.105 150.501 125.003 150.73C124.9 150.959 124.745 151.167 124.545 151.343C124.345 151.519 124.105 151.659 123.84 151.754C123.575 151.848 123.29 151.896 123.003 151.895C122.41 151.891 121.842 151.693 121.416 151.343C120.989 150.993 120.737 150.517 120.711 150.013C120.699 149.768 120.746 149.524 120.848 149.295C120.951 149.067 121.106 148.858 121.306 148.682C121.506 148.506 121.746 148.367 122.011 148.272C122.276 148.177 122.561 148.129 122.848 148.131C123.441 148.133 124.01 148.33 124.437 148.681C124.864 149.031 125.116 149.508 125.14 150.013Z" fill="#263238"/>
<path d="M115.584 150.013C115.597 150.257 115.551 150.502 115.449 150.731C115.347 150.96 115.191 151.169 114.991 151.345C114.791 151.521 114.551 151.661 114.286 151.755C114.02 151.85 113.735 151.897 113.447 151.895C112.855 151.891 112.288 151.693 111.862 151.343C111.437 150.992 111.186 150.516 111.162 150.013C111.15 149.768 111.197 149.524 111.299 149.295C111.401 149.067 111.557 148.858 111.757 148.682C111.957 148.506 112.197 148.367 112.462 148.272C112.727 148.177 113.012 148.129 113.299 148.131C113.892 148.133 114.46 148.331 114.886 148.681C115.311 149.032 115.561 149.509 115.584 150.013Z" fill="#263238"/>
<path d="M106.089 150.013C106.1 150.257 106.054 150.501 105.952 150.73C105.849 150.959 105.694 151.167 105.494 151.343C105.294 151.519 105.054 151.659 104.789 151.754C104.524 151.848 104.239 151.896 103.952 151.895C103.359 151.892 102.791 151.695 102.365 151.344C101.94 150.994 101.689 150.517 101.667 150.013C101.655 149.768 101.702 149.524 101.804 149.295C101.906 149.067 102.062 148.858 102.262 148.682C102.462 148.506 102.701 148.367 102.966 148.272C103.231 148.177 103.516 148.129 103.804 148.131C104.396 148.133 104.964 148.331 105.39 148.681C105.816 149.032 106.066 149.509 106.089 150.013Z" fill="#263238"/>
<path d="M134.662 150.013C134.674 150.257 134.627 150.501 134.525 150.73C134.423 150.959 134.267 151.167 134.067 151.343C133.867 151.519 133.628 151.659 133.363 151.754C133.098 151.848 132.813 151.896 132.525 151.895C131.933 151.892 131.364 151.695 130.939 151.344C130.513 150.994 130.263 150.517 130.24 150.013C130.23 149.769 130.279 149.526 130.382 149.298C130.486 149.071 130.642 148.864 130.843 148.689C131.043 148.515 131.283 148.377 131.548 148.284C131.813 148.191 132.097 148.145 132.384 148.148C132.972 148.152 133.536 148.347 133.959 148.694C134.383 149.041 134.635 149.513 134.662 150.013Z" fill="#263238"/>
<path d="M144.184 150.013C144.197 150.257 144.151 150.502 144.049 150.731C143.947 150.96 143.792 151.169 143.592 151.345C143.392 151.521 143.152 151.661 142.886 151.755C142.62 151.85 142.335 151.897 142.047 151.895C141.455 151.891 140.888 151.693 140.463 151.343C140.037 150.992 139.787 150.516 139.763 150.013C139.751 149.768 139.797 149.524 139.9 149.295C140.002 149.067 140.158 148.858 140.357 148.682C140.557 148.506 140.797 148.367 141.062 148.272C141.327 148.177 141.612 148.129 141.9 148.131C142.492 148.133 143.06 148.331 143.486 148.681C143.912 149.032 144.162 149.509 144.184 150.013Z" fill="#263238"/>
<path d="M224.388 99.6882C225.281 100.912 226.027 102.079 226.793 103.297C227.559 104.516 228.252 105.74 228.93 106.993C230.315 109.529 231.461 112.155 232.357 114.846C232.478 115.184 232.566 115.544 232.667 115.893L232.814 116.425L232.888 116.688L232.976 117.123C233.127 118.109 233.057 119.111 232.767 120.074C232.303 121.57 231.598 123.005 230.671 124.336C229.012 126.755 227.008 128.989 224.703 130.988L221.874 129.169C223.294 126.947 224.558 124.655 225.658 122.305C226.148 121.27 226.493 120.189 226.686 119.085C226.748 118.748 226.729 118.403 226.632 118.072L226.363 117.374C226.256 117.088 226.155 116.802 226.027 116.511C225.005 114.151 223.823 111.844 222.486 109.601C221.142 107.313 219.697 105.025 218.252 102.84L224.388 99.6882Z" fill="#FF8B7B"/>
<path d="M222.593 128.374L219.502 129.764L223.05 133.299C223.05 133.299 225.268 132.023 225.369 130.079L222.593 128.374Z" fill="#FF8B7B"/>
<path d="M215.356 131.943L219.153 134.512L223.05 133.299L219.502 129.764L215.356 131.943Z" fill="#FF8B7B"/>
<path d="M202.373 80.9723C202.299 81.2927 202.037 81.5157 201.795 81.4757C201.553 81.4357 201.412 81.1382 201.486 80.8236C201.56 80.509 201.822 80.2516 202.07 80.3203C202.319 80.3889 202.447 80.652 202.373 80.9723Z" fill="#263238"/>
<path d="M202.07 81.5215C201.394 82.4174 200.575 83.2297 199.638 83.9353C199.859 84.1306 200.127 84.2828 200.424 84.3815C200.721 84.4803 201.04 84.5232 201.358 84.5073L202.07 81.5215Z" fill="#FF5652"/>
<path d="M200.861 92.7441V88.9918L206.694 89.5638C206.694 89.5638 206.6 92.7898 203.334 93.7394L200.861 92.7441Z" fill="#FF8B7B"/>
<path d="M202.541 86.2919L206.647 87.2986L206.721 89.5924L200.888 88.9918L202.541 86.2919Z" fill="#FF8B7B"/>
<path opacity="0.2" d="M206.647 87.2986L202.541 86.2919L201.741 87.5961C201.785 88.6237 202.162 89.6209 202.831 90.4772C203.5 91.3334 204.435 92.0151 205.531 92.4466C206.237 91.6079 206.649 90.6164 206.721 89.5866L206.647 87.2986Z" fill="black"/>
<path d="M204.16 79.4451C204.203 79.4441 204.245 79.4328 204.281 79.4124C204.317 79.392 204.345 79.3634 204.363 79.33C204.38 79.2965 204.386 79.2594 204.38 79.2231C204.374 79.1868 204.356 79.1527 204.328 79.1248C204.092 78.8979 203.796 78.7224 203.464 78.6129C203.132 78.5034 202.774 78.4632 202.42 78.4956C202.362 78.504 202.31 78.5316 202.276 78.5723C202.242 78.6131 202.229 78.6636 202.238 78.7129C202.248 78.7626 202.28 78.807 202.328 78.8369C202.376 78.8667 202.435 78.8797 202.494 78.8731C202.774 78.8497 203.057 78.8836 203.319 78.9722C203.581 79.0608 203.814 79.2013 203.999 79.3822C204.02 79.4013 204.045 79.4167 204.072 79.4275C204.1 79.4383 204.13 79.4443 204.16 79.4451Z" fill="#263238"/>
<path d="M212.749 86.761C212.077 89.7068 211.66 93.7852 214.093 95.7471C214.093 95.7471 213.152 98.733 206.701 98.733C199.638 98.733 203.307 96.1132 203.307 96.1132C206.244 95.3353 206.217 92.4924 205.545 90.2044L212.749 86.761Z" fill="#FF8B7B"/>
<path d="M215.403 97.7148C216.034 96.9597 216.008 94.563 215.336 94.1398C214.254 93.4591 209.61 93.2989 203.367 94.523C204.039 96.8453 202.594 98.058 202.594 98.058L215.403 97.7148Z" fill="#4448AE"/>
<path d="M236.409 233.513C236.218 233.571 236.014 233.595 235.811 233.585C235.608 233.576 235.41 233.532 235.227 233.456C235.157 233.401 235.11 233.329 235.091 233.25C235.071 233.172 235.081 233.09 235.119 233.016C235.14 232.954 235.177 232.897 235.227 232.848C235.277 232.8 235.339 232.761 235.408 232.735C236.047 232.472 237.512 232.981 237.579 233.004C237.599 233.011 237.616 233.023 237.628 233.038C237.64 233.054 237.646 233.072 237.646 233.09C237.646 233.108 237.64 233.126 237.63 233.142C237.619 233.158 237.604 233.172 237.585 233.182C237.207 233.323 236.813 233.434 236.409 233.513ZM235.637 232.867C235.592 232.876 235.549 232.889 235.509 232.907C235.467 232.92 235.429 232.941 235.399 232.969C235.369 232.997 235.346 233.031 235.334 233.067C235.274 233.239 235.334 233.296 235.375 233.313C235.63 233.496 236.571 233.313 237.236 233.101C236.73 232.923 236.184 232.843 235.637 232.867Z" fill="#4448AE"/>
<path d="M237.559 233.187H237.505C236.967 233.056 235.825 232.364 235.812 231.912C235.811 231.84 235.839 231.77 235.892 231.714C235.945 231.658 236.018 231.618 236.1 231.603C236.18 231.577 236.265 231.567 236.35 231.573C236.435 231.579 236.517 231.601 236.591 231.637C237.223 231.912 237.626 233.021 237.639 233.073C237.649 233.087 237.654 233.103 237.654 233.119C237.654 233.135 237.649 233.15 237.639 233.164C237.629 233.173 237.616 233.18 237.602 233.184C237.588 233.188 237.573 233.189 237.559 233.187ZM236.215 231.763H236.161C236.027 231.803 236.027 231.86 236.027 231.889C236.027 232.158 236.793 232.701 237.371 232.918C237.229 232.598 236.92 231.963 236.51 231.774C236.419 231.739 236.316 231.735 236.221 231.763H236.215Z" fill="#4448AE"/>
<path d="M201.506 234.188C200.901 234.188 200.316 234.114 200.121 233.885C200.071 233.824 200.043 233.751 200.043 233.676C200.043 233.601 200.071 233.529 200.121 233.468C200.16 233.412 200.211 233.363 200.272 233.325C200.334 233.286 200.404 233.259 200.478 233.244C201.264 233.061 202.917 233.862 202.984 233.897C203.005 233.905 203.021 233.919 203.031 233.937C203.041 233.955 203.043 233.975 203.038 233.994C203.035 234.013 203.026 234.032 203.01 234.046C202.994 234.061 202.973 234.07 202.951 234.074C202.474 234.148 201.99 234.187 201.506 234.188ZM200.76 233.405C200.689 233.395 200.616 233.395 200.545 233.405C200.499 233.413 200.456 233.428 200.418 233.451C200.38 233.474 200.348 233.503 200.323 233.536C200.242 233.656 200.276 233.713 200.323 233.748C200.545 234.011 201.734 234.017 202.615 233.908C202.04 233.641 201.41 233.47 200.76 233.405Z" fill="#4448AE"/>
<path d="M202.944 234.074H202.897C202.326 233.856 201.197 232.987 201.284 232.529C201.284 232.421 201.392 232.289 201.701 232.266C201.811 232.255 201.923 232.264 202.03 232.291C202.136 232.319 202.234 232.365 202.319 232.426C202.75 232.865 203.008 233.407 203.058 233.977C203.058 233.993 203.054 234.009 203.046 234.024C203.037 234.039 203.026 234.052 203.011 234.062C202.99 234.071 202.967 234.075 202.944 234.074ZM201.788 232.444H201.721C201.519 232.444 201.506 232.524 201.506 232.547C201.452 232.821 202.218 233.508 202.803 233.805C202.751 233.346 202.533 232.912 202.178 232.564C202.067 232.484 201.926 232.441 201.781 232.444H201.788Z" fill="#4448AE"/>
<path d="M208.132 233.982H203.408L202.937 224.664H207.661L208.132 233.982Z" fill="#FF8B7B"/>
<path d="M242.827 232.118L238.211 232.97L233.567 224.293L238.191 223.44L242.827 232.118Z" fill="#FF8B7B"/>
<path d="M237.76 232.575L242.955 231.62C243.046 231.604 243.14 231.614 243.223 231.649C243.306 231.685 243.373 231.743 243.412 231.814L245.213 235.143C245.261 235.224 245.286 235.313 245.285 235.404C245.285 235.494 245.259 235.583 245.211 235.663C245.162 235.744 245.092 235.813 245.006 235.866C244.92 235.919 244.82 235.953 244.715 235.967C242.901 236.27 241.994 236.345 239.716 236.762C238.311 237.025 235.139 237.683 233.197 238.038C231.255 238.392 230.59 236.808 231.349 236.516C234.743 235.195 236.154 234.034 237.075 232.953C237.241 232.76 237.485 232.625 237.76 232.575Z" fill="#263238"/>
<path d="M203.441 233.513H208.602C208.696 233.514 208.787 233.541 208.86 233.591C208.933 233.641 208.984 233.71 209.005 233.788L209.94 237.363C209.967 237.449 209.97 237.54 209.949 237.628C209.928 237.715 209.882 237.797 209.817 237.868C209.752 237.938 209.668 237.994 209.573 238.031C209.477 238.069 209.373 238.087 209.268 238.084C207.406 238.055 204.718 237.963 202.38 237.963C199.638 237.963 197.279 238.089 194.067 238.089C192.125 238.089 191.587 236.419 192.4 236.265C196.096 235.578 199.12 235.504 202.312 233.828C202.648 233.637 203.038 233.528 203.441 233.513Z" fill="#263238"/>
<path d="M222.546 96.668C226.975 97.5317 230.61 107.158 230.61 107.158L221.76 112.919C219.463 110.828 217.842 108.266 217.056 105.483C215.49 100.437 218.017 95.7757 222.546 96.668Z" fill="#4448AE"/>
<path opacity="0.4" d="M222.546 96.668C226.975 97.5317 230.61 107.158 230.61 107.158L221.76 112.919C219.463 110.828 217.842 108.266 217.056 105.483C215.49 100.437 218.017 95.7757 222.546 96.668Z" fill="black"/>
<path d="M199.248 108.148C198.146 109.16 197.044 110.064 195.888 111.008C195.317 111.466 194.739 111.923 194.148 112.364L193.254 113.033L193.032 113.199L192.649 113.462C192.255 113.73 191.818 113.95 191.352 114.114C190.833 114.301 190.276 114.399 189.712 114.4C189.231 114.402 188.753 114.33 188.301 114.188C187.8 114.026 187.343 113.779 186.957 113.462C186.465 113.052 186.104 112.542 185.909 111.98C185.807 111.703 185.741 111.418 185.714 111.128C185.679 110.789 185.679 110.449 185.714 110.11C185.748 109.835 185.788 109.595 185.842 109.372C186.025 108.592 186.286 107.827 186.621 107.084C186.923 106.378 187.271 105.687 187.663 105.013C188.093 104.287 188.503 103.755 188.913 103.149C190.578 100.827 192.478 98.6338 194.591 96.5937C196.683 94.5656 198.989 92.7046 201.479 91.0338L203.952 93.2017C202.218 95.1808 200.511 97.3029 198.932 99.3907C197.36 101.467 195.925 103.615 194.631 105.826C194.342 106.363 193.959 106.97 193.778 107.404C193.538 107.909 193.329 108.425 193.153 108.949C192.984 109.421 192.856 109.902 192.77 110.39C192.765 110.467 192.765 110.543 192.77 110.619C192.77 110.665 192.77 110.688 192.77 110.568C192.759 110.439 192.73 110.312 192.683 110.19C192.537 109.785 192.271 109.418 191.91 109.126C191.588 108.875 191.211 108.68 190.801 108.554C190.44 108.438 190.058 108.378 189.672 108.377C189.301 108.373 188.933 108.433 188.59 108.554C188.474 108.595 188.362 108.642 188.254 108.697L188.509 108.497L189.323 107.868L190.929 106.586C191.99 105.734 193.059 104.825 194.067 103.978L199.248 108.148Z" fill="#FF8B7B"/>
<path opacity="0.2" d="M218.749 103.738C221.155 105.763 221.941 109.458 222.109 112.661L221.72 112.919C219.422 110.828 217.802 108.266 217.016 105.483C216.928 105.185 216.848 104.911 216.787 104.585L218.749 103.738Z" fill="black"/>
<path d="M194.551 100.672C193.583 105.019 192.978 113.948 195.78 131.623H221.088C221.263 128.322 218.823 112.204 222.566 96.6394C219.77 96.1823 216.942 95.8785 214.099 95.7299C210.518 95.5551 206.928 95.5551 203.347 95.7299C202.164 95.8214 200.995 95.9702 199.987 96.1246C198.647 96.3248 197.409 96.8667 196.438 97.6788C195.467 98.4908 194.809 99.5346 194.551 100.672Z" fill="#4448AE"/>
<path opacity="0.4" d="M194.551 100.672C193.583 105.019 192.978 113.948 195.78 131.623H221.088C221.263 128.322 218.823 112.204 222.566 96.6394C219.77 96.1823 216.942 95.8785 214.099 95.7299C210.518 95.5551 206.928 95.5551 203.347 95.7299C202.164 95.8214 200.995 95.9702 199.987 96.1246C198.647 96.3248 197.409 96.8667 196.438 97.6788C195.467 98.4908 194.809 99.5346 194.551 100.672Z" fill="black"/>
<path opacity="0.2" d="M198.421 107.118L193.852 106.186C193.711 108.543 193.697 111.46 193.899 115.069C196.002 113.033 198.69 109.853 198.421 107.118Z" fill="black"/>
<path opacity="0.2" d="M202.937 224.664L203.179 229.469H207.91L207.668 224.664H202.937Z" fill="black"/>
<path opacity="0.2" d="M238.191 223.44L233.567 224.293L235.959 228.766L240.583 227.913L238.191 223.44Z" fill="black"/>
<path d="M214.993 82.4595C213.783 86.3148 213.3 88.6257 210.504 90.2273C206.304 92.664 201.062 89.8727 200.928 85.8C200.78 82.1221 202.789 76.4307 207.648 75.6527C208.716 75.4822 209.817 75.5458 210.848 75.8377C211.878 76.1296 212.805 76.6401 213.54 77.3212C214.274 78.0022 214.794 78.8312 215.048 79.7302C215.302 80.6292 215.283 81.5685 214.993 82.4595Z" fill="#FF8B7B"/>
<path d="M204.389 82.6026C204.16 82.0878 203.119 78.1009 204.1 77.0656C205.081 76.0303 216.27 76.7796 217.923 78.1638C220.671 80.4518 218.763 82.511 215.759 85.1594C213.501 87.15 213.414 89.3922 212.271 89.7354C210.255 90.3074 207.178 89.7697 206.559 87.9565C205.941 86.1432 204.389 82.6026 204.389 82.6026Z" fill="#263238"/>
<path d="M216.565 73.6279C212.614 72.1979 205.202 73.7823 201.197 72.9586C201.146 74.2263 201.635 75.4668 202.576 76.4509C203.516 77.4351 204.842 78.0964 206.311 78.3125C209.633 78.8515 213.009 79.1177 216.391 79.1076C220.786 78.936 219.925 74.8462 216.565 73.6279Z" fill="#263238"/>
<path d="M217.184 78.2839C218.627 78.4048 220.081 78.1685 221.37 77.6032C222.109 79.1248 218.044 79.5423 217.184 78.2839Z" fill="#263238"/>
<path d="M206.539 82.7627C206.449 83.7547 205.976 84.6935 205.195 85.4339C204.16 86.4006 203.085 85.7943 202.904 84.6217C202.742 83.5578 203.078 81.7617 204.342 81.2469C205.605 80.7321 206.627 81.5672 206.539 82.7627Z" fill="#FF8B7B"/>
<path d="M204.752 131.64C204.752 131.64 210.128 162.385 213.064 173.905C216.283 186.518 233.581 228.245 233.581 228.245L242.041 226.684C242.041 226.684 229.945 192.673 227.257 175.038C225.174 161.493 221.081 131.629 221.081 131.629L204.752 131.64Z" fill="#4448AE"/>
<path d="M231.551 225.848C231.517 225.848 233.13 228.457 233.13 228.457L242.646 226.701L241.846 224.264L231.551 225.848Z" fill="#263238"/>
<path opacity="0.3" d="M208.145 142.594C214.348 143.629 213.689 163.317 212.943 173.448C211.156 166.286 208.535 152.512 206.748 142.737C207.181 142.555 207.674 142.504 208.145 142.594Z" fill="black"/>
<path d="M195.78 131.64C195.78 131.64 195.108 161.722 195.646 173.968C196.184 186.729 201.418 228.514 201.418 228.514H209.429C209.429 228.514 209.718 187.473 210.101 174.94C210.49 161.281 212.426 131.617 212.426 131.617L195.78 131.64Z" fill="#4448AE"/>
<path d="M199.88 225.826C199.839 225.826 200.33 228.651 200.33 228.651H210.067L210.336 226.129L199.88 225.826Z" fill="#263238"/>
<path d="M204.456 102.011C206.721 107.21 193.408 113.336 193.408 113.336L187.643 107.044C187.643 107.044 191.52 100.512 196.224 97.5718C202.037 93.9453 202.729 98.0523 204.456 102.011Z" fill="#4448AE"/>
<path opacity="0.4" d="M204.456 102.011C206.721 107.21 193.408 113.336 193.408 113.336L187.643 107.044C187.643 107.044 191.52 100.512 196.224 97.5718C202.037 93.9453 202.729 98.0523 204.456 102.011Z" fill="black"/>
<path d="M256.617 62.5368C270.011 62.5368 280.869 56.6466 280.869 49.3808C280.869 42.1149 270.011 36.2248 256.617 36.2248C243.222 36.2248 232.364 42.1149 232.364 49.3808C232.364 56.6466 243.222 62.5368 256.617 62.5368Z" fill="#4448AE"/>
<path d="M247.867 56.0045C246.269 56.0001 244.725 55.5166 243.504 54.6389C242.284 53.7613 241.466 52.5456 241.194 51.2054C240.927 49.7539 241.312 48.2698 242.272 47.0488C243.232 45.8277 244.697 44.9591 246.375 44.616C247.753 44.3459 249.195 44.45 250.499 44.9137C251.803 45.3775 252.904 46.1776 253.646 47.2014L269.217 44.4673C269.815 44.3557 270.441 44.4404 270.969 44.7045C271.497 44.9685 271.889 45.3924 272.066 45.8916C272.147 46.154 272.165 46.4278 272.118 46.6963C272.071 46.9647 271.96 47.2222 271.792 47.453C271.624 47.6837 271.403 47.8829 271.141 48.0383C270.88 48.1937 270.584 48.3021 270.272 48.3569L269.868 48.4255C269.809 48.4347 269.752 48.4554 269.703 48.4862C269.654 48.5169 269.614 48.5568 269.586 48.6029C269.561 48.6496 269.548 48.7003 269.548 48.7516C269.548 48.8029 269.561 48.8536 269.586 48.9003L269.862 49.5066C269.954 49.7031 269.963 49.9209 269.887 50.1224C269.811 50.3239 269.655 50.4966 269.445 50.6106C269.28 50.6974 269.14 50.8152 269.037 50.955C268.933 51.0948 268.868 51.2528 268.847 51.4171C268.827 51.6057 268.738 51.7841 268.592 51.9269C268.446 52.0697 268.251 52.1695 268.034 52.2122L267.718 52.2694C267.499 52.3038 267.273 52.278 267.072 52.1957C266.872 52.1135 266.707 51.979 266.603 51.8118C266.463 51.6123 266.254 51.4548 266.004 51.3613C265.755 51.2677 265.477 51.2429 265.21 51.2901C264.943 51.3373 264.7 51.4543 264.515 51.6247C264.329 51.7951 264.211 52.0105 264.177 52.2408C264.158 52.4281 264.07 52.6056 263.925 52.7475C263.78 52.8894 263.586 52.9883 263.37 53.0301L263.054 53.0873C262.835 53.1209 262.61 53.0947 262.409 53.0125C262.209 52.9303 262.044 52.7963 261.939 52.6297C261.838 52.4879 261.703 52.3663 261.541 52.2735C261.38 52.1806 261.197 52.1187 261.005 52.0921C260.746 52.0656 260.508 51.9597 260.335 51.7944C260.162 51.629 260.065 51.4156 260.064 51.194V50.5419C260.061 50.4909 260.046 50.441 260.018 50.3956C259.991 50.3502 259.952 50.3104 259.905 50.2789C259.858 50.2474 259.803 50.225 259.745 50.2131C259.686 50.2012 259.626 50.2002 259.567 50.2102L254.601 51.0796C254.398 52.2507 253.777 53.3402 252.821 54.1999C251.865 55.0597 250.621 55.6478 249.258 55.8844C248.8 55.9641 248.334 56.0043 247.867 56.0045ZM246.523 45.1365C244.999 45.4396 243.666 46.2229 242.793 47.3289C241.921 48.4348 241.572 49.7811 241.819 51.0968C242.083 52.3208 242.854 53.4239 243.99 54.2065C245.127 54.9891 246.556 55.3995 248.017 55.3636C249.478 55.3277 250.877 54.8477 251.958 54.0105C253.04 53.1734 253.734 52.0343 253.915 50.7993V50.5934L259.392 49.6496C259.549 49.6173 259.713 49.6151 259.871 49.6433C260.029 49.6714 260.178 49.7293 260.307 49.8125C260.435 49.8958 260.541 50.0024 260.615 50.1246C260.689 50.2468 260.73 50.3815 260.736 50.5191V51.1711C260.737 51.2488 260.77 51.3236 260.829 51.383C260.888 51.4424 260.969 51.4827 261.059 51.4972C261.352 51.533 261.633 51.6253 261.878 51.767C262.124 51.9087 262.328 52.0961 262.476 52.3151C262.512 52.3769 262.569 52.4276 262.64 52.4604C262.711 52.4932 262.793 52.5064 262.873 52.4982L263.182 52.441C263.26 52.4238 263.33 52.3856 263.381 52.332C263.432 52.2784 263.461 52.2123 263.464 52.1435C263.507 51.7875 263.681 51.4521 263.962 51.1858C264.243 50.9196 264.616 50.7363 265.027 50.6624C265.439 50.5886 265.867 50.628 266.251 50.7749C266.634 50.9219 266.953 51.1688 267.16 51.48C267.195 51.5413 267.251 51.5919 267.321 51.6247C267.391 51.6575 267.471 51.6709 267.55 51.6631L267.873 51.6059C267.95 51.5876 268.018 51.549 268.068 51.4955C268.117 51.442 268.145 51.3765 268.148 51.3084C268.181 51.0573 268.282 50.8159 268.441 50.6028C268.601 50.3896 268.815 50.2104 269.069 50.0786C269.143 50.0331 269.197 49.9679 269.222 49.8933C269.248 49.8187 269.244 49.739 269.21 49.6668L268.934 49.0604C268.877 48.9355 268.853 48.8014 268.863 48.6676C268.874 48.5338 268.918 48.4035 268.994 48.2859C269.069 48.1682 269.174 48.066 269.301 47.9864C269.427 47.9068 269.573 47.8517 269.727 47.8249L270.137 47.7506C270.359 47.7103 270.569 47.6324 270.755 47.5214C270.94 47.4105 271.098 47.2688 271.218 47.1048C271.337 46.9409 271.417 46.7581 271.452 46.5673C271.487 46.3765 271.476 46.1817 271.421 45.9945C271.29 45.6346 271.003 45.3301 270.619 45.1423C270.236 44.9546 269.782 44.8973 269.351 44.9821L253.344 47.8135L253.223 47.6362C252.58 46.6616 251.582 45.8918 250.379 45.4429C249.176 44.994 247.835 44.8905 246.557 45.148L246.523 45.1365ZM247.867 53.8767C247.032 53.8846 246.213 53.6859 245.508 53.3047C244.675 52.839 244.057 52.1418 243.76 51.3318C243.464 50.5218 243.506 49.6492 243.88 48.8628C244.255 48.0764 244.938 47.4249 245.813 47.0192C246.689 46.6136 247.703 46.479 248.682 46.6384C249.661 46.7978 250.545 47.2414 251.183 47.8934C251.82 48.5454 252.173 49.3656 252.18 50.214C252.187 51.0625 251.848 51.8868 251.221 52.5463C250.594 53.2059 249.717 53.6599 248.741 53.8309C248.455 53.875 248.164 53.8942 247.874 53.8881L247.867 53.8767ZM247.867 47.1214C247.617 47.1226 247.367 47.1436 247.121 47.1843C246.653 47.2692 246.209 47.4317 245.815 47.6626C245.42 47.8935 245.083 48.1883 244.823 48.5301C244.562 48.8719 244.383 49.254 244.296 49.6547C244.209 50.0553 244.216 50.4666 244.316 50.8651C244.415 51.2636 244.606 51.6415 244.878 51.9771C245.149 52.3128 245.495 52.5997 245.897 52.8215C246.298 53.0432 246.747 53.1955 247.218 53.2696C247.689 53.3437 248.172 53.3381 248.64 53.2532C249.343 53.1287 249.987 52.8298 250.49 52.3943C250.994 51.9588 251.334 51.4062 251.47 50.8061C251.605 50.206 251.528 49.5852 251.249 49.0221C250.971 48.459 250.502 47.9788 249.903 47.6419C249.308 47.3051 248.609 47.1278 247.894 47.1328L247.867 47.1214Z" fill="white"/>
<path opacity="0.6" d="M236.88 70.253C241.282 70.253 244.85 68.317 244.85 65.9287C244.85 63.5405 241.282 61.6044 236.88 61.6044C232.478 61.6044 228.91 63.5405 228.91 65.9287C228.91 68.317 232.478 70.253 236.88 70.253Z" fill="#4448AE"/>
<path opacity="0.3" d="M224.199 72.0262C226.007 72.0262 227.472 71.2323 227.472 70.253C227.472 69.2737 226.007 68.4798 224.199 68.4798C222.392 68.4798 220.927 69.2737 220.927 70.253C220.927 71.2323 222.392 72.0262 224.199 72.0262Z" fill="#4448AE"/>
</svg>
