<svg width="80" height="81" viewBox="0 0 80 81" fill="none" xmlns="http://www.w3.org/2000/svg">
<rect y="0.333374" width="80" height="80" rx="40" fill="#EDEFFF"/>
<path fill-rule="evenodd" clip-rule="evenodd" d="M46.5859 28.3334C48.3739 28.3334 50.0939 29.04 51.3592 30.308C52.6259 31.5734 53.3339 33.28 53.3339 35.0667V45.6C53.3339 49.32 50.3072 52.3334 46.5859 52.3334H33.4139C29.6926 52.3334 26.6672 49.32 26.6672 45.6V35.0667C26.6672 31.3467 29.6792 28.3334 33.4139 28.3334H46.5859ZM48.7072 37.0534L48.8139 36.9467C49.1326 36.56 49.1326 36 48.7992 35.6134C48.6139 35.4147 48.3592 35.2934 48.0939 35.2667C47.8139 35.252 47.5472 35.3467 47.3459 35.5334L41.3339 40.3334C40.5606 40.9747 39.4526 40.9747 38.6672 40.3334L32.6672 35.5334C32.2526 35.2267 31.6792 35.2667 31.3339 35.6267C30.9739 35.9867 30.9339 36.56 31.2392 36.96L31.4139 37.1334L37.4806 41.8667C38.2272 42.4534 39.1326 42.7734 40.0806 42.7734C41.0259 42.7734 41.9472 42.4534 42.6926 41.8667L48.7072 37.0534Z" fill="url(#paint0_linear_106_6189)"/>
<defs>
<linearGradient id="paint0_linear_106_6189" x1="53.3339" y1="52.3334" x2="22.1698" y2="42.2937" gradientUnits="userSpaceOnUse">
<stop stop-color="#4D5DFA"/>
<stop offset="1" stop-color="#7784FF"/>
</linearGradient>
</defs>
</svg>
