<svg width="80" height="81" viewBox="0 0 80 81" fill="none" xmlns="http://www.w3.org/2000/svg">
<rect y="0.333374" width="80" height="80" rx="40" fill="#EDEFFF"/>
<path fill-rule="evenodd" clip-rule="evenodd" d="M26.6667 40.3534C26.6667 33.3296 32.2801 27.0001 40.0267 27.0001C47.6001 27.0001 53.3334 33.2094 53.3334 40.3134C53.3334 48.5524 46.6134 53.6667 40.0001 53.6667C37.8134 53.6667 35.3867 53.0792 33.4401 51.9308C32.7601 51.5168 32.1867 51.2097 31.4534 51.4501L28.7601 52.2513C28.0801 52.4649 27.4667 51.9308 27.6667 51.2097L28.5601 48.2186C28.7067 47.8046 28.6801 47.3639 28.4667 47.0168C27.3201 44.9069 26.6667 42.5968 26.6667 40.3534ZM38.2667 40.3534C38.2667 41.3015 39.0267 42.0627 39.9734 42.076C40.9201 42.076 41.6801 41.3015 41.6801 40.3668C41.6801 39.4187 40.9201 38.6575 39.9734 38.6575C39.0401 38.6442 38.2667 39.4187 38.2667 40.3534ZM44.4134 40.3668C44.4134 41.3015 45.1734 42.076 46.1201 42.076C47.0667 42.076 47.8267 41.3015 47.8267 40.3668C47.8267 39.4187 47.0667 38.6575 46.1201 38.6575C45.1734 38.6575 44.4134 39.4187 44.4134 40.3668ZM33.8267 42.076C32.8934 42.076 32.1201 41.3015 32.1201 40.3668C32.1201 39.4187 32.8801 38.6575 33.8267 38.6575C34.7734 38.6575 35.5334 39.4187 35.5334 40.3668C35.5334 41.3015 34.7734 42.0627 33.8267 42.076Z" fill="url(#paint0_linear_106_6183)"/>
<defs>
<linearGradient id="paint0_linear_106_6183" x1="53.3334" y1="53.6667" x2="21.6025" y2="44.4666" gradientUnits="userSpaceOnUse">
<stop stop-color="#4D5DFA"/>
<stop offset="1" stop-color="#7784FF"/>
</linearGradient>
</defs>
</svg>
