<svg width="16" height="17" viewBox="0 0 16 17" fill="none" xmlns="http://www.w3.org/2000/svg">
<path fill-rule="evenodd" clip-rule="evenodd" d="M12.6023 4.66336V5.94114C14.0376 6.38915 15.0834 7.68847 15.0834 9.24036V13.3544C15.0834 15.2757 13.4906 16.8334 11.5269 16.8334H4.47408C2.50955 16.8334 0.916748 15.2757 0.916748 13.3544V9.24036C0.916748 7.68847 1.96337 6.38915 3.39782 5.94114V4.66336C3.40629 2.17901 5.46397 0.166687 7.98738 0.166687C10.5447 0.166687 12.6023 2.17901 12.6023 4.66336ZM8.00431 1.61589C9.72328 1.61589 11.1205 2.98228 11.1205 4.66336V5.76144H4.87969V4.6468C4.88816 2.974 6.28535 1.61589 8.00431 1.61589ZM8.74102 12.2125C8.74102 12.6182 8.41077 12.9412 7.99585 12.9412C7.58939 12.9412 7.25915 12.6182 7.25915 12.2125V10.374C7.25915 9.97655 7.58939 9.65359 7.99585 9.65359C8.41077 9.65359 8.74102 9.97655 8.74102 10.374V12.2125Z" fill="#9E9E9E"/>
</svg>
