<svg width="16" height="17" viewBox="0 0 16 17" fill="none" xmlns="http://www.w3.org/2000/svg">
<path fill-rule="evenodd" clip-rule="evenodd" d="M12.6023 4.6633V5.94108C14.0376 6.38909 15.0834 7.68841 15.0834 9.2403V13.3544C15.0834 15.2756 13.4906 16.8333 11.5269 16.8333H4.47408C2.50955 16.8333 0.916748 15.2756 0.916748 13.3544V9.2403C0.916748 7.68841 1.96337 6.38909 3.39782 5.94108V4.6633C3.40629 2.17895 5.46397 0.166626 7.98738 0.166626C10.5447 0.166626 12.6023 2.17895 12.6023 4.6633ZM8.00431 1.61583C9.72328 1.61583 11.1205 2.98222 11.1205 4.6633V5.76138H4.87969V4.64673C4.88816 2.97394 6.28535 1.61583 8.00431 1.61583ZM8.74102 12.2124C8.74102 12.6182 8.41077 12.9411 7.99585 12.9411C7.58939 12.9411 7.25915 12.6182 7.25915 12.2124V10.374C7.25915 9.97649 7.58939 9.65353 7.99585 9.65353C8.41077 9.65353 8.74102 9.97649 8.74102 10.374V12.2124Z" fill="#212121"/>
</svg>
