<svg width="236" height="200" viewBox="0 0 236 236" fill="none" xmlns="http://www.w3.org/2000/svg">
<path d="M193.109 48.616C181.366 21.8394 153.178 11.7575 130.937 29.736C122.253 36.7499 116.834 47.9127 106.2 52.392C96.2218 56.5928 83.5817 55.3562 72.7917 57.6312C49.8148 62.4456 18.8799 80.712 21.2399 108.857C22.2736 121.186 30.5902 134.879 34.7013 146.414C39.4213 159.687 42.2533 176.292 54.7472 184.226C76.1665 197.848 102.004 186.714 121.299 175.73C131.683 169.826 137.399 166.196 148.581 168.221C158.932 170.109 168.254 176.717 178.369 168.877C185.963 162.991 186.591 151.064 192.968 144.059C200.151 136.167 207.434 135.596 211.168 123.735C215.694 109.344 209.025 100.352 204.518 87.4946C200.01 74.6373 198.641 61.2137 193.109 48.616Z" fill="#4448AE"/>
<g opacity="0.7">
<path opacity="0.7" d="M193.109 48.616C181.366 21.8394 153.178 11.7575 130.937 29.736C122.253 36.7499 116.834 47.9127 106.2 52.392C96.2218 56.5928 83.5817 55.3562 72.7917 57.6312C49.8148 62.4456 18.8799 80.712 21.2399 108.857C22.2736 121.186 30.5902 134.879 34.7013 146.414C39.4213 159.687 42.2533 176.292 54.7472 184.226C76.1665 197.848 102.004 186.714 121.299 175.73C131.683 169.826 137.399 166.196 148.581 168.221C158.932 170.109 168.254 176.717 178.369 168.877C185.963 162.991 186.591 151.064 192.968 144.059C200.151 136.167 207.434 135.596 211.168 123.735C215.694 109.344 209.025 100.352 204.518 87.4946C200.01 74.6373 198.641 61.2137 193.109 48.616Z" fill="white"/>
</g>
<path d="M103.75 206.585C144.046 206.585 176.712 204.55 176.712 202.04C176.712 199.529 144.046 197.494 103.75 197.494C63.4547 197.494 30.7886 199.529 30.7886 202.04C30.7886 204.55 63.4547 206.585 103.75 206.585Z" fill="#4448AE"/>
<path opacity="0.8" d="M103.75 206.585C144.046 206.585 176.712 204.55 176.712 202.04C176.712 199.529 144.046 197.494 103.75 197.494C63.4547 197.494 30.7886 199.529 30.7886 202.04C30.7886 204.55 63.4547 206.585 103.75 206.585Z" fill="white"/>
<path d="M158.578 29.1979H85.2149C80.1499 29.1979 76.0439 33.3039 76.0439 38.3689V193.251C76.0439 198.316 80.1499 202.422 85.2149 202.422H158.578C163.643 202.422 167.749 198.316 167.749 193.251V38.3689C167.749 33.3039 163.643 29.1979 158.578 29.1979Z" fill="#263238"/>
<path d="M163.671 48.2195H80.1174V183.4H163.671V48.2195Z" fill="white" stroke="#263238" stroke-width="1.33739" stroke-miterlimit="10"/>
<path d="M134.702 102.958C141.775 95.8855 141.775 84.4185 134.702 77.3458C127.63 70.2732 116.163 70.2732 109.09 77.3458C102.017 84.4185 102.017 95.8855 109.09 102.958C116.163 110.031 127.63 110.031 134.702 102.958Z" fill="#4448AE"/>
<path d="M145.673 174.9H98.1242C98.0172 174.9 97.9111 174.88 97.8121 174.839C97.713 174.799 97.623 174.739 97.5471 174.664C97.4712 174.588 97.411 174.498 97.3699 174.4C97.3288 174.301 97.3076 174.195 97.3076 174.088C97.307 173.98 97.3277 173.874 97.3685 173.775C97.4093 173.675 97.4694 173.585 97.5454 173.509C97.6213 173.433 97.7116 173.373 97.811 173.332C97.9103 173.291 98.0168 173.271 98.1242 173.271H145.673C145.78 173.271 145.886 173.292 145.985 173.333C146.084 173.375 146.174 173.435 146.249 173.511C146.325 173.587 146.384 173.677 146.425 173.776C146.465 173.875 146.486 173.981 146.485 174.088C146.485 174.303 146.4 174.51 146.248 174.662C146.095 174.814 145.889 174.9 145.673 174.9Z" fill="#4448AE"/>
<path d="M147.222 118.444H96.5712C95.5259 118.444 94.6785 119.291 94.6785 120.336V126.307C94.6785 127.353 95.5259 128.2 96.5712 128.2H147.222C148.267 128.2 149.114 127.353 149.114 126.307V120.336C149.114 119.291 148.267 118.444 147.222 118.444Z" fill="#4448AE"/>
<path d="M147.222 136.691H96.5712C95.5259 136.691 94.6785 137.539 94.6785 138.584V144.555C94.6785 145.6 95.5259 146.447 96.5712 146.447H147.222C148.267 146.447 149.114 145.6 149.114 144.555V138.584C149.114 137.539 148.267 136.691 147.222 136.691Z" fill="#4448AE"/>
<path d="M130.914 99.1861L125.585 96.1181V93.5834C126.357 92.6499 126.916 91.5595 127.223 90.388C127.406 90.4532 127.599 90.4867 127.794 90.4871C128.455 90.4871 128.875 88.4386 128.946 86.9754C129.715 85.347 128.667 84.3936 128.667 84.3936C128.667 84.3936 129.101 83.9594 129.389 82.2177C129.677 80.476 128.375 81.2029 127.36 79.6075C126.345 78.0122 125.618 76.2752 122.286 76.2752C121.368 76.245 120.462 76.4917 119.685 76.9833C118.909 77.4749 118.299 78.1886 117.934 79.0317C117.104 79.0347 116.278 79.1313 115.47 79.3196C114.451 79.6075 114.163 82.9446 115.031 84.252C115.42 84.9665 115.627 85.7656 115.635 86.579C115.404 86.2958 115.163 86.2202 115.031 86.8622C114.743 88.3112 115.904 90.3408 115.904 90.3408L116.504 90.1709C116.806 91.4228 117.388 92.5898 118.208 93.5834V96.1181L112.879 99.1861C112.256 99.5454 111.74 100.062 111.38 100.684C111.02 101.306 110.831 102.012 110.83 102.731V104.487C114 106.935 117.891 108.263 121.896 108.263C125.901 108.263 129.793 106.935 132.962 104.487V102.731C132.963 102.012 132.774 101.306 132.414 100.683C132.054 100.061 131.537 99.5446 130.914 99.1861Z" fill="#263238"/>
<path d="M101.574 144.021C101.452 144.02 101.335 143.971 101.249 143.885C101.202 143.843 101.165 143.792 101.14 143.735C101.115 143.678 101.102 143.616 101.102 143.554C101.104 143.469 101.128 143.386 101.173 143.313L102.023 141.954L100.366 142.006C100.304 142.01 100.241 142.001 100.183 141.979C100.124 141.957 100.071 141.923 100.026 141.879C99.9493 141.792 99.9067 141.68 99.9067 141.565C99.9067 141.449 99.9493 141.337 100.026 141.251C100.07 141.205 100.123 141.17 100.181 141.147C100.24 141.124 100.303 141.114 100.366 141.119L101.999 141.18L101.159 139.825C101.113 139.752 101.089 139.667 101.088 139.58C101.088 139.518 101.101 139.456 101.126 139.399C101.151 139.342 101.188 139.291 101.235 139.249C101.321 139.163 101.438 139.114 101.56 139.113C101.641 139.113 101.719 139.136 101.787 139.18C101.855 139.223 101.909 139.285 101.943 139.358L102.75 140.817L103.547 139.367C103.585 139.29 103.643 139.225 103.716 139.178C103.788 139.131 103.872 139.106 103.958 139.103C104.018 139.103 104.077 139.116 104.131 139.141C104.185 139.165 104.234 139.2 104.274 139.245C104.361 139.335 104.408 139.455 104.406 139.58C104.406 139.661 104.385 139.741 104.345 139.811L103.491 141.18L105.147 141.119C105.21 141.114 105.273 141.124 105.332 141.147C105.391 141.17 105.444 141.205 105.487 141.251C105.568 141.334 105.612 141.446 105.61 141.562C105.61 141.679 105.566 141.792 105.487 141.879C105.443 141.923 105.39 141.957 105.331 141.979C105.272 142.001 105.21 142.01 105.147 142.006L103.481 141.954L104.312 143.299C104.359 143.374 104.383 143.461 104.383 143.549C104.383 143.675 104.333 143.795 104.245 143.883C104.156 143.972 104.036 144.021 103.911 144.021C103.83 144.02 103.751 143.996 103.684 143.95C103.617 143.905 103.564 143.841 103.533 143.767L102.745 142.351L101.961 143.767C101.927 143.841 101.872 143.904 101.804 143.948C101.736 143.993 101.656 144.019 101.574 144.021Z" fill="#263238"/>
<path d="M109.23 144.021C109.108 144.02 108.991 143.971 108.905 143.885C108.858 143.843 108.821 143.792 108.796 143.735C108.771 143.678 108.758 143.616 108.758 143.554C108.76 143.469 108.784 143.386 108.829 143.313L109.679 141.954L108.027 142.006C107.964 142.009 107.901 141.999 107.841 141.977C107.782 141.955 107.728 141.922 107.682 141.879C107.619 141.814 107.578 141.732 107.562 141.643C107.547 141.555 107.559 141.463 107.596 141.381C107.633 141.299 107.694 141.23 107.771 141.184C107.848 141.137 107.937 141.114 108.027 141.119L109.655 141.18L108.815 139.825C108.769 139.752 108.745 139.667 108.744 139.58C108.744 139.518 108.756 139.456 108.782 139.399C108.807 139.342 108.844 139.291 108.89 139.249C108.977 139.163 109.094 139.114 109.216 139.113C109.297 139.113 109.375 139.136 109.443 139.18C109.511 139.223 109.564 139.285 109.598 139.358L110.406 140.817L111.203 139.367C111.241 139.29 111.299 139.225 111.372 139.178C111.444 139.131 111.528 139.106 111.614 139.103C111.674 139.103 111.733 139.115 111.787 139.14C111.842 139.164 111.89 139.2 111.93 139.245C111.974 139.289 112.008 139.341 112.032 139.399C112.055 139.456 112.067 139.518 112.067 139.58C112.065 139.661 112.043 139.741 112.001 139.811L111.147 141.18L112.808 141.128C112.87 141.124 112.933 141.134 112.99 141.156C113.048 141.179 113.101 141.215 113.143 141.26C113.224 141.344 113.268 141.456 113.266 141.572C113.266 141.689 113.222 141.801 113.143 141.888C113.1 141.932 113.047 141.966 112.989 141.988C112.932 142.01 112.87 142.019 112.808 142.015L111.137 141.963L111.968 143.309C112.014 143.384 112.039 143.47 112.039 143.559C112.039 143.684 111.989 143.804 111.9 143.893C111.812 143.981 111.692 144.031 111.567 144.031C111.486 144.03 111.407 144.005 111.34 143.96C111.273 143.914 111.22 143.851 111.189 143.776L110.401 142.36L109.617 143.776C109.581 143.848 109.526 143.909 109.458 143.953C109.39 143.996 109.311 144.02 109.23 144.021Z" fill="#263238"/>
<path d="M116.891 144.021C116.767 144.021 116.648 143.972 116.561 143.885C116.514 143.843 116.477 143.792 116.452 143.735C116.427 143.678 116.414 143.616 116.414 143.554C116.416 143.469 116.44 143.386 116.485 143.313L117.335 141.954L115.683 142.006C115.594 142.01 115.506 141.986 115.43 141.94C115.354 141.893 115.294 141.825 115.257 141.744C115.22 141.663 115.208 141.573 115.222 141.485C115.237 141.397 115.277 141.316 115.338 141.251C115.383 141.205 115.436 141.17 115.496 141.147C115.555 141.124 115.619 141.115 115.683 141.119L117.311 141.18L116.471 139.825C116.425 139.752 116.401 139.667 116.4 139.58C116.402 139.518 116.415 139.457 116.44 139.4C116.465 139.343 116.501 139.292 116.546 139.249C116.634 139.162 116.753 139.113 116.877 139.113C116.956 139.114 117.034 139.138 117.101 139.181C117.168 139.225 117.221 139.286 117.254 139.358L118.061 140.817L118.859 139.367C118.897 139.29 118.955 139.225 119.028 139.178C119.1 139.131 119.184 139.106 119.27 139.103C119.33 139.103 119.389 139.115 119.443 139.14C119.498 139.164 119.546 139.2 119.586 139.245C119.63 139.289 119.664 139.341 119.688 139.399C119.711 139.456 119.723 139.518 119.723 139.58C119.721 139.661 119.698 139.741 119.657 139.811L118.803 141.18L120.464 141.119C120.525 141.112 120.587 141.12 120.645 141.139C120.703 141.159 120.756 141.191 120.801 141.233C120.846 141.275 120.881 141.326 120.904 141.383C120.927 141.44 120.938 141.501 120.936 141.562C120.937 141.679 120.895 141.791 120.818 141.879C120.773 141.923 120.72 141.957 120.662 141.979C120.603 142.001 120.541 142.01 120.478 142.006L118.812 141.954L119.638 143.299C119.685 143.374 119.709 143.461 119.709 143.549C119.707 143.611 119.694 143.672 119.668 143.729C119.643 143.786 119.607 143.837 119.562 143.88C119.521 143.924 119.472 143.959 119.417 143.984C119.361 144.008 119.302 144.021 119.241 144.021C119.161 144.02 119.083 143.995 119.017 143.95C118.951 143.905 118.899 143.841 118.869 143.767L118.076 142.351L117.292 143.767C117.257 143.843 117.2 143.908 117.129 143.953C117.058 143.998 116.975 144.022 116.891 144.021Z" fill="#263238"/>
<path d="M124.547 144.021C124.423 144.021 124.304 143.972 124.216 143.885C124.127 143.797 124.076 143.679 124.075 143.554C124.073 143.469 124.096 143.386 124.141 143.313L124.99 141.954L123.338 142.006C123.275 142.009 123.212 141.999 123.153 141.977C123.094 141.955 123.04 141.922 122.994 141.879C122.917 141.792 122.874 141.68 122.874 141.565C122.874 141.449 122.917 141.337 122.994 141.251C123.039 141.207 123.093 141.172 123.153 141.15C123.212 141.127 123.275 141.116 123.338 141.119L124.971 141.18L124.136 139.825C124.09 139.752 124.066 139.667 124.065 139.58C124.067 139.518 124.08 139.457 124.105 139.4C124.131 139.343 124.167 139.292 124.212 139.249C124.299 139.162 124.418 139.113 124.542 139.113C124.622 139.113 124.701 139.136 124.769 139.18C124.836 139.223 124.89 139.285 124.924 139.358L125.727 140.817L126.524 139.367C126.562 139.29 126.62 139.225 126.693 139.178C126.765 139.131 126.849 139.106 126.935 139.103C126.995 139.103 127.054 139.115 127.108 139.14C127.163 139.164 127.212 139.2 127.251 139.245C127.295 139.289 127.33 139.341 127.353 139.399C127.377 139.456 127.388 139.518 127.388 139.58C127.386 139.661 127.364 139.741 127.322 139.811L126.468 141.18L128.129 141.119C128.19 141.112 128.252 141.12 128.31 141.139C128.368 141.159 128.421 141.191 128.466 141.233C128.511 141.275 128.546 141.326 128.569 141.383C128.593 141.44 128.603 141.501 128.601 141.562C128.602 141.679 128.56 141.791 128.483 141.879C128.439 141.923 128.385 141.957 128.327 141.979C128.268 142.001 128.206 142.01 128.143 142.006L126.477 141.954L127.303 143.299C127.35 143.374 127.374 143.461 127.374 143.549C127.374 143.612 127.362 143.673 127.336 143.73C127.311 143.787 127.274 143.838 127.228 143.88C127.187 143.924 127.137 143.959 127.082 143.984C127.027 144.008 126.967 144.021 126.907 144.021C126.826 144.02 126.748 143.995 126.682 143.95C126.616 143.905 126.564 143.841 126.534 143.767L125.741 142.351L124.957 143.767C124.921 143.845 124.863 143.91 124.79 143.956C124.717 144.001 124.633 144.024 124.547 144.021Z" fill="#263238"/>
<path d="M132.202 144.021C132.079 144.021 131.96 143.972 131.872 143.885C131.799 143.81 131.752 143.714 131.739 143.611C131.727 143.508 131.748 143.403 131.801 143.313L132.646 141.954L130.994 142.006C130.931 142.009 130.868 141.999 130.809 141.977C130.75 141.955 130.696 141.922 130.65 141.879C130.573 141.792 130.53 141.68 130.53 141.565C130.53 141.449 130.573 141.337 130.65 141.251C130.695 141.207 130.749 141.172 130.808 141.15C130.868 141.127 130.931 141.116 130.994 141.119L132.627 141.18L131.787 139.825C131.741 139.752 131.717 139.667 131.716 139.58C131.718 139.455 131.769 139.337 131.858 139.249C131.946 139.162 132.064 139.113 132.188 139.113C132.269 139.113 132.347 139.136 132.415 139.18C132.483 139.223 132.537 139.285 132.571 139.358L133.373 140.817L134.171 139.367C134.208 139.29 134.267 139.225 134.339 139.178C134.411 139.131 134.495 139.106 134.581 139.103C134.642 139.103 134.702 139.115 134.757 139.14C134.812 139.164 134.862 139.2 134.902 139.245C134.989 139.335 135.036 139.455 135.034 139.58C135.033 139.661 135.01 139.741 134.968 139.811L134.114 141.18L135.775 141.119C135.837 141.112 135.898 141.12 135.956 141.139C136.014 141.159 136.068 141.191 136.112 141.233C136.157 141.275 136.192 141.326 136.216 141.383C136.239 141.44 136.25 141.501 136.247 141.562C136.248 141.679 136.206 141.791 136.129 141.879C136.085 141.923 136.032 141.957 135.973 141.979C135.915 142.001 135.852 142.01 135.79 142.006L134.123 141.954L134.949 143.299C134.996 143.374 135.021 143.461 135.02 143.549C135.021 143.612 135.008 143.673 134.983 143.73C134.957 143.787 134.92 143.838 134.874 143.88C134.833 143.924 134.783 143.959 134.728 143.984C134.673 144.008 134.613 144.021 134.553 144.021C134.473 144.02 134.395 143.995 134.328 143.95C134.262 143.905 134.211 143.841 134.18 143.767L133.387 142.351L132.604 143.767C132.568 143.843 132.512 143.908 132.44 143.953C132.369 143.998 132.287 144.022 132.202 144.021Z" fill="#263238"/>
<path d="M139.858 144.021C139.736 144.02 139.619 143.971 139.533 143.885C139.486 143.843 139.449 143.792 139.424 143.735C139.399 143.678 139.386 143.616 139.386 143.554C139.388 143.469 139.412 143.386 139.457 143.313L140.302 141.954L138.65 142.006C138.589 142.011 138.528 142.002 138.471 141.982C138.413 141.962 138.361 141.93 138.316 141.888C138.272 141.846 138.237 141.796 138.213 141.74C138.189 141.684 138.177 141.623 138.178 141.562C138.178 141.505 138.189 141.447 138.211 141.394C138.233 141.34 138.265 141.292 138.305 141.251C138.349 141.205 138.402 141.17 138.461 141.147C138.519 141.124 138.582 141.114 138.645 141.119L140.278 141.18L139.438 139.825C139.393 139.752 139.368 139.667 139.367 139.58C139.369 139.455 139.42 139.337 139.509 139.249C139.597 139.162 139.716 139.113 139.839 139.113C139.92 139.113 139.999 139.136 140.066 139.18C140.134 139.223 140.188 139.285 140.222 139.358L141.024 140.817L141.827 139.367C141.864 139.291 141.922 139.226 141.993 139.179C142.065 139.133 142.147 139.106 142.232 139.103C142.293 139.103 142.353 139.115 142.408 139.14C142.463 139.164 142.513 139.2 142.553 139.245C142.64 139.335 142.688 139.455 142.686 139.58C142.685 139.661 142.664 139.741 142.624 139.811L141.77 141.18L143.427 141.119C143.49 141.114 143.553 141.124 143.611 141.147C143.67 141.17 143.723 141.205 143.766 141.251C143.847 141.334 143.891 141.446 143.889 141.562C143.889 141.679 143.845 141.792 143.766 141.879C143.722 141.923 143.669 141.957 143.61 141.979C143.552 142.001 143.489 142.01 143.427 142.006L141.76 141.954L142.586 143.299C142.633 143.374 142.658 143.461 142.657 143.549C142.656 143.674 142.605 143.793 142.516 143.88C142.43 143.968 142.313 144.018 142.19 144.021C142.11 144.02 142.032 143.995 141.965 143.95C141.899 143.905 141.848 143.841 141.817 143.767L141.024 142.351L140.241 143.767C140.207 143.84 140.153 143.903 140.086 143.948C140.018 143.993 139.939 144.018 139.858 144.021Z" fill="#263238"/>
<g style="mix-blend-mode:multiply">
<path d="M163.671 48.3989H80.1174V53.6334H163.671V48.3989Z" fill="#4448AE"/>
</g>
<path d="M130.98 38.7559H112.808C112.48 38.7559 112.165 38.6256 111.933 38.3937C111.702 38.1618 111.571 37.8473 111.571 37.5193C111.571 37.1913 111.702 36.8768 111.933 36.6449C112.165 36.4129 112.48 36.2827 112.808 36.2827H130.98C131.308 36.2827 131.622 36.4129 131.854 36.6449C132.086 36.8768 132.217 37.1913 132.217 37.5193C132.217 37.8473 132.086 38.1618 131.854 38.3937C131.622 38.6256 131.308 38.7559 130.98 38.7559Z" fill="#4448AE" stroke="#263238" stroke-width="1.33739" stroke-linecap="round" stroke-linejoin="round"/>
<path d="M126.85 191.037C126.851 190.057 126.561 189.098 126.017 188.282C125.472 187.466 124.699 186.83 123.793 186.455C122.887 186.079 121.89 185.98 120.928 186.172C119.966 186.363 119.083 186.835 118.39 187.528C117.696 188.222 117.224 189.105 117.033 190.067C116.842 191.029 116.94 192.026 117.316 192.931C117.692 193.837 118.328 194.611 119.144 195.155C119.959 195.699 120.918 195.989 121.899 195.989C123.211 195.987 124.47 195.465 125.398 194.537C126.327 193.609 126.849 192.35 126.85 191.037Z" fill="#4448AE"/>
<path d="M124.41 188.526H119.388V193.548H124.41V188.526Z" fill="#4448AE" stroke="#263238" stroke-width="1.33739" stroke-linecap="round" stroke-linejoin="round"/>
<path d="M181.72 134.048C181.72 134.048 175.14 117.33 180.998 115.343C187.096 113.271 186.827 124.311 186.591 129.691C186.095 141.189 184.826 143.328 183.877 140.519L181.72 134.048ZM179.742 147.089C181.55 149.449 182.06 147.004 178.798 135.964C177.269 130.772 173.946 120.27 168.848 124.212C163.954 127.988 175.603 141.676 175.603 141.676L179.742 147.089ZM176.249 156.671C177.972 158.2 178.005 156.27 173.913 148.298C171.992 144.564 167.928 137.007 164.6 140.746C161.405 144.352 172.294 153.117 172.294 153.117L176.249 156.671ZM172.473 168.065C174.196 169.599 174.229 167.664 170.137 159.696C168.216 155.963 164.152 148.402 160.824 152.144C157.648 155.76 168.504 164.525 168.504 164.525L172.473 168.065ZM183.377 144.871C180.62 145.947 182.81 147.118 194.322 147.085C199.722 147.085 210.748 146.839 208.397 140.84C206.146 135.077 189.749 142.417 189.749 142.417L183.377 144.871ZM180.238 152.536C177.321 153.041 179.237 154.627 190.527 156.883C195.819 157.945 206.67 159.904 205.561 153.579C204.499 147.481 186.969 151.418 186.969 151.418L180.238 152.536ZM176.726 161.896C174.243 162.255 175.829 163.638 185.321 165.809C189.772 166.828 198.905 168.74 198.112 163.345C197.357 158.153 182.442 161.089 182.442 161.089L176.726 161.896ZM174.059 170.567C171.629 171.185 173.351 172.393 183.027 173.545C187.559 174.083 196.843 175.018 195.488 169.736C194.181 164.667 179.662 169.155 179.662 169.155L174.059 170.567ZM188.285 135.464C186.869 138.636 189.81 138.154 199.807 129.432C204.489 125.34 213.882 116.778 206.443 112.515C199.302 108.418 191.622 128.186 191.622 128.186L188.285 135.464ZM174.427 181.862C172.931 182.735 174.399 183.075 181.262 181.706C184.481 181.069 191.028 179.653 188.814 176.858C186.671 174.168 177.892 179.832 177.892 179.832L174.427 181.862Z" fill="#4448AE"/>
<path opacity="0.3" d="M181.72 134.048C181.72 134.048 175.14 117.33 180.998 115.343C187.096 113.271 186.827 124.311 186.591 129.691C186.095 141.189 184.826 143.328 183.877 140.519L181.72 134.048ZM179.742 147.089C181.55 149.449 182.06 147.004 178.798 135.964C177.269 130.772 173.946 120.27 168.848 124.212C163.954 127.988 175.603 141.676 175.603 141.676L179.742 147.089ZM176.249 156.671C177.972 158.2 178.005 156.27 173.913 148.298C171.992 144.564 167.928 137.007 164.6 140.746C161.405 144.352 172.294 153.117 172.294 153.117L176.249 156.671ZM172.473 168.065C174.196 169.599 174.229 167.664 170.137 159.696C168.216 155.963 164.152 148.402 160.824 152.144C157.648 155.76 168.504 164.525 168.504 164.525L172.473 168.065ZM183.377 144.871C180.62 145.947 182.81 147.118 194.322 147.085C199.722 147.085 210.748 146.839 208.397 140.84C206.146 135.077 189.749 142.417 189.749 142.417L183.377 144.871ZM180.238 152.536C177.321 153.041 179.237 154.627 190.527 156.883C195.819 157.945 206.67 159.904 205.561 153.579C204.499 147.481 186.969 151.418 186.969 151.418L180.238 152.536ZM176.726 161.896C174.243 162.255 175.829 163.638 185.321 165.809C189.772 166.828 198.905 168.74 198.112 163.345C197.357 158.153 182.442 161.089 182.442 161.089L176.726 161.896ZM174.059 170.567C171.629 171.185 173.351 172.393 183.027 173.545C187.559 174.083 196.843 175.018 195.488 169.736C194.181 164.667 179.662 169.155 179.662 169.155L174.059 170.567ZM188.285 135.464C186.869 138.636 189.81 138.154 199.807 129.432C204.489 125.34 213.882 116.778 206.443 112.515C199.302 108.418 191.622 128.186 191.622 128.186L188.285 135.464ZM174.427 181.862C172.931 182.735 174.399 183.075 181.262 181.706C184.481 181.069 191.028 179.653 188.814 176.858C186.671 174.168 177.892 179.832 177.892 179.832L174.427 181.862Z" fill="white"/>
<path d="M184.623 141.831L183.476 122.748L184.623 141.831ZM180.993 148.128L173.743 131.716L180.993 148.128ZM199.703 143.356L182.329 145.848L199.703 143.356ZM177.236 156.973L167.829 144.904L177.236 156.973ZM178.888 153.273L191.849 153.924L178.888 153.273ZM175.82 162.528L185.732 163.51L175.82 162.528ZM173.427 168.41L168.504 161.004L173.427 168.41ZM172.861 171.024L184.514 171.133L172.861 171.024ZM170.501 192.888C170.579 192.882 170.651 192.845 170.702 192.786C170.754 192.726 170.78 192.649 170.774 192.571C170.033 181.442 174.338 163.213 181.243 148.25C185.656 138.688 202.955 119.893 203.139 119.704C203.195 119.648 203.226 119.573 203.226 119.494C203.226 119.415 203.195 119.34 203.139 119.284C203.112 119.256 203.08 119.235 203.044 119.22C203.009 119.205 202.97 119.197 202.932 119.197C202.893 119.197 202.855 119.205 202.819 119.22C202.784 119.235 202.751 119.256 202.724 119.284C202.549 119.473 185.18 138.338 180.729 147.986C173.696 163.312 169.448 181.21 170.203 192.609C170.209 192.684 170.243 192.754 170.298 192.806C170.353 192.857 170.425 192.887 170.501 192.888ZM184.618 142.124C184.696 142.119 184.769 142.084 184.821 142.025C184.873 141.967 184.9 141.891 184.897 141.812L183.768 122.72C183.767 122.681 183.757 122.643 183.74 122.608C183.724 122.573 183.7 122.541 183.671 122.515C183.642 122.489 183.608 122.47 183.572 122.457C183.535 122.444 183.496 122.439 183.457 122.442C183.379 122.446 183.306 122.482 183.254 122.54C183.202 122.598 183.175 122.675 183.178 122.753L184.325 141.836C184.329 141.911 184.362 141.982 184.416 142.034C184.47 142.086 184.543 142.115 184.618 142.114V142.124ZM181.097 148.397C181.168 148.365 181.223 148.306 181.251 148.234C181.28 148.162 181.278 148.081 181.248 148.01L173.993 131.598C173.962 131.527 173.904 131.471 173.831 131.443C173.759 131.414 173.678 131.416 173.606 131.447C173.535 131.479 173.479 131.537 173.451 131.61C173.422 131.682 173.424 131.763 173.455 131.834L180.705 148.246C180.728 148.298 180.765 148.343 180.813 148.375C180.861 148.407 180.917 148.424 180.974 148.425C181.023 148.428 181.072 148.418 181.116 148.397H181.097ZM182.352 146.131L199.717 143.648C199.759 143.648 199.801 143.638 199.838 143.62C199.876 143.602 199.91 143.576 199.937 143.544C199.965 143.512 199.985 143.475 199.997 143.435C200.008 143.395 200.011 143.352 200.006 143.311C200 143.269 199.986 143.229 199.963 143.194C199.941 143.158 199.912 143.128 199.877 143.104C199.842 143.081 199.803 143.065 199.761 143.058C199.72 143.051 199.678 143.053 199.637 143.063L182.272 145.546C182.195 145.551 182.122 145.587 182.071 145.645C182.019 145.703 181.993 145.78 181.998 145.857C182.003 145.935 182.039 146.008 182.098 146.059C182.156 146.11 182.232 146.136 182.31 146.131H182.352ZM177.401 157.209C177.463 157.161 177.503 157.09 177.513 157.012C177.522 156.934 177.501 156.856 177.453 156.794L168.041 144.701C167.993 144.638 167.922 144.598 167.844 144.587C167.765 144.577 167.686 144.599 167.624 144.647C167.561 144.695 167.52 144.766 167.51 144.844C167.5 144.923 167.521 145.002 167.569 145.064L177 157.176C177.027 157.211 177.062 157.24 177.103 157.259C177.143 157.279 177.187 157.289 177.231 157.289C177.302 157.286 177.369 157.257 177.42 157.209H177.401ZM192.109 153.938C192.111 153.86 192.083 153.784 192.03 153.727C191.977 153.669 191.904 153.635 191.826 153.631L178.888 152.975C178.815 152.98 178.747 153.012 178.696 153.064C178.645 153.116 178.615 153.185 178.611 153.258C178.608 153.33 178.631 153.402 178.677 153.459C178.723 153.515 178.788 153.553 178.86 153.565L191.821 154.221C191.899 154.224 191.975 154.196 192.032 154.143C192.09 154.09 192.124 154.016 192.128 153.938H192.109ZM186.006 163.539C186.01 163.5 186.007 163.46 185.996 163.423C185.985 163.385 185.967 163.35 185.942 163.32C185.918 163.29 185.887 163.264 185.853 163.246C185.818 163.228 185.78 163.216 185.741 163.213L175.829 162.236C175.791 162.232 175.752 162.236 175.715 162.247C175.678 162.258 175.644 162.277 175.614 162.301C175.584 162.326 175.559 162.356 175.541 162.39C175.523 162.424 175.512 162.462 175.508 162.5C175.502 162.578 175.526 162.655 175.575 162.715C175.625 162.775 175.696 162.813 175.773 162.821L185.685 163.803H185.713C185.789 163.808 185.864 163.783 185.923 163.734C185.981 163.685 186.017 163.615 186.025 163.539H186.006ZM173.569 168.655C173.634 168.612 173.68 168.544 173.696 168.467C173.712 168.39 173.696 168.31 173.654 168.244L168.754 160.839C168.709 160.775 168.642 160.731 168.565 160.716C168.488 160.701 168.409 160.716 168.344 160.758C168.278 160.802 168.232 160.869 168.216 160.946C168.2 161.023 168.216 161.103 168.259 161.169L173.158 168.575C173.186 168.615 173.223 168.648 173.267 168.671C173.31 168.694 173.359 168.707 173.408 168.707C173.472 168.71 173.535 168.692 173.587 168.655H173.569ZM184.812 171.133C184.81 171.055 184.779 170.981 184.725 170.926C184.67 170.87 184.597 170.838 184.519 170.836L172.865 170.727C172.788 170.727 172.713 170.758 172.658 170.813C172.603 170.868 172.573 170.942 172.573 171.02C172.571 171.059 172.578 171.098 172.592 171.134C172.606 171.17 172.628 171.203 172.655 171.231C172.683 171.259 172.715 171.281 172.751 171.296C172.788 171.311 172.826 171.318 172.865 171.317L184.519 171.426C184.559 171.428 184.599 171.421 184.636 171.408C184.673 171.394 184.708 171.373 184.737 171.345C184.766 171.318 184.789 171.285 184.805 171.249C184.821 171.212 184.83 171.173 184.83 171.133H184.812ZM169.174 188.559C169.198 188.507 171.185 183.032 177.16 181.725C177.237 181.708 177.305 181.661 177.347 181.595C177.389 181.528 177.404 181.448 177.387 181.371C177.368 181.295 177.321 181.23 177.255 181.189C177.189 181.147 177.109 181.133 177.033 181.149C170.732 182.527 168.641 188.309 168.617 188.366C168.593 188.44 168.599 188.521 168.633 188.592C168.667 188.662 168.728 188.717 168.801 188.743H168.896C168.959 188.749 169.021 188.734 169.075 188.701C169.129 188.667 169.17 188.618 169.193 188.559H169.174ZM170.501 192.888C170.579 192.882 170.651 192.845 170.702 192.786C170.754 192.726 170.78 192.649 170.774 192.571C170.033 181.442 174.338 163.213 181.243 148.25C185.656 138.688 202.955 119.893 203.139 119.704C203.195 119.648 203.226 119.573 203.226 119.494C203.226 119.415 203.195 119.34 203.139 119.284C203.112 119.256 203.08 119.235 203.044 119.22C203.009 119.205 202.97 119.197 202.932 119.197C202.893 119.197 202.855 119.205 202.819 119.22C202.784 119.235 202.751 119.256 202.724 119.284C202.549 119.473 185.18 138.338 180.729 147.986C173.696 163.312 169.448 181.21 170.203 192.609C170.209 192.684 170.243 192.754 170.298 192.806C170.353 192.857 170.425 192.887 170.501 192.888ZM184.618 142.124C184.696 142.119 184.769 142.084 184.821 142.025C184.873 141.967 184.9 141.891 184.897 141.812L183.768 122.72C183.767 122.681 183.757 122.643 183.74 122.608C183.724 122.573 183.7 122.541 183.671 122.515C183.642 122.489 183.608 122.47 183.572 122.457C183.535 122.444 183.496 122.439 183.457 122.442C183.379 122.446 183.306 122.482 183.254 122.54C183.202 122.598 183.175 122.675 183.178 122.753L184.325 141.836C184.329 141.911 184.362 141.982 184.416 142.034C184.47 142.086 184.543 142.115 184.618 142.114V142.124ZM181.097 148.397C181.168 148.365 181.223 148.306 181.251 148.234C181.28 148.162 181.278 148.081 181.248 148.01L173.993 131.598C173.962 131.527 173.904 131.471 173.831 131.443C173.759 131.414 173.678 131.416 173.606 131.447C173.535 131.479 173.479 131.537 173.451 131.61C173.422 131.682 173.424 131.763 173.455 131.834L180.705 148.246C180.728 148.298 180.765 148.343 180.813 148.375C180.861 148.407 180.917 148.424 180.974 148.425C181.023 148.428 181.072 148.418 181.116 148.397H181.097ZM182.352 146.131L199.717 143.648C199.759 143.648 199.801 143.638 199.838 143.62C199.876 143.602 199.91 143.576 199.937 143.544C199.965 143.512 199.985 143.475 199.997 143.435C200.008 143.395 200.011 143.352 200.006 143.311C200 143.269 199.986 143.229 199.963 143.194C199.941 143.158 199.912 143.128 199.877 143.104C199.842 143.081 199.803 143.065 199.761 143.058C199.72 143.051 199.678 143.053 199.637 143.063L182.272 145.546C182.195 145.551 182.122 145.587 182.071 145.645C182.019 145.703 181.993 145.78 181.998 145.857C182.003 145.935 182.039 146.008 182.098 146.059C182.156 146.11 182.232 146.136 182.31 146.131H182.352ZM177.401 157.209C177.463 157.161 177.503 157.09 177.513 157.012C177.522 156.934 177.501 156.856 177.453 156.794L168.041 144.701C168.018 144.67 167.988 144.644 167.954 144.625C167.92 144.605 167.883 144.592 167.844 144.587C167.805 144.582 167.766 144.585 167.728 144.595C167.69 144.605 167.655 144.623 167.624 144.647C167.593 144.671 167.567 144.7 167.547 144.734C167.528 144.768 167.515 144.806 167.51 144.844C167.505 144.883 167.508 144.923 167.518 144.96C167.528 144.998 167.546 145.034 167.569 145.064L177 157.176C177.027 157.211 177.062 157.24 177.103 157.259C177.143 157.279 177.187 157.289 177.231 157.289C177.302 157.286 177.369 157.257 177.42 157.209H177.401ZM192.109 153.938C192.111 153.86 192.083 153.784 192.03 153.727C191.977 153.669 191.904 153.635 191.826 153.631L178.888 152.975C178.815 152.98 178.747 153.012 178.696 153.064C178.645 153.116 178.615 153.185 178.611 153.258C178.608 153.33 178.631 153.402 178.677 153.459C178.723 153.515 178.788 153.553 178.86 153.565L191.821 154.221C191.899 154.224 191.975 154.196 192.032 154.143C192.09 154.09 192.124 154.016 192.128 153.938H192.109ZM186.006 163.539C186.01 163.5 186.007 163.46 185.996 163.423C185.985 163.385 185.967 163.35 185.942 163.32C185.918 163.29 185.887 163.264 185.853 163.246C185.818 163.228 185.78 163.216 185.741 163.213L175.829 162.236C175.791 162.232 175.752 162.236 175.715 162.247C175.678 162.258 175.644 162.277 175.614 162.301C175.584 162.326 175.559 162.356 175.541 162.39C175.523 162.424 175.512 162.462 175.508 162.5C175.502 162.578 175.526 162.655 175.575 162.715C175.625 162.775 175.696 162.813 175.773 162.821L185.685 163.803H185.713C185.789 163.808 185.864 163.783 185.923 163.734C185.981 163.685 186.017 163.615 186.025 163.539H186.006ZM173.569 168.655C173.634 168.612 173.68 168.544 173.696 168.467C173.712 168.39 173.696 168.31 173.654 168.244L168.754 160.839C168.709 160.775 168.642 160.731 168.565 160.716C168.488 160.701 168.409 160.716 168.344 160.758C168.278 160.802 168.232 160.869 168.216 160.946C168.2 161.023 168.216 161.103 168.259 161.169L173.158 168.575C173.186 168.615 173.223 168.648 173.267 168.671C173.31 168.694 173.359 168.707 173.408 168.707C173.472 168.71 173.535 168.692 173.587 168.655H173.569ZM184.812 171.133C184.81 171.055 184.779 170.981 184.725 170.926C184.67 170.87 184.597 170.838 184.519 170.836L172.865 170.727C172.788 170.727 172.713 170.758 172.658 170.813C172.603 170.868 172.573 170.942 172.573 171.02C172.571 171.059 172.578 171.098 172.592 171.134C172.606 171.17 172.628 171.203 172.655 171.231C172.683 171.259 172.715 171.281 172.751 171.296C172.788 171.311 172.826 171.318 172.865 171.317L184.519 171.426C184.559 171.428 184.599 171.421 184.636 171.408C184.673 171.394 184.708 171.373 184.737 171.345C184.766 171.318 184.789 171.285 184.805 171.249C184.821 171.212 184.83 171.173 184.83 171.133H184.812ZM169.174 188.559C169.198 188.507 171.185 183.032 177.16 181.725C177.237 181.708 177.305 181.661 177.347 181.595C177.389 181.528 177.404 181.448 177.387 181.371C177.368 181.295 177.321 181.23 177.255 181.189C177.189 181.147 177.109 181.133 177.033 181.149C170.732 182.527 168.641 188.309 168.617 188.366C168.593 188.44 168.599 188.521 168.633 188.592C168.667 188.662 168.728 188.717 168.801 188.743H168.896C168.959 188.749 169.021 188.734 169.075 188.701C169.129 188.667 169.17 188.618 169.193 188.559H169.174Z" fill="#4448AE"/>
<path opacity="0.2" d="M184.623 141.831L183.476 122.748L184.623 141.831ZM180.993 148.128L173.743 131.716L180.993 148.128ZM199.703 143.356L182.329 145.848L199.703 143.356ZM177.236 156.973L167.829 144.904L177.236 156.973ZM178.888 153.273L191.849 153.924L178.888 153.273ZM175.82 162.528L185.732 163.51L175.82 162.528ZM173.427 168.41L168.504 161.004L173.427 168.41ZM172.861 171.024L184.514 171.133L172.861 171.024ZM170.501 192.888C170.579 192.882 170.651 192.845 170.702 192.786C170.754 192.726 170.78 192.649 170.774 192.571C170.033 181.442 174.338 163.213 181.243 148.25C185.656 138.688 202.955 119.893 203.139 119.704C203.195 119.648 203.226 119.573 203.226 119.494C203.226 119.415 203.195 119.34 203.139 119.284C203.112 119.256 203.08 119.235 203.044 119.22C203.009 119.205 202.97 119.197 202.932 119.197C202.893 119.197 202.855 119.205 202.819 119.22C202.784 119.235 202.751 119.256 202.724 119.284C202.549 119.473 185.18 138.338 180.729 147.986C173.696 163.312 169.448 181.21 170.203 192.609C170.209 192.684 170.243 192.754 170.298 192.806C170.353 192.857 170.425 192.887 170.501 192.888ZM184.618 142.124C184.696 142.119 184.769 142.084 184.821 142.025C184.873 141.967 184.9 141.891 184.897 141.812L183.768 122.72C183.767 122.681 183.757 122.643 183.74 122.608C183.724 122.573 183.7 122.541 183.671 122.515C183.642 122.489 183.608 122.47 183.572 122.457C183.535 122.444 183.496 122.439 183.457 122.442C183.379 122.446 183.306 122.482 183.254 122.54C183.202 122.598 183.175 122.675 183.178 122.753L184.325 141.836C184.329 141.911 184.362 141.982 184.416 142.034C184.47 142.086 184.543 142.115 184.618 142.114V142.124ZM181.097 148.397C181.168 148.365 181.223 148.306 181.251 148.234C181.28 148.162 181.278 148.081 181.248 148.01L173.993 131.598C173.962 131.527 173.904 131.471 173.831 131.443C173.759 131.414 173.678 131.416 173.606 131.447C173.535 131.479 173.479 131.537 173.451 131.61C173.422 131.682 173.424 131.763 173.455 131.834L180.705 148.246C180.728 148.298 180.765 148.343 180.813 148.375C180.861 148.407 180.917 148.424 180.974 148.425C181.023 148.428 181.072 148.418 181.116 148.397H181.097ZM182.352 146.131L199.717 143.648C199.759 143.648 199.801 143.638 199.838 143.62C199.876 143.602 199.91 143.576 199.937 143.544C199.965 143.512 199.985 143.475 199.997 143.435C200.008 143.395 200.011 143.352 200.006 143.311C200 143.269 199.986 143.229 199.963 143.194C199.941 143.158 199.912 143.128 199.877 143.104C199.842 143.081 199.803 143.065 199.761 143.058C199.72 143.051 199.678 143.053 199.637 143.063L182.272 145.546C182.195 145.551 182.122 145.587 182.071 145.645C182.019 145.703 181.993 145.78 181.998 145.857C182.003 145.935 182.039 146.008 182.098 146.059C182.156 146.11 182.232 146.136 182.31 146.131H182.352ZM177.401 157.209C177.463 157.161 177.503 157.09 177.513 157.012C177.522 156.934 177.501 156.856 177.453 156.794L168.041 144.701C167.993 144.638 167.922 144.598 167.844 144.587C167.765 144.577 167.686 144.599 167.624 144.647C167.561 144.695 167.52 144.766 167.51 144.844C167.5 144.923 167.521 145.002 167.569 145.064L177 157.176C177.027 157.211 177.062 157.24 177.103 157.259C177.143 157.279 177.187 157.289 177.231 157.289C177.302 157.286 177.369 157.257 177.42 157.209H177.401ZM192.109 153.938C192.111 153.86 192.083 153.784 192.03 153.727C191.977 153.669 191.904 153.635 191.826 153.631L178.888 152.975C178.815 152.98 178.747 153.012 178.696 153.064C178.645 153.116 178.615 153.185 178.611 153.258C178.608 153.33 178.631 153.402 178.677 153.459C178.723 153.515 178.788 153.553 178.86 153.565L191.821 154.221C191.899 154.224 191.975 154.196 192.032 154.143C192.09 154.09 192.124 154.016 192.128 153.938H192.109ZM186.006 163.539C186.01 163.5 186.007 163.46 185.996 163.423C185.985 163.385 185.967 163.35 185.942 163.32C185.918 163.29 185.887 163.264 185.853 163.246C185.818 163.228 185.78 163.216 185.741 163.213L175.829 162.236C175.791 162.232 175.752 162.236 175.715 162.247C175.678 162.258 175.644 162.277 175.614 162.301C175.584 162.326 175.559 162.356 175.541 162.39C175.523 162.424 175.512 162.462 175.508 162.5C175.502 162.578 175.526 162.655 175.575 162.715C175.625 162.775 175.696 162.813 175.773 162.821L185.685 163.803H185.713C185.789 163.808 185.864 163.783 185.923 163.734C185.981 163.685 186.017 163.615 186.025 163.539H186.006ZM173.569 168.655C173.634 168.612 173.68 168.544 173.696 168.467C173.712 168.39 173.696 168.31 173.654 168.244L168.754 160.839C168.709 160.775 168.642 160.731 168.565 160.716C168.488 160.701 168.409 160.716 168.344 160.758C168.278 160.802 168.232 160.869 168.216 160.946C168.2 161.023 168.216 161.103 168.259 161.169L173.158 168.575C173.186 168.615 173.223 168.648 173.267 168.671C173.31 168.694 173.359 168.707 173.408 168.707C173.472 168.71 173.535 168.692 173.587 168.655H173.569ZM184.812 171.133C184.81 171.055 184.779 170.981 184.725 170.926C184.67 170.87 184.597 170.838 184.519 170.836L172.865 170.727C172.788 170.727 172.713 170.758 172.658 170.813C172.603 170.868 172.573 170.942 172.573 171.02C172.571 171.059 172.578 171.098 172.592 171.134C172.606 171.17 172.628 171.203 172.655 171.231C172.683 171.259 172.715 171.281 172.751 171.296C172.788 171.311 172.826 171.318 172.865 171.317L184.519 171.426C184.559 171.428 184.599 171.421 184.636 171.408C184.673 171.394 184.708 171.373 184.737 171.345C184.766 171.318 184.789 171.285 184.805 171.249C184.821 171.212 184.83 171.173 184.83 171.133H184.812ZM169.174 188.559C169.198 188.507 171.185 183.032 177.16 181.725C177.237 181.708 177.305 181.661 177.347 181.595C177.389 181.528 177.404 181.448 177.387 181.371C177.368 181.295 177.321 181.23 177.255 181.189C177.189 181.147 177.109 181.133 177.033 181.149C170.732 182.527 168.641 188.309 168.617 188.366C168.593 188.44 168.599 188.521 168.633 188.592C168.667 188.662 168.728 188.717 168.801 188.743H168.896C168.959 188.749 169.021 188.734 169.075 188.701C169.129 188.667 169.17 188.618 169.193 188.559H169.174ZM170.501 192.888C170.579 192.882 170.651 192.845 170.702 192.786C170.754 192.726 170.78 192.649 170.774 192.571C170.033 181.442 174.338 163.213 181.243 148.25C185.656 138.688 202.955 119.893 203.139 119.704C203.195 119.648 203.226 119.573 203.226 119.494C203.226 119.415 203.195 119.34 203.139 119.284C203.112 119.256 203.08 119.235 203.044 119.22C203.009 119.205 202.97 119.197 202.932 119.197C202.893 119.197 202.855 119.205 202.819 119.22C202.784 119.235 202.751 119.256 202.724 119.284C202.549 119.473 185.18 138.338 180.729 147.986C173.696 163.312 169.448 181.21 170.203 192.609C170.209 192.684 170.243 192.754 170.298 192.806C170.353 192.857 170.425 192.887 170.501 192.888ZM184.618 142.124C184.696 142.119 184.769 142.084 184.821 142.025C184.873 141.967 184.9 141.891 184.897 141.812L183.768 122.72C183.767 122.681 183.757 122.643 183.74 122.608C183.724 122.573 183.7 122.541 183.671 122.515C183.642 122.489 183.608 122.47 183.572 122.457C183.535 122.444 183.496 122.439 183.457 122.442C183.379 122.446 183.306 122.482 183.254 122.54C183.202 122.598 183.175 122.675 183.178 122.753L184.325 141.836C184.329 141.911 184.362 141.982 184.416 142.034C184.47 142.086 184.543 142.115 184.618 142.114V142.124ZM181.097 148.397C181.168 148.365 181.223 148.306 181.251 148.234C181.28 148.162 181.278 148.081 181.248 148.01L173.993 131.598C173.962 131.527 173.904 131.471 173.831 131.443C173.759 131.414 173.678 131.416 173.606 131.447C173.535 131.479 173.479 131.537 173.451 131.61C173.422 131.682 173.424 131.763 173.455 131.834L180.705 148.246C180.728 148.298 180.765 148.343 180.813 148.375C180.861 148.407 180.917 148.424 180.974 148.425C181.023 148.428 181.072 148.418 181.116 148.397H181.097ZM182.352 146.131L199.717 143.648C199.759 143.648 199.801 143.638 199.838 143.62C199.876 143.602 199.91 143.576 199.937 143.544C199.965 143.512 199.985 143.475 199.997 143.435C200.008 143.395 200.011 143.352 200.006 143.311C200 143.269 199.986 143.229 199.963 143.194C199.941 143.158 199.912 143.128 199.877 143.104C199.842 143.081 199.803 143.065 199.761 143.058C199.72 143.051 199.678 143.053 199.637 143.063L182.272 145.546C182.195 145.551 182.122 145.587 182.071 145.645C182.019 145.703 181.993 145.78 181.998 145.857C182.003 145.935 182.039 146.008 182.098 146.059C182.156 146.11 182.232 146.136 182.31 146.131H182.352ZM177.401 157.209C177.463 157.161 177.503 157.09 177.513 157.012C177.522 156.934 177.501 156.856 177.453 156.794L168.041 144.701C168.018 144.67 167.988 144.644 167.954 144.625C167.92 144.605 167.883 144.592 167.844 144.587C167.805 144.582 167.766 144.585 167.728 144.595C167.69 144.605 167.655 144.623 167.624 144.647C167.593 144.671 167.567 144.7 167.547 144.734C167.528 144.768 167.515 144.806 167.51 144.844C167.505 144.883 167.508 144.923 167.518 144.96C167.528 144.998 167.546 145.034 167.569 145.064L177 157.176C177.027 157.211 177.062 157.24 177.103 157.259C177.143 157.279 177.187 157.289 177.231 157.289C177.302 157.286 177.369 157.257 177.42 157.209H177.401ZM192.109 153.938C192.111 153.86 192.083 153.784 192.03 153.727C191.977 153.669 191.904 153.635 191.826 153.631L178.888 152.975C178.815 152.98 178.747 153.012 178.696 153.064C178.645 153.116 178.615 153.185 178.611 153.258C178.608 153.33 178.631 153.402 178.677 153.459C178.723 153.515 178.788 153.553 178.86 153.565L191.821 154.221C191.899 154.224 191.975 154.196 192.032 154.143C192.09 154.09 192.124 154.016 192.128 153.938H192.109ZM186.006 163.539C186.01 163.5 186.007 163.46 185.996 163.423C185.985 163.385 185.967 163.35 185.942 163.32C185.918 163.29 185.887 163.264 185.853 163.246C185.818 163.228 185.78 163.216 185.741 163.213L175.829 162.236C175.791 162.232 175.752 162.236 175.715 162.247C175.678 162.258 175.644 162.277 175.614 162.301C175.584 162.326 175.559 162.356 175.541 162.39C175.523 162.424 175.512 162.462 175.508 162.5C175.502 162.578 175.526 162.655 175.575 162.715C175.625 162.775 175.696 162.813 175.773 162.821L185.685 163.803H185.713C185.789 163.808 185.864 163.783 185.923 163.734C185.981 163.685 186.017 163.615 186.025 163.539H186.006ZM173.569 168.655C173.634 168.612 173.68 168.544 173.696 168.467C173.712 168.39 173.696 168.31 173.654 168.244L168.754 160.839C168.709 160.775 168.642 160.731 168.565 160.716C168.488 160.701 168.409 160.716 168.344 160.758C168.278 160.802 168.232 160.869 168.216 160.946C168.2 161.023 168.216 161.103 168.259 161.169L173.158 168.575C173.186 168.615 173.223 168.648 173.267 168.671C173.31 168.694 173.359 168.707 173.408 168.707C173.472 168.71 173.535 168.692 173.587 168.655H173.569ZM184.812 171.133C184.81 171.055 184.779 170.981 184.725 170.926C184.67 170.87 184.597 170.838 184.519 170.836L172.865 170.727C172.788 170.727 172.713 170.758 172.658 170.813C172.603 170.868 172.573 170.942 172.573 171.02C172.571 171.059 172.578 171.098 172.592 171.134C172.606 171.17 172.628 171.203 172.655 171.231C172.683 171.259 172.715 171.281 172.751 171.296C172.788 171.311 172.826 171.318 172.865 171.317L184.519 171.426C184.559 171.428 184.599 171.421 184.636 171.408C184.673 171.394 184.708 171.373 184.737 171.345C184.766 171.318 184.789 171.285 184.805 171.249C184.821 171.212 184.83 171.173 184.83 171.133H184.812ZM169.174 188.559C169.198 188.507 171.185 183.032 177.16 181.725C177.237 181.708 177.305 181.661 177.347 181.595C177.389 181.528 177.404 181.448 177.387 181.371C177.368 181.295 177.321 181.23 177.255 181.189C177.189 181.147 177.109 181.133 177.033 181.149C170.732 182.527 168.641 188.309 168.617 188.366C168.593 188.44 168.599 188.521 168.633 188.592C168.667 188.662 168.728 188.717 168.801 188.743H168.896C168.959 188.749 169.021 188.734 169.075 188.701C169.129 188.667 169.17 188.618 169.193 188.559H169.174Z" fill="black"/>
<path d="M178.208 184.566H164.846V187.332H166.012L168.424 202.422H174.631L177.042 187.332H178.208V184.566Z" fill="#4448AE"/>
<path opacity="0.3" d="M178.208 184.566H164.846V187.332H166.012L168.424 202.422H174.631L177.042 187.332H178.208V184.566Z" fill="white"/>
<path d="M57.9047 100.928L42.3618 95.8538L40.9788 92.2005L37.8211 92.1014L32.0911 91.0158L32.7802 92.2005L39.9923 97.435L41.7718 98.3223L58.0275 106.814L57.9047 100.928Z" fill="white" stroke="#263238" stroke-width="1.00396" stroke-miterlimit="10"/>
<path d="M40.9789 92.2005L39.4968 91.3131L36.5374 92.3987L37.0282 92.9887L40.9789 92.2005Z" fill="white" stroke="#263238" stroke-width="1.00396" stroke-linejoin="round"/>
<path d="M57.9047 100.928L42.3618 95.8538L40.9788 92.2005L37.8211 92.1014L32.0911 91.0158L32.7802 92.2005L39.9923 97.435L41.7718 98.3223L58.0275 106.814L57.9047 100.928Z" fill="white"/>
<path opacity="0.5" d="M57.9047 100.928L42.3618 95.8538L40.9788 92.2005L37.8211 92.1014L32.0911 91.0158L32.7802 92.2005L39.9923 97.435L41.7718 98.3223L58.0275 106.814L57.9047 100.928Z" fill="#4448AE" stroke="#263238" stroke-width="1.00396" stroke-miterlimit="10"/>
<path d="M57.9047 100.928L42.3618 95.8538L40.9788 92.2005L37.8211 92.1014L32.0911 91.0158L32.7802 92.2005L39.9923 97.435L41.7718 98.3223L58.0275 106.814L57.9047 100.928Z" stroke="#263238" stroke-width="1.00396" stroke-miterlimit="10"/>
<path d="M40.9789 92.2005L39.4968 91.3131L36.5374 92.3987L37.0282 92.9887L40.9789 92.2005Z" fill="white"/>
<path opacity="0.5" d="M40.9789 92.2005L39.4968 91.3131L36.5374 92.3987L37.0282 92.9887L40.9789 92.2005Z" fill="#4448AE" stroke="#263238" stroke-width="1.00396" stroke-linejoin="round"/>
<path d="M40.9789 92.2005L39.4968 91.3131L36.5374 92.3987L37.0282 92.9887L40.9789 92.2005Z" stroke="#263238" stroke-width="1.00396" stroke-linejoin="round"/>
<path d="M61.204 67.9963C61.204 67.9963 60.9633 70.1203 61.5628 71.4844C62.1622 72.8485 65.4898 77.4694 65.4898 77.4694L59.2783 82.449C59.2783 82.449 56.7012 77.257 56.2103 76.4168C55.7194 75.5766 55.1294 71.9611 56.7295 69.3699C58.3296 66.7786 60.6329 66.08 61.204 67.9963Z" fill="white"/>
<g style="mix-blend-mode:multiply" opacity="0.5">
<path d="M58.0135 74.8214L60.7086 80.4099L59.2737 82.4537L56.5645 77.6157L58.0135 74.8214Z" fill="#4448AE"/>
</g>
<path d="M61.204 67.9963C61.204 67.9963 60.9633 70.1203 61.5628 71.4844C62.1622 72.8485 65.4898 77.4694 65.4898 77.4694L59.2783 82.449C59.2783 82.449 56.7012 77.257 56.2103 76.4168C55.7194 75.5766 55.1294 71.9611 56.7295 69.3699C58.3296 66.7786 60.6329 66.08 61.204 67.9963Z" stroke="#263238" stroke-width="1.00396" stroke-miterlimit="10"/>
<path d="M63.1299 64.107C62.7476 61.747 60.043 56.9468 55.7526 57.1309C52.9678 57.2536 51.665 57.8153 50.4567 58.4997C49.4718 59.08 48.5537 59.7669 47.7191 60.5482C45.6234 63.0639 44.8871 63.753 45.293 65.6788C45.2597 66.4469 45.3801 67.2139 45.647 67.935C46.289 69.6483 46.7279 70.767 47.2849 71.5835C47.115 72.3812 46.6713 74.4863 46.6477 74.9678C46.6241 75.4492 48.0637 75.1141 48.7906 74.93C50.1405 77.9508 52.6138 80.0465 53.3831 80.2872C54.7236 80.7073 56.8429 78.503 57.9662 76.7944C59.0896 75.0858 58.24 73.1647 58.2447 72.4001C58.2494 71.6354 60.7699 69.9551 61.7045 69.4218C62.639 68.8884 63.5075 66.4623 63.1299 64.107Z" fill="white"/>
<g style="mix-blend-mode:multiply" opacity="0.5">
<path d="M45.3118 65.6788C45.2785 66.4469 45.3989 67.2139 45.6658 67.935C46.3077 69.6483 46.7467 70.767 47.3036 71.5835C47.1337 72.3812 46.69 74.4863 46.6664 74.9678C46.6428 75.4492 48.0824 75.1141 48.8093 74.93C50.1592 77.9508 52.6325 80.0465 53.4019 80.2872C54.7424 80.7073 56.8616 78.503 57.985 76.7944C58.2657 76.3678 58.4478 75.8841 58.5184 75.3784C58.457 75.1566 58.4145 75.0197 58.4145 75.0197C58.4145 75.0197 57.782 77.4505 56.5265 77.1342C55.271 76.818 53.35 74.3022 52.2785 73.4338C51.2071 72.5653 51.646 71.423 51.4336 70.1298C51.2212 68.8365 48.0494 67.699 47.837 66.9579C47.6246 66.2169 48.3656 63.1489 48.3656 63.1489C48.3656 63.1489 49.5692 61.5441 49.3096 62.2049C49.1262 62.7778 49.0596 63.3818 49.1139 63.981C49.1683 64.5802 49.3423 65.1623 49.6259 65.693C49.8248 66.1116 50.1405 66.464 50.5348 66.7076C50.9292 66.9513 51.3855 67.0759 51.849 67.0665L53.0007 61.36L50.5699 59.3493L47.7379 60.5293C45.6233 63.0639 44.9012 63.753 45.3118 65.6788Z" fill="#4448AE"/>
</g>
<path d="M63.1299 64.107C62.7476 61.747 60.043 56.9468 55.7526 57.1309C52.9678 57.2536 51.665 57.8153 50.4567 58.4997C49.4718 59.08 48.5537 59.7669 47.7191 60.5482C45.6234 63.0639 44.8871 63.753 45.293 65.6788C45.2597 66.4469 45.3801 67.2139 45.647 67.935C46.289 69.6483 46.7279 70.767 47.2849 71.5835C47.115 72.3812 46.6713 74.4863 46.6477 74.9678C46.6241 75.4492 48.0637 75.1141 48.7906 74.93C50.1405 77.9508 52.6138 80.0465 53.3831 80.2872C54.7236 80.7073 56.8429 78.503 57.9662 76.7944C59.0896 75.0858 58.24 73.1647 58.2447 72.4001C58.2494 71.6354 60.7699 69.9551 61.7045 69.4218C62.639 68.8884 63.5075 66.4623 63.1299 64.107Z" stroke="#263238" stroke-miterlimit="10"/>
<path d="M47.8701 70.1581L48.3421 71.508C48.3421 71.508 49.3569 71.8431 50.5936 70.4932" stroke="#263238" stroke-miterlimit="10" stroke-linecap="round"/>
<path d="M51.3582 76.464C51.3582 76.464 52.4815 76.3507 52.9346 74.7742" stroke="#263238" stroke-miterlimit="10" stroke-linecap="round"/>
<path d="M47.0818 69.03C47.0818 69.03 47.4169 68.0152 49.4418 68.0152" stroke="#263238" stroke-miterlimit="10" stroke-linecap="round"/>
<path d="M57.4612 55.2523C55.9899 55.0407 54.5061 54.9272 53.0197 54.9125C53.0197 54.9125 48.5734 52.3495 44.3018 55.0824C40.0302 57.8153 42.0834 62.6014 42.0834 63.7955C42.0834 64.9897 40.7146 64.9944 41.569 66.5331C42.4233 68.0718 45.3119 67.2222 45.3119 67.2222C45.3424 66.6419 45.4958 66.0746 45.7619 65.5579C46.0279 65.0413 46.4007 64.587 46.8554 64.225C48.3941 63.0309 49.6213 62.7713 50.131 63.1158C50.131 63.1158 49.7912 65.6788 50.301 66.703C50.301 66.703 52.0096 67.5574 52.5241 67.5574C53.0386 67.5574 52.189 68.2795 53.8929 68.9214C54.2033 69.0329 54.5354 69.0709 54.863 69.0324C55.1905 68.9939 55.5047 68.88 55.7809 68.6996C56.031 67.6612 56.5786 66.0989 57.5981 66.4623C59.0943 66.9957 60.4584 70.6773 58.4335 71.9328C60.869 72.3765 63.819 68.0671 63.9937 64.1401C64.1683 60.213 59.9911 55.696 57.4612 55.2523Z" fill="#263238"/>
<path d="M50.2065 61.4308C50.2065 61.4308 51.4621 60.7558 53.0008 62.2001C54.5395 63.6445 57.532 65.5749 61.4968 64.5129" stroke="white" stroke-width="0.5" stroke-linecap="round" stroke-linejoin="round"/>
<path d="M50.032 60.2744C50.032 60.2744 50.8957 58.9245 52.3401 58.9245C53.7844 58.9245 57.1592 60.9494 59.8543 60.9494" stroke="white" stroke-width="0.5" stroke-linecap="round" stroke-linejoin="round"/>
<path d="M49.0502 62.8751C49.0502 62.8751 47.4123 60.855 45.8736 62.4928C44.3349 64.1306 45.3119 65.6788 45.3119 65.6788" stroke="white" stroke-width="0.5" stroke-linecap="round" stroke-linejoin="round"/>
<path d="M42.5034 64.225C43.442 63.3786 44.0254 62.2083 44.1365 60.9494C44.3301 58.8301 47.2234 56.9987 49.0501 58.7357" stroke="white" stroke-width="0.5" stroke-linecap="round" stroke-linejoin="round"/>
<path d="M45.4866 56.5173C45.4866 56.5173 48.3799 53.7231 50.7871 57.2867" stroke="white" stroke-width="0.5" stroke-linecap="round" stroke-linejoin="round"/>
<path d="M69.0345 193.902C69.0345 193.902 70.814 196.668 70.6157 198.448L70.4222 200.227C70.4222 200.227 63.8945 202.016 62.5115 202.016C61.1285 202.016 53.8078 201.322 53.8078 201.322L53.4916 200.067C53.4694 199.974 53.4799 199.876 53.5211 199.79C53.5624 199.705 53.6319 199.635 53.7181 199.595L60.2459 196.55L62.3038 194.299L69.0345 193.902Z" fill="white" stroke="#263238" stroke-width="1.00396" stroke-miterlimit="10"/>
<path d="M63.5027 200.624C65.2727 200.76 68.6334 199.68 70.5827 198.99L70.4459 200.227C70.4459 200.227 63.8945 202.016 62.5115 202.016C61.1286 202.016 53.8079 201.322 53.8079 201.322L53.5813 200.425C54.7519 200.43 61.1616 200.444 63.5027 200.624Z" fill="#4448AE" stroke="#263238" stroke-width="1.00396" stroke-miterlimit="10"/>
<path d="M60.2555 196.55L50.7541 200.685C50.7541 200.685 49.9423 202.719 50.7541 203.125C51.566 203.531 69.266 203.125 69.266 203.125C69.266 203.125 70.4884 199.911 68.558 197.754C66.6275 195.597 60.2555 196.55 60.2555 196.55Z" fill="white" stroke="#263238" stroke-width="1.00396" stroke-miterlimit="10"/>
<path d="M69.266 203.125C69.266 203.125 51.566 203.531 50.7541 203.125C50.3624 202.927 50.3482 202.356 50.4379 201.813H69.5775C69.5149 202.259 69.4106 202.699 69.266 203.125Z" fill="#4448AE" stroke="#263238" stroke-width="1.00396" stroke-miterlimit="10"/>
<path d="M55.762 124.707C55.762 124.707 53.2793 135.709 52.34 142.591C51.4007 149.473 50.8485 163.26 51.0467 164.841C51.245 166.422 61.1287 192.916 61.1287 192.916L62.1151 195.276L69.0347 193.893C69.0347 193.893 65.8723 183.811 64.6875 178.274C63.5028 172.738 60.9115 163.642 60.9115 162.061C60.9115 160.48 67.0475 130.281 67.4865 128.299C67.9255 126.317 69.9173 123.272 69.9173 123.272L56.6683 123.003L55.762 124.707Z" fill="#4448AE" stroke="#263238" stroke-width="1.00396" stroke-miterlimit="10"/>
<path d="M55.7619 124.707C55.7619 124.707 54.3082 134.756 54.9076 141.742C55.5071 148.727 56.7956 163.6 56.7956 165.814C56.7956 168.027 60.3687 181.248 60.5716 185.402C60.8879 191.401 60.4442 194.37 60.4442 194.37L60.2318 196.546C60.2318 196.546 64.3995 197.14 65.3105 197.4C66.3627 197.671 67.4485 197.789 68.5343 197.749C68.5343 197.749 70.0494 191.08 70.0494 185.397C70.0494 179.714 68.7892 168.018 68.1614 163.279C67.5336 158.54 69.5113 140.26 70.6347 136.847C71.758 133.434 74.2124 126.208 72.5604 122.517C70.9084 118.826 55.7619 124.707 55.7619 124.707Z" fill="#4448AE" stroke="#263238" stroke-width="1.00396" stroke-miterlimit="10"/>
<path d="M74.3965 120.667L74.2455 125.16C74.2455 125.16 71.5551 125.694 67.9301 126.321C64.9376 126.841 57.4234 126.184 54.8935 125.939C54.6629 125.919 54.4498 125.808 54.3004 125.631C54.151 125.454 54.0775 125.226 54.0958 124.995L54.3412 120.936L74.3965 120.667Z" fill="#263238"/>
<path d="M63.8804 75.874C63.8804 75.874 59.6324 80.4666 58.0324 83.3222C56.4323 86.1778 55.7998 90.5532 55.2004 93.9988C54.6009 97.4444 56.2246 105.534 55.7668 109.249L54.3177 120.95C54.3177 120.95 54.0062 121.743 55.0493 122.611C56.0924 123.48 61.1853 123.796 65.7873 124.027C67.4677 124.112 72.485 123.032 73.3063 122.98C74.2975 122.918 74.3305 121.658 74.373 120.667C74.5713 116.008 75.4114 103.59 75.9636 98.1807C77.1012 87.1501 70.8755 76.5018 63.8804 75.874Z" fill="white" stroke="#263238" stroke-width="1.00396" stroke-miterlimit="10"/>
<g style="mix-blend-mode:multiply">
<path d="M75.4444 104.454C75.6332 102.004 75.822 99.7808 75.9872 98.1807C76.0344 97.7087 76.0628 97.2367 76.0864 96.7647L64.8008 98.6527L55.106 95.3487C55.107 97.3548 55.2205 99.3592 55.4458 101.353L64.9566 104.015L75.4444 104.454Z" fill="#4448AE"/>
</g>
<g style="mix-blend-mode:multiply">
<path d="M63.4602 76.3365C62.8182 77.0493 61.5439 78.4983 60.3308 80.037L67.4958 87.32L69.8558 86.376L63.4602 76.3365Z" fill="#4448AE"/>
</g>
<path d="M63.8803 75.874C63.8803 75.874 59.6323 80.4666 58.0322 83.3222C57.5578 84.19 57.1734 85.1042 56.8853 86.0503L65.4285 76.1808C64.9237 76.0279 64.4052 75.9251 63.8803 75.874Z" fill="#263238"/>
<g style="mix-blend-mode:multiply">
<path d="M55.5308 92.1391L64.8008 95.1883L76.058 93.895C75.8816 91.0907 75.2586 88.3325 74.2125 85.7247L65.136 89.3638L57.0223 85.6869C56.3588 87.7958 55.8602 89.953 55.5308 92.1391Z" fill="#4448AE"/>
</g>
<g style="mix-blend-mode:multiply">
<path d="M71.489 116.008C66.7873 116.798 61.9629 116.403 57.4517 114.861L55.1908 114.087L54.4875 119.751L57.0647 120.473C61.9639 121.843 67.0844 122.238 72.1356 121.634L74.2171 121.384C74.3255 121.155 74.3865 120.906 74.3965 120.653C74.4531 119.392 74.5523 117.561 74.6797 115.461L71.489 116.008Z" fill="#4448AE"/>
</g>
<g style="mix-blend-mode:multiply">
<path d="M72.7492 108.296C68.0472 109.088 63.2218 108.692 58.7119 107.144L55.8327 106.158C55.9041 107.186 55.8899 108.218 55.7902 109.244L55.4551 111.968L58.3248 112.77C63.2222 114.141 68.3411 114.538 73.3911 113.936L74.8071 113.766C74.9251 111.878 75.062 109.867 75.2083 107.88L72.7492 108.296Z" fill="#4448AE"/>
</g>
<path d="M28.4667 88.3358L37.593 95.6735L37.9864 95.1843L28.8601 87.8465L28.4667 88.3358Z" fill="#263238"/>
<path d="M68.2747 80.9669C68.2747 80.9669 71.6211 83.2467 71.6967 88.6322C71.7297 90.9922 71.4843 93.1964 70.9415 97.0621C70.3987 100.928 67.0286 113.516 64.4043 115.045C61.7799 116.575 57.7066 113.686 57.7066 113.686L38.0053 100.607L33.2428 96.76L30.8828 92.3043L31.6239 90.8883L37.4342 95.344L34.3048 92.4507L34.9184 91.6719L36.0512 92.4601L39.3552 93.6967L40.0774 98.4167L41.0969 99.1153L59.9439 106.002C59.9439 106.002 59.7079 95.8585 59.8825 93.9186C60.0571 91.9787 60.2978 87.1029 62.3746 83.5676" fill="white"/>
<g style="mix-blend-mode:multiply" opacity="0.5">
<path d="M59.8118 98.3365C59.8118 101.839 59.9298 106.002 59.9298 106.002L41.1017 99.1436L40.0822 98.445L39.36 93.725L36.056 92.4884L34.9279 91.686L34.3143 92.4648L37.4343 95.344L31.6239 90.8883L30.9207 92.2807L33.2807 96.7364L38.0431 100.607L39.242 101.404L65.2728 109.792L59.8118 98.3365Z" fill="#4448AE"/>
</g>
<path d="M68.2746 80.9669C68.2746 80.9669 71.6211 83.2467 71.6966 88.6322C71.7297 90.9922 71.4843 93.1964 70.9415 97.0621C70.3987 100.928 67.0286 113.516 64.4043 115.045C61.7799 116.575 57.7066 113.686 57.7066 113.686L38.0053 100.607L33.2428 96.76L30.8828 92.3043L31.6239 90.8883L37.4342 95.344L34.3048 92.4507L34.9184 91.6719L36.0512 92.4601L39.3552 93.6967L40.0774 98.4167L41.0969 99.1153L59.9439 106.002C59.9439 106.002 59.7079 95.8585 59.8825 93.9186C60.0571 91.9787 60.2978 87.1029 62.3746 83.5676" stroke="#263238" stroke-width="1.00396" stroke-miterlimit="10"/>
<path d="M59.9439 106.002L67.1371 111.194L69.0015 107.89C69.0015 107.89 70.2901 106.875 70.4789 106.11C70.6677 105.346 70.427 104.104 70.6205 103.34C70.814 102.575 71.7769 101.858 71.8666 100.007C71.9563 98.1571 71.8666 96.6137 71.8666 96.6137C71.8666 96.6137 73.4242 90.2087 73.2543 87.4239C73.0843 84.6391 70.3987 79.7161 68.2463 79.6075C66.094 79.499 63.2951 79.8247 61.1239 83.1098C58.9527 86.3949 59.3963 95.9859 59.0565 96.5854C58.7167 97.1848 59.1887 100.144 59.1887 100.144C59 100.285 58.8435 100.464 58.7296 100.67C58.6156 100.876 58.5469 101.104 58.5279 101.338C58.4901 102.108 59.3208 104.001 59.3208 104.001L59.9439 106.002Z" fill="white" stroke="#263238" stroke-width="1.00396" stroke-miterlimit="10"/>
<g style="mix-blend-mode:multiply">
<path d="M59.2453 94.1215C59.2601 94.9452 59.1985 95.7684 59.0612 96.5806C58.7592 97.1187 59.1037 99.5495 59.1792 100.045C63.2251 101.302 67.5033 101.625 71.692 100.989C71.7819 100.661 71.8358 100.324 71.8524 99.9838C71.9468 98.1382 71.8524 96.5901 71.8524 96.5901C71.8524 96.5901 71.9893 96.019 72.1781 95.1505C67.8402 95.4262 63.4851 95.0797 59.2453 94.1215Z" fill="#4448AE"/>
</g>
<g style="mix-blend-mode:multiply">
<path d="M60.8312 83.6337C60.1562 84.9883 59.7786 87.0227 59.5615 89.0853C63.8464 90.7206 68.4662 91.2829 73.0182 90.7231C73.1999 89.6315 73.2804 88.5255 73.259 87.4191C73.1772 86.5446 72.9706 85.6863 72.6454 84.8703C68.6707 84.9631 64.7005 84.5475 60.8312 83.6337Z" fill="#4448AE"/>
</g>
<path d="M59.3208 104.052L59.9297 106.002L67.123 111.194L68.9874 107.89C68.9874 107.89 70.2759 106.875 70.4647 106.11C70.4984 105.977 70.519 105.841 70.5261 105.704C66.7354 105.639 62.9691 105.084 59.3208 104.052Z" fill="#263238"/>
<path d="M64.5269 197.338C64.5269 197.338 64.6874 193.251 65.4709 187.275C66.2544 181.3 64.3712 172.813 64.0549 171.397C63.7387 169.981 64.2154 166.838 63.8992 165.733C63.5829 164.629 62.0536 159.918 62.9552 154.453C63.8567 148.987 64.5883 134.539 64.5883 134.539C64.5883 134.539 62.3179 132.693 61.6524 130.291C60.9869 127.888 61.4967 127.133 61.4967 127.133" stroke="#263238" stroke-width="1.00396" stroke-miterlimit="10"/>
<path d="M65.5795 127.355L64.7063 132.188" stroke="#263238" stroke-width="1.00396" stroke-miterlimit="10"/>
</svg>
