<svg width="340" height="160" viewBox="0 0 343 228" fill="none" xmlns="http://www.w3.org/2000/svg">
<path d="M40.2453 82.919C40.2453 82.919 66.7157 46.7355 120.933 38.6506C175.149 30.5657 235.769 79.0886 260.104 97.3925C284.438 115.696 331.493 132.048 336.094 161.232C340.695 190.416 325.521 204.703 325.521 204.703H18.8832C18.8832 204.703 8.23192 155.706 20.1638 123.781C32.0956 91.8567 40.2453 82.919 40.2453 82.919Z" fill="#4448AE"/>
<path opacity="0.7" d="M40.2453 82.919C40.2453 82.919 66.7157 46.7355 120.933 38.6506C175.149 30.5657 235.769 79.0886 260.104 97.3925C284.438 115.696 331.493 132.048 336.094 161.232C340.695 190.416 325.521 204.703 325.521 204.703H18.8832C18.8832 204.703 8.23192 155.706 20.1638 123.781C32.0956 91.8567 40.2453 82.919 40.2453 82.919Z" fill="white"/>
<path d="M325.333 19.8953H270.623V204.712H325.333V19.8953Z" fill="white" stroke="#263238" stroke-linecap="round" stroke-linejoin="round"/>
<path d="M325.333 133.439H270.623V204.712H325.333V133.439Z" fill="#4448AE" stroke="#263238" stroke-linecap="round" stroke-linejoin="round"/>
<path d="M301.223 180.375L271.935 151.173V160.476L301.223 189.678V180.375Z" fill="#263238"/>
<path d="M324.318 203.403L317.01 196.116V203.403H324.318Z" fill="#263238"/>
<path d="M301.223 203.403V198.169L271.935 168.966V178.269L297.143 203.403H301.223Z" fill="#263238"/>
<path d="M301.223 162.582L273.289 134.73H271.935V142.682L301.223 171.885V162.582Z" fill="#263238"/>
<path d="M317.01 178.323V187.626L325.333 195.925V186.622L317.01 178.323Z" fill="#263238"/>
<path d="M288.628 203.403L271.935 186.759V196.057L279.298 203.403H288.628Z" fill="#263238"/>
<path d="M301.223 144.789L291.134 134.73H281.804L301.223 154.092V144.789Z" fill="#263238"/>
<path d="M317.01 160.53V169.833L325.333 178.132V168.829L317.01 160.53Z" fill="#263238"/>
<path d="M325.333 19.8953H303.157V204.712H325.333V19.8953Z" fill="white" stroke="#263238" stroke-linecap="round" stroke-linejoin="round"/>
<path d="M325.333 133.439H303.157V204.712H325.333V133.439Z" fill="#4448AE" stroke="#263238" stroke-linecap="round" stroke-linejoin="round"/>
<path d="M304.653 165.633V174.935L324.561 155.086V145.783L304.653 165.633Z" fill="#263238"/>
<path d="M304.653 201.215V204.712H310.479L324.561 190.672V181.369L304.653 201.215Z" fill="#263238"/>
<path d="M318.03 134.502L304.653 147.84V157.142L324.561 137.292V134.502H318.03Z" fill="#263238"/>
<path d="M304.653 183.426V192.724L324.561 172.879V163.576L304.653 183.426Z" fill="#263238"/>
<path d="M324.56 199.158L318.995 204.712H324.56V199.158Z" fill="#263238"/>
<path d="M158.42 35.6409V19.8953" stroke="#263238" stroke-linecap="round" stroke-linejoin="round"/>
<path d="M147.234 35.6409V19.8953" stroke="black" stroke-miterlimit="10"/>
<path d="M136.048 35.6409V19.8953" stroke="black" stroke-miterlimit="10"/>
<path d="M198.236 35.6409V19.8953" stroke="#263238" stroke-linecap="round" stroke-linejoin="round"/>
<path d="M187.049 35.6409V19.8953" stroke="black" stroke-miterlimit="10"/>
<path d="M175.863 35.6409V19.8953" stroke="black" stroke-miterlimit="10"/>
<path d="M238.056 35.6409V19.8953" stroke="#263238" stroke-linecap="round" stroke-linejoin="round"/>
<path d="M226.865 35.6409V19.8953" stroke="black" stroke-miterlimit="10"/>
<path d="M215.678 35.6409V19.8953" stroke="black" stroke-miterlimit="10"/>
<path d="M277.871 35.6409V19.8953" stroke="#263238" stroke-linecap="round" stroke-linejoin="round"/>
<path d="M266.68 35.6409V19.8953" stroke="black" stroke-miterlimit="10"/>
<path d="M255.494 35.6409V19.8953" stroke="black" stroke-miterlimit="10"/>
<path d="M285.874 36.0059H252.773V41.9065H285.874V36.0059Z" fill="#263238" stroke="#263238" stroke-linecap="round" stroke-linejoin="round"/>
<path d="M285.874 38.0303H252.773V41.9063H285.874V38.0303Z" fill="white" stroke="#263238" stroke-linecap="round" stroke-linejoin="round"/>
<path d="M285.875 38.0303H263.003V41.9063H285.875V38.0303Z" fill="white" stroke="#263238" stroke-linecap="round" stroke-linejoin="round"/>
<path d="M244.582 36.0059H211.48V41.9065H244.582V36.0059Z" fill="#263238" stroke="#263238" stroke-linecap="round" stroke-linejoin="round"/>
<path d="M244.582 38.0303H211.48V41.9063H244.582V38.0303Z" fill="white" stroke="#263238" stroke-linecap="round" stroke-linejoin="round"/>
<path d="M244.582 38.0303H221.711V41.9063H244.582V38.0303Z" fill="white" stroke="#263238" stroke-linecap="round" stroke-linejoin="round"/>
<path d="M203.294 36.0059H170.192V41.9065H203.294V36.0059Z" fill="#263238" stroke="#263238" stroke-linecap="round" stroke-linejoin="round"/>
<path d="M203.294 38.0303H170.192V41.9063H203.294V38.0303Z" fill="white" stroke="#263238" stroke-linecap="round" stroke-linejoin="round"/>
<path d="M203.294 38.0303H180.423V41.9063H203.294V38.0303Z" fill="white" stroke="#263238" stroke-linecap="round" stroke-linejoin="round"/>
<path d="M162.001 36.0059H128.899V41.9065H162.001V36.0059Z" fill="#263238" stroke="#263238" stroke-linecap="round" stroke-linejoin="round"/>
<path d="M162.001 38.0303H128.899V41.9063H162.001V38.0303Z" fill="white" stroke="#263238" stroke-linecap="round" stroke-linejoin="round"/>
<path d="M162.001 38.0303H139.13V41.9063H162.001V38.0303Z" fill="white" stroke="#263238" stroke-linecap="round" stroke-linejoin="round"/>
<path d="M285.44 29.4075H128.149V32.034H285.44V29.4075Z" fill="#263238" stroke="#263238" stroke-linecap="round" stroke-linejoin="round"/>
<path d="M274.556 181.99H270.545L270.485 182.076C270.142 182.02 269.795 181.991 269.447 181.99C264.558 181.99 260.593 187.074 260.593 193.348C260.593 199.623 264.558 204.712 269.447 204.712C269.795 204.708 270.142 204.679 270.485 204.625L270.545 204.712H274.556C279.445 204.712 283.41 199.623 283.41 193.348C283.41 187.074 279.431 181.99 274.556 181.99Z" fill="#263238" stroke="#263238" stroke-linecap="round" stroke-linejoin="round"/>
<path d="M192.396 181.99H188.385L188.325 182.076C187.982 182.02 187.635 181.991 187.287 181.99C182.398 181.99 178.433 187.074 178.433 193.348C178.433 199.623 182.398 204.712 187.287 204.712C187.635 204.708 187.982 204.679 188.325 204.625L188.385 204.712H192.396C197.285 204.712 201.25 199.623 201.25 193.348C201.25 187.074 197.285 181.99 192.396 181.99Z" fill="#263238" stroke="#263238" stroke-linecap="round" stroke-linejoin="round"/>
<path d="M312.725 182.322H310.799L309.075 170.27C308.973 169.56 308.617 168.911 308.074 168.441C307.531 167.971 306.835 167.713 306.116 167.712H295.328L277.812 149.176C276.872 148.181 275.738 147.389 274.48 146.849C273.221 146.309 271.865 146.031 270.495 146.034H224.093C223.092 146.034 222.101 146.235 221.18 146.627C220.258 147.019 219.426 147.593 218.734 148.314L138.975 181.885V196.08H258.535L288.545 195.866L310.799 194.411V194.311H312.629C312.823 194.311 313.009 194.234 313.146 194.097C313.283 193.96 313.36 193.775 313.36 193.581V182.956C313.36 182.788 313.293 182.627 313.174 182.508C313.055 182.389 312.893 182.322 312.725 182.322Z" fill="#B2B2B2" stroke="#263238" stroke-linecap="round" stroke-linejoin="round"/>
<path d="M278.754 193.882V195.916L288.545 195.847L310.799 194.393V194.292H312.629C312.765 194.292 312.898 194.253 313.013 194.181C313.127 194.108 313.219 194.004 313.278 193.882H278.754Z" fill="#263238" stroke="#263238" stroke-linecap="round" stroke-linejoin="round"/>
<path d="M288.545 195.847C288.729 195.828 288.899 195.74 289.021 195.601C289.142 195.463 289.207 195.283 289.201 195.099C289.195 194.915 289.12 194.739 288.99 194.608C288.859 194.477 288.684 194.4 288.5 194.393H277.245L235.627 146.057H224.093C223.092 146.056 222.101 146.258 221.18 146.65C220.258 147.042 219.426 147.616 218.734 148.337L138.975 181.907V196.08H258.535L288.545 195.847Z" fill="#263238" stroke="#263238" stroke-linecap="round" stroke-linejoin="round"/>
<path d="M157.583 181.99H153.573L150.943 185.838C149.498 188.078 148.729 190.685 148.729 193.348C148.729 196.012 149.498 198.619 150.943 200.859L153.573 204.712H157.583C162.477 204.712 166.442 199.623 166.442 193.348C166.442 187.074 162.477 181.99 157.583 181.99Z" fill="#263238" stroke="#263238" stroke-linecap="round" stroke-linejoin="round"/>
<path d="M152.48 204.707C157.37 204.707 161.334 199.622 161.334 193.348C161.334 187.075 157.37 181.99 152.48 181.99C147.59 181.99 143.626 187.075 143.626 193.348C143.626 199.622 147.59 204.707 152.48 204.707Z" fill="#636363" stroke="#263238" stroke-linecap="round" stroke-linejoin="round"/>
<path d="M152.48 202.409C156.382 202.409 159.545 198.353 159.545 193.349C159.545 188.344 156.382 184.288 152.48 184.288C148.577 184.288 145.414 188.344 145.414 193.349C145.414 198.353 148.577 202.409 152.48 202.409Z" fill="white" stroke="#263238" stroke-linecap="round" stroke-linejoin="round"/>
<path d="M153.975 193.344C153.975 194.402 153.303 195.259 152.48 195.259C151.656 195.259 150.989 194.402 150.989 193.344C150.989 192.286 151.656 191.429 152.48 191.429C153.303 191.429 153.975 192.291 153.975 193.344Z" fill="white" stroke="#263238" stroke-linecap="round" stroke-linejoin="round"/>
<path d="M246.96 181.99H242.945L240.315 185.838C238.87 188.078 238.101 190.685 238.101 193.348C238.101 196.012 238.87 198.619 240.315 200.859L242.945 204.712H246.96C251.849 204.712 255.814 199.623 255.814 193.348C255.814 187.074 251.849 181.99 246.96 181.99Z" fill="#263238" stroke="#263238" stroke-linecap="round" stroke-linejoin="round"/>
<path d="M241.852 204.707C246.742 204.707 250.706 199.622 250.706 193.348C250.706 187.075 246.742 181.99 241.852 181.99C236.962 181.99 232.998 187.075 232.998 193.348C232.998 199.622 236.962 204.707 241.852 204.707Z" fill="#636363" stroke="#263238" stroke-linecap="round" stroke-linejoin="round"/>
<path d="M241.852 202.409C245.754 202.409 248.918 198.353 248.918 193.349C248.918 188.344 245.754 184.288 241.852 184.288C237.949 184.288 234.786 188.344 234.786 193.349C234.786 198.353 237.949 202.409 241.852 202.409Z" fill="white" stroke="#263238" stroke-linecap="round" stroke-linejoin="round"/>
<path d="M243.347 193.344C243.347 194.402 242.68 195.259 241.852 195.259C241.024 195.259 240.361 194.402 240.361 193.344C240.361 192.286 241.029 191.429 241.852 191.429C242.675 191.429 243.347 192.291 243.347 193.344Z" fill="white" stroke="#263238" stroke-linecap="round" stroke-linejoin="round"/>
<path d="M277.812 149.176C277.666 149.025 277.51 148.884 277.355 148.743H241.179V166.563H294.23L277.812 149.176Z" fill="#263238" stroke="#263238" stroke-linecap="round" stroke-linejoin="round"/>
<path d="M281.969 182.322H279.861L277.766 167.73H264.389L246.873 149.194C245.932 148.201 244.798 147.41 243.54 146.87C242.281 146.33 240.926 146.052 239.556 146.052H196.942C195.94 146.052 194.949 146.254 194.028 146.645C193.106 147.037 192.274 147.611 191.582 148.332L164.352 166.44L139.162 177.279L135.22 182.56C134.25 183.857 133.725 185.433 133.724 187.051V196.08H141.673V193.084C141.673 185.756 147.014 179.819 153.605 179.819C159.477 179.819 163.126 184.566 164.041 191.014L164.759 196.08H231.15V193.084C231.15 185.756 234.164 179.819 242.263 179.819C249.485 179.819 252.069 184.566 253.194 191.014L254.04 195.866L279.861 194.411V194.311H281.969V182.322Z" fill="#B2B2B2" stroke="#263238" stroke-linecap="round" stroke-linejoin="round"/>
<path d="M191.81 150.982L168.431 166.44H212.125V148.952H196.653C195.751 148.951 194.858 149.131 194.026 149.479C193.194 149.828 192.441 150.338 191.81 150.982Z" fill="#263238" stroke="#263238" stroke-linecap="round" stroke-linejoin="round"/>
<path d="M186.734 166.44L200.591 148.934H196.654C195.751 148.933 194.858 149.112 194.026 149.461C193.195 149.809 192.441 150.32 191.81 150.963L183.629 156.408L175.667 166.44H186.734Z" fill="white" stroke="#263238" stroke-linecap="round" stroke-linejoin="round"/>
<path d="M212.125 166.458V153.886L202.173 166.458H212.125Z" fill="white" stroke="#263238" stroke-linecap="round" stroke-linejoin="round"/>
<path d="M245.414 151.802L255.352 161.939C255.684 162.276 255.919 162.694 256.034 163.152C256.132 163.545 256.14 163.954 256.056 164.35C255.972 164.746 255.799 165.117 255.549 165.436C255.3 165.755 254.98 166.012 254.616 166.19C254.251 166.367 253.851 166.459 253.445 166.458H215.052V148.952H238.618C239.884 148.952 241.138 149.204 242.305 149.694C243.472 150.183 244.529 150.9 245.414 151.802Z" fill="#263238" stroke="#263238" stroke-linecap="round" stroke-linejoin="round"/>
<path d="M236.103 148.952H232.243L218.386 166.458H222.246L236.103 148.952Z" fill="white" stroke="#263238" stroke-linecap="round" stroke-linejoin="round"/>
<path d="M215.052 150.188V164.174L227.098 148.952H216.031L215.052 150.188Z" fill="white" stroke="#263238" stroke-linecap="round" stroke-linejoin="round"/>
<path d="M277.766 167.712H306.121C306.84 167.713 307.535 167.971 308.079 168.441C308.622 168.911 308.977 169.56 309.08 170.27L310.804 182.322H279.861L277.766 167.712Z" fill="#B2B2B2" stroke="#263238" stroke-linecap="round" stroke-linejoin="round"/>
<path d="M304.68 174.301H291.235V179.805H304.68V174.301Z" fill="white" stroke="#263238" stroke-linecap="round" stroke-linejoin="round"/>
<path d="M312.277 184.575H254.666" stroke="#263238" stroke-width="2" stroke-linecap="round" stroke-linejoin="round"/>
<path d="M228.923 184.575H165.084" stroke="#263238" stroke-width="2" stroke-linecap="round" stroke-linejoin="round"/>
<path d="M143.886 184.575H136.578" stroke="#263238" stroke-width="2" stroke-linecap="round" stroke-linejoin="round"/>
<path d="M288.911 174.388H276.229C275.641 174.388 275.065 174.551 274.565 174.859C274.065 175.168 273.661 175.61 273.399 176.134L271.272 180.371C271.179 180.564 271.136 180.778 271.148 180.992C271.16 181.207 271.226 181.415 271.34 181.597C271.454 181.779 271.612 181.929 271.8 182.034C271.988 182.138 272.2 182.194 272.415 182.195H288.93L288.911 174.388Z" fill="#B2B2B2" stroke="#263238" stroke-linecap="round" stroke-linejoin="round"/>
<path d="M288.911 174.388H278.676L279.797 182.213H288.911V174.388Z" fill="#263238" stroke="#263238" stroke-linecap="round" stroke-linejoin="round"/>
<path d="M309.615 174.388H306.514L306.478 182.213H310.735L309.615 174.388Z" fill="#263238" stroke="#263238" stroke-linecap="round" stroke-linejoin="round"/>
<path d="M171.281 162.81H164.956C164.451 162.81 164.041 163.219 164.041 163.722V168.779C164.041 169.283 164.451 169.691 164.956 169.691H171.281C171.786 169.691 172.195 169.283 172.195 168.779V163.722C172.195 163.219 171.786 162.81 171.281 162.81Z" fill="#263238" stroke="#263238" stroke-linecap="round" stroke-linejoin="round"/>
<path d="M211.078 169.691H203.239V172.819H211.078V169.691Z" fill="#263238" stroke="#263238" stroke-linecap="round" stroke-linejoin="round"/>
<path d="M212.962 168.442V192.204" stroke="#263238" stroke-linecap="round" stroke-linejoin="round"/>
<path d="M159.962 179.071C159.962 179.071 165.706 182.304 166.442 193.348H227.386" stroke="#263238" stroke-linecap="round" stroke-linejoin="round"/>
<path d="M256.235 183.768C256.235 183.768 253.235 175.948 243.183 175.948C236.176 175.948 232.824 179.618 231.15 182.514" stroke="#263238" stroke-linecap="round" stroke-linejoin="round"/>
<path d="M183.779 181.99H179.769L179.709 182.076C179.367 182.02 179.022 181.991 178.676 181.99C173.782 181.99 169.822 187.074 169.822 193.348C169.822 199.623 173.782 204.712 178.676 204.712C179.022 204.709 179.367 204.68 179.709 204.625L179.769 204.712H183.779C188.668 204.712 192.633 199.623 192.633 193.348C192.633 187.074 188.668 181.99 183.779 181.99Z" fill="#263238" stroke="#263238" stroke-linecap="round" stroke-linejoin="round"/>
<path d="M101.619 181.99H97.6086L97.5492 182.076C97.2075 182.02 96.8619 181.991 96.5156 181.99C91.6221 181.99 87.6616 187.074 87.6616 193.348C87.6616 199.623 91.6221 204.712 96.5156 204.712C96.8618 204.709 97.2073 204.68 97.5492 204.625L97.6086 204.712H101.619C106.508 204.712 110.473 199.623 110.473 193.348C110.473 187.074 106.508 181.99 101.619 181.99Z" fill="#263238" stroke="#263238" stroke-linecap="round" stroke-linejoin="round"/>
<path d="M221.948 182.322H220.023L218.299 170.27C218.198 169.561 217.843 168.912 217.3 168.442C216.758 167.972 216.063 167.713 215.344 167.712H204.556L187.049 149.176C186.108 148.183 184.974 147.392 183.716 146.852C182.457 146.312 181.102 146.033 179.732 146.034H133.299C132.297 146.033 131.306 146.235 130.385 146.626C129.463 147.018 128.631 147.592 127.939 148.314L48.1799 181.885V196.08H167.759L197.774 195.866L220.023 194.411V194.311H221.852C222.046 194.309 222.23 194.232 222.367 194.095C222.503 193.959 222.579 193.774 222.579 193.581V182.956C222.579 182.789 222.513 182.628 222.395 182.51C222.277 182.391 222.116 182.324 221.948 182.322Z" fill="white" stroke="#263238" stroke-linecap="round" stroke-linejoin="round"/>
<path d="M187.964 193.882V195.916L197.76 195.847L220.009 194.393V194.292H221.839C221.974 194.291 222.106 194.252 222.22 194.179C222.334 194.107 222.425 194.004 222.483 193.882H187.964Z" fill="#263238" stroke="#263238" stroke-linecap="round" stroke-linejoin="round"/>
<path d="M197.774 195.847C197.958 195.828 198.127 195.74 198.249 195.6C198.37 195.461 198.434 195.281 198.428 195.097C198.421 194.912 198.345 194.737 198.214 194.606C198.084 194.476 197.908 194.399 197.723 194.393H186.473L144.856 146.057H133.299C132.297 146.056 131.306 146.257 130.385 146.649C129.463 147.041 128.631 147.615 127.939 148.337L48.1799 181.907V196.08H167.759L197.774 195.847Z" fill="#263238" stroke="#263238" stroke-linecap="round" stroke-linejoin="round"/>
<path d="M66.8117 181.99H62.8009L60.1713 185.838C58.726 188.078 57.9575 190.685 57.9575 193.348C57.9575 196.012 58.726 198.619 60.1713 200.859L62.8009 204.712H66.8117C71.7006 204.712 75.6657 199.623 75.6657 193.348C75.6657 187.074 71.7006 181.99 66.8117 181.99Z" fill="#263238" stroke="#263238" stroke-linecap="round" stroke-linejoin="round"/>
<path d="M61.708 204.707C66.5979 204.707 70.5619 199.622 70.5619 193.348C70.5619 187.075 66.5979 181.99 61.708 181.99C56.8181 181.99 52.854 187.075 52.854 193.348C52.854 199.622 56.8181 204.707 61.708 204.707Z" fill="#636363" stroke="#263238" stroke-linecap="round" stroke-linejoin="round"/>
<path d="M61.7079 202.409C65.6102 202.409 68.7737 198.353 68.7737 193.349C68.7737 188.344 65.6102 184.288 61.7079 184.288C57.8056 184.288 54.6421 188.344 54.6421 193.349C54.6421 198.353 57.8056 202.409 61.7079 202.409Z" fill="white" stroke="#263238" stroke-linecap="round" stroke-linejoin="round"/>
<path d="M63.1988 193.344C63.1988 194.402 62.5311 195.259 61.7079 195.259C60.8847 195.259 60.2124 194.402 60.2124 193.344C60.2124 192.286 60.8801 191.429 61.7079 191.429C62.5357 191.429 63.1988 192.291 63.1988 193.344Z" fill="white" stroke="#263238" stroke-linecap="round" stroke-linejoin="round"/>
<path d="M156.184 181.99H152.173L149.548 185.838C148.103 188.078 147.334 190.685 147.334 193.348C147.334 196.012 148.103 198.619 149.548 200.859L152.178 204.712H156.188C161.077 204.712 165.042 199.623 165.042 193.348C165.042 187.074 161.073 181.99 156.184 181.99Z" fill="#263238" stroke="#263238" stroke-linecap="round" stroke-linejoin="round"/>
<path d="M159.934 193.344C159.934 199.618 155.969 204.707 151.08 204.707C146.191 204.707 142.23 199.623 142.23 193.344C142.23 187.065 146.191 181.985 151.084 181.985C155.978 181.985 159.934 187.074 159.934 193.344Z" fill="#636363" stroke="#263238" stroke-linecap="round" stroke-linejoin="round"/>
<path d="M158.141 193.344C158.141 198.36 154.981 202.409 151.08 202.409C147.179 202.409 144.014 198.36 144.014 193.344C144.014 188.328 147.179 184.283 151.08 184.283C154.981 184.283 158.141 188.328 158.141 193.344Z" fill="white" stroke="#263238" stroke-linecap="round" stroke-linejoin="round"/>
<path d="M152.571 193.344C152.571 194.402 151.903 195.259 151.08 195.259C150.257 195.259 149.584 194.402 149.584 193.344C149.584 192.286 150.257 191.429 151.08 191.429C151.903 191.429 152.571 192.291 152.571 193.344Z" fill="white" stroke="#263238" stroke-linecap="round" stroke-linejoin="round"/>
<path d="M187.049 149.176C186.903 149.025 186.747 148.884 186.592 148.743H150.417V166.563H203.467L187.049 149.176Z" fill="#263238" stroke="#263238" stroke-linecap="round" stroke-linejoin="round"/>
<path d="M191.193 182.322H189.084L186.994 167.73H173.613L156.097 149.194C155.157 148.2 154.023 147.408 152.765 146.867C151.506 146.327 150.15 146.05 148.78 146.052H106.156C105.154 146.052 104.162 146.254 103.24 146.645C102.318 147.037 101.485 147.611 100.792 148.332L73.5803 166.44L48.3903 177.279L44.4481 182.56C43.4781 183.857 42.9536 185.433 42.9526 187.051V196.08H50.8965V193.084C50.8965 185.756 56.2382 179.819 62.8283 179.819C68.7005 179.819 72.35 184.566 73.2647 191.014L73.9873 196.08H140.374V193.084C140.374 185.756 143.388 179.819 151.492 179.819C158.713 179.819 161.292 184.566 162.417 191.014L163.268 195.847L189.084 194.393V194.292H191.193V182.322Z" fill="white" stroke="#263238" stroke-linecap="round" stroke-linejoin="round"/>
<path d="M101.034 150.982L77.655 166.44H121.349V148.952H105.877C104.975 148.952 104.082 149.132 103.25 149.48C102.419 149.829 101.665 150.339 101.034 150.982Z" fill="#263238" stroke="#263238" stroke-linecap="round" stroke-linejoin="round"/>
<path d="M95.9576 166.44L109.815 148.934H105.877C104.975 148.934 104.082 149.113 103.25 149.462C102.419 149.81 101.665 150.321 101.034 150.963L92.8386 156.408L84.8901 166.44H95.9576Z" fill="white" stroke="#263238" stroke-linecap="round" stroke-linejoin="round"/>
<path d="M121.349 166.458V153.886L111.397 166.458H121.349Z" fill="white" stroke="#263238" stroke-linecap="round" stroke-linejoin="round"/>
<path d="M154.643 151.802L164.58 161.939C164.911 162.277 165.146 162.695 165.262 163.152C165.36 163.545 165.367 163.954 165.282 164.35C165.198 164.746 165.024 165.117 164.774 165.436C164.524 165.754 164.204 166.012 163.84 166.189C163.475 166.366 163.075 166.458 162.669 166.458H124.276V148.952H147.842C149.109 148.952 150.363 149.204 151.531 149.693C152.699 150.182 153.757 150.9 154.643 151.802Z" fill="#263238" stroke="#263238" stroke-linecap="round" stroke-linejoin="round"/>
<path d="M145.331 148.952H141.471L127.614 166.458H131.474L145.331 148.952Z" fill="white" stroke="#263238" stroke-linecap="round" stroke-linejoin="round"/>
<path d="M124.276 150.188V164.174L136.322 148.952H125.254L124.276 150.188Z" fill="white" stroke="#263238" stroke-linecap="round" stroke-linejoin="round"/>
<path d="M186.994 167.712H215.349C216.068 167.713 216.762 167.972 217.305 168.442C217.848 168.911 218.202 169.561 218.303 170.27L220.028 182.322H189.084L186.994 167.712Z" fill="white" stroke="#263238" stroke-linecap="round" stroke-linejoin="round"/>
<path d="M213.904 174.301H200.458V179.805H213.904V174.301Z" fill="white" stroke="#263238" stroke-linecap="round" stroke-linejoin="round"/>
<path d="M221.505 184.575H163.895" stroke="#263238" stroke-width="2" stroke-linecap="round" stroke-linejoin="round"/>
<path d="M138.151 184.575H74.3074" stroke="#263238" stroke-width="2" stroke-linecap="round" stroke-linejoin="round"/>
<path d="M53.1146 184.575H45.8064" stroke="#263238" stroke-width="2" stroke-linecap="round" stroke-linejoin="round"/>
<path d="M198.14 174.388H185.435C184.847 174.388 184.27 174.551 183.77 174.859C183.27 175.168 182.866 175.61 182.604 176.134L180.482 180.371C180.389 180.564 180.346 180.778 180.358 180.992C180.369 181.207 180.436 181.415 180.55 181.597C180.664 181.779 180.822 181.929 181.01 182.034C181.198 182.138 181.41 182.194 181.625 182.195H198.14V174.388Z" fill="#B2B2B2" stroke="#263238" stroke-linecap="round" stroke-linejoin="round"/>
<path d="M198.14 174.388H187.9L189.02 182.213H198.14V174.388Z" fill="#263238" stroke="#263238" stroke-linecap="round" stroke-linejoin="round"/>
<path d="M218.843 174.388H215.742L215.701 182.213H219.959L218.843 174.388Z" fill="#263238" stroke="#263238" stroke-linecap="round" stroke-linejoin="round"/>
<path d="M80.5042 162.81H74.1793C73.6742 162.81 73.2646 163.219 73.2646 163.722V168.779C73.2646 169.283 73.6742 169.691 74.1793 169.691H80.5042C81.0094 169.691 81.4189 169.283 81.4189 168.779V163.722C81.4189 163.219 81.0094 162.81 80.5042 162.81Z" fill="#263238" stroke="#263238" stroke-linecap="round" stroke-linejoin="round"/>
<path d="M120.301 169.691H112.463V172.819H120.301V169.691Z" fill="#263238" stroke="#263238" stroke-linecap="round" stroke-linejoin="round"/>
<path d="M122.186 168.442V192.204" stroke="#263238" stroke-linecap="round" stroke-linejoin="round"/>
<path d="M69.1899 179.071C69.1899 179.071 74.9295 182.304 75.6658 193.348H136.61" stroke="#263238" stroke-linecap="round" stroke-linejoin="round"/>
<path d="M165.463 183.768C165.463 183.768 162.458 175.948 152.406 175.948C145.4 175.948 142.052 179.618 140.374 182.514" stroke="#263238" stroke-linecap="round" stroke-linejoin="round"/>
<path d="M41.3339 123.868C41.3339 123.868 39.6966 121.588 37.8307 121.656C35.9648 121.725 32.704 123.576 32.5988 125.026C32.4936 126.476 35.073 130.284 35.073 130.284L34.3367 133.093L40.5793 135.569L41.0366 133.289C41.0366 133.289 43.2273 133.202 43.2135 132.883C43.1998 132.564 43.3324 129.636 43.3324 129.636C43.4344 129.598 43.5276 129.539 43.6062 129.464C43.6849 129.388 43.7475 129.298 43.7902 129.198C43.8329 129.098 43.8549 128.99 43.8548 128.881C43.8547 128.772 43.8326 128.665 43.7898 128.565C43.4476 127.826 43.0111 127.135 42.491 126.508C42.5052 126.01 42.4088 125.515 42.2088 125.059C42.0088 124.602 41.71 124.196 41.3339 123.868Z" fill="white" stroke="#263238" stroke-linecap="round" stroke-linejoin="round"/>
<path d="M42.3309 127.224C42.4224 127.47 42.4178 127.703 42.3309 127.744C42.244 127.785 42.0703 127.612 41.9788 127.365C41.8873 127.119 41.8965 126.909 41.9788 126.846C42.0611 126.782 42.2395 126.96 42.3309 127.224Z" fill="#263238"/>
<path d="M42.4955 126.499C42.4955 126.499 41.8918 125.897 41.4985 126.403" stroke="#263238" stroke-linecap="round" stroke-linejoin="round"/>
<path d="M42.8523 130.416C42.4563 130.431 42.0703 130.29 41.7776 130.024" stroke="#263238" stroke-linecap="round" stroke-linejoin="round"/>
<path d="M41.3339 123.868L39.3948 124.187C39.3948 124.187 40.1585 124.971 39.8521 125.468L39.5457 125.965L39.1433 128.09L38.4984 128.195C38.4984 128.195 36.9709 126.554 36.2804 127.634C35.5898 128.715 36.9389 129.878 36.9389 129.878C36.9389 129.878 36.0243 131.132 35.3703 131.319C34.7163 131.506 35.2605 130.594 34.1812 130.069C33.1019 129.545 31.3823 127.096 31.579 125.965C31.7756 124.835 32.9007 122.345 35.0639 121.615C37.227 120.886 38.6128 120.908 39.6829 121.187C40.7531 121.465 41.9696 121.424 42.1617 122.226C42.3538 123.029 41.3339 123.868 41.3339 123.868Z" fill="#263238" stroke="#263238" stroke-linecap="round" stroke-linejoin="round"/>
<path d="M42.4864 148.866L46.7762 152.587L45.052 156.221L42.1663 155.2L42.4864 148.866Z" fill="white" stroke="#263238" stroke-linecap="round" stroke-linejoin="round"/>
<path d="M46.0079 151.565L44.0002 156.262L45.1664 157.028L48.6605 152.92L46.0079 151.565Z" fill="white" stroke="#263238" stroke-linecap="round" stroke-linejoin="round"/>
<path d="M48.0201 153.43L54.6103 155.601C54.6103 155.601 56.8969 156.239 57.1667 156.472C57.4366 156.704 58.1957 157.89 57.9671 158.296C57.8794 158.428 57.7617 158.539 57.6236 158.618C57.4854 158.697 57.3305 158.743 57.1713 158.752C56.7116 158.77 56.2535 158.815 55.7993 158.888C55.342 158.984 54.2444 158.542 53.5127 158.41C52.7809 158.277 51.4272 157.115 51.4272 157.115L45.9392 155.952L48.0201 153.43Z" fill="white" stroke="#263238" stroke-linecap="round" stroke-linejoin="round"/>
<path d="M55.8726 156.759C55.8726 156.759 55.4153 157.671 55.9412 158.127C56.4671 158.583 57.583 158.729 57.9306 157.867C58.2782 157.005 56.6684 156.093 55.8726 156.759Z" fill="#263238" stroke="#263238" stroke-linecap="round" stroke-linejoin="round"/>
<path d="M53.0142 155.815C53.0142 155.815 54.5051 155.423 54.8161 155.359C55.127 155.295 56.3664 155.943 56.7414 155.943C57.1164 155.943 58.0677 155.464 57.8802 155.984C57.6927 156.504 57.5966 156.485 57.089 156.791C56.5814 157.097 55.2597 156.764 55.2597 156.764C55.0785 156.958 54.8591 157.113 54.6152 157.219C54.3712 157.325 54.108 157.379 53.8419 157.379C53.0325 157.311 53.1559 156.791 53.1559 156.791" fill="white"/>
<path d="M53.0142 155.815C53.0142 155.815 54.5051 155.423 54.8161 155.359C55.127 155.295 56.3664 155.943 56.7414 155.943C57.1164 155.943 58.0677 155.464 57.8802 155.984C57.6927 156.504 57.5966 156.485 57.089 156.791C56.5814 157.097 55.2597 156.764 55.2597 156.764C55.0785 156.958 54.8591 157.113 54.6152 157.219C54.3712 157.325 54.108 157.379 53.8419 157.379C53.0325 157.311 53.1559 156.791 53.1559 156.791" stroke="#263238" stroke-linecap="round" stroke-linejoin="round"/>
<path d="M25.3775 200.011C25.3775 200.011 26.8867 201.657 27.5316 201.994C28.1764 202.332 30.5317 202.683 30.6369 203.13C30.7421 203.576 30.3991 203.946 29.2649 204.26C27.944 204.64 26.5459 204.664 25.2129 204.329C23.3058 203.955 21.3164 203.763 20.4978 203.526C19.6792 203.289 19.4276 203.75 19.2081 202.861C18.9886 201.971 19.9261 200.407 19.9261 200.407C19.9261 200.407 24.8242 199.586 25.3775 200.011Z" fill="white" stroke="#263238" stroke-linecap="round" stroke-linejoin="round"/>
<path d="M30.2665 164.16C30.2665 164.16 28.1399 176.472 27.5545 177.648C26.9691 178.825 22.9812 186.987 22.5239 189.254C22.0665 191.52 19.853 199.149 19.853 199.149L19.9033 200.403C20.3989 200.579 20.9186 200.679 21.4445 200.699C22.0757 200.676 25.3776 200.006 25.3776 200.006C25.6398 199.506 25.7434 198.938 25.6749 198.378C25.5514 197.466 24.6001 196.267 24.8563 195.898C25.1124 195.528 30.1842 184.912 30.4449 184.634C30.7055 184.356 32.8825 182.473 33.445 180.831C34.0075 179.19 38.1875 170.945 38.1875 170.945C38.1875 170.945 34.3551 167.416 32.6995 166.043C31.044 164.671 30.2665 164.16 30.2665 164.16Z" fill="#263238" stroke="#263238" stroke-linecap="round" stroke-linejoin="round"/>
<path d="M55.5752 198.282C56.6465 198.546 57.7393 198.714 58.8406 198.784C59.8284 198.743 62.3986 197.744 62.609 198.456C62.8194 199.167 61.6212 200.827 60.3955 201.684C58.8585 202.607 57.2273 203.363 55.5295 203.941C54.816 204.151 53.7002 205.182 52.4013 204.516C51.1025 203.85 51.4867 201.324 51.4867 201.324L55.5752 198.282Z" fill="white" stroke="#263238" stroke-linecap="round" stroke-linejoin="round"/>
<path d="M42.7424 163.134C42.7424 163.134 47.3158 175.797 48.3219 178.898C49.328 181.999 49.8906 184.406 49.9912 184.671C50.0918 184.935 55.5752 198.283 55.5752 198.283C55.5752 198.283 53.8922 201.224 52.8312 201.716C52.2933 201.98 51.7272 202.182 51.1437 202.318C51.1437 202.318 44.8004 190.006 43.9864 187.694C43.1723 185.382 42.3949 181.556 41.6174 179.883C40.8399 178.209 29.0042 165.528 29.0042 165.528C31.1746 164.843 33.4084 164.375 35.6721 164.133C38.631 163.923 42.7424 163.134 42.7424 163.134Z" fill="#263238" stroke="#263238" stroke-linecap="round" stroke-linejoin="round"/>
<path d="M39.9391 135.92C39.9391 135.92 41.8233 138.355 42.395 140.443C42.9666 142.532 43.145 149.085 43.145 149.085C43.145 149.085 43.2273 161.397 43.3371 162.126C43.5166 162.866 43.7631 163.588 44.0734 164.283C42.431 164.367 40.8049 164.649 39.2302 165.122C36.9802 165.861 35.2149 166.335 33.7422 166.39C32.2696 166.444 29.0043 165.528 29.0043 165.528C29.0043 165.528 29.2604 161.711 29.5302 160.32C29.714 159.243 29.8331 158.156 29.8869 157.065L29.672 151.647C29.672 151.647 28.4509 145.455 29.2375 142.669C30.0241 139.882 30.7193 137.096 31.8992 136.079C32.6474 135.42 33.3262 134.687 33.9252 133.891L39.9391 135.92Z" fill="white" stroke="#263238" stroke-linecap="round" stroke-linejoin="round"/>
<path d="M34.483 131.515L33.925 133.886L39.756 137.384L40.3872 134.848L34.483 131.515Z" fill="white" stroke="#263238" stroke-linecap="round" stroke-linejoin="round"/>
<path d="M25.3317 154.89L26.5254 162.382C26.1078 163.202 25.7605 164.056 25.4872 164.935C25.3559 165.571 25.1911 166.2 24.9933 166.818C24.9247 167.065 24.7098 169.828 25.1991 169.892C25.6885 169.956 27.4263 170.777 27.7373 170.439C28.3078 169.578 28.7369 168.631 29.0087 167.635C29.0681 167.065 29.466 162.833 29.3471 161.784C29.2282 160.735 29.7084 154.488 29.7084 154.488C29.7084 154.488 26.6489 153.298 25.3317 154.89Z" fill="white" stroke="#263238" stroke-linecap="round" stroke-linejoin="round"/>
<path d="M34.3 135.085C34.3 135.085 31.8441 134.698 30.7557 135.874C29.6672 137.051 25.6107 147.744 25.5787 148.884C25.5466 150.024 25.4277 153.266 25.4277 153.266L29.8227 153.417L31.277 149.066L36.5867 141.561" fill="white"/>
<path d="M34.3 135.085C34.3 135.085 31.8441 134.698 30.7557 135.874C29.6672 137.051 25.6107 147.744 25.5787 148.884C25.5466 150.024 25.4277 153.266 25.4277 153.266L29.8227 153.417L31.277 149.066L36.5867 141.561" stroke="#263238" stroke-linecap="round" stroke-linejoin="round"/>
<path d="M24.8242 152.4L25.3319 154.889C25.8889 154.642 26.4983 154.536 27.1063 154.579C28.0089 154.694 28.8788 154.99 29.6628 155.45C30.0026 154.584 30.239 153.681 30.3671 152.76C30.4083 151.775 28.3137 150.156 24.8242 152.4Z" fill="white" stroke="#263238" stroke-linecap="round" stroke-linejoin="round"/>
<path d="M33.166 146.444L37.657 143.845" stroke="#263238" stroke-linecap="round" stroke-linejoin="round"/>
<path d="M139.743 19.8953H85.032V204.712H139.743V19.8953Z" fill="white" stroke="#263238" stroke-linecap="round" stroke-linejoin="round"/>
<path d="M139.743 133.439H85.032V204.712H139.743V133.439Z" fill="#4448AE" stroke="#263238" stroke-linecap="round" stroke-linejoin="round"/>
<path d="M115.632 180.375L86.3445 151.173V160.476L115.632 189.678V180.375Z" fill="#263238"/>
<path d="M138.723 203.403L131.419 196.116V203.403H138.723Z" fill="#263238"/>
<path d="M115.632 203.403V198.169L86.3445 168.966V178.269L111.553 203.403H115.632Z" fill="#263238"/>
<path d="M115.632 162.582L87.6982 134.73H86.3445V142.682L115.632 171.885V162.582Z" fill="#263238"/>
<path d="M131.419 178.323V187.626L139.743 195.925V186.622L131.419 178.323Z" fill="#263238"/>
<path d="M103.037 203.403L86.3445 186.759V196.057L93.7075 203.403H103.037Z" fill="#263238"/>
<path d="M115.632 144.789L105.543 134.73H96.2139L115.632 154.092V144.789Z" fill="#263238"/>
<path d="M131.419 160.53V169.833L139.743 178.132V168.829L131.419 160.53Z" fill="#263238"/>
<path d="M139.738 19.8953H117.562V204.712H139.738V19.8953Z" fill="white" stroke="#263238" stroke-linecap="round" stroke-linejoin="round"/>
<path d="M139.738 133.439H117.562V204.712H139.738V133.439Z" fill="#4448AE" stroke="#263238" stroke-linecap="round" stroke-linejoin="round"/>
<path d="M119.062 165.633V174.935L138.97 155.086V145.783L119.062 165.633Z" fill="#263238"/>
<path d="M119.062 201.215V204.712H124.889L138.97 190.672V181.369L119.062 201.215Z" fill="#263238"/>
<path d="M132.439 134.502L119.062 147.84V157.142L138.97 137.292V134.502H132.439Z" fill="#263238"/>
<path d="M119.062 183.426V192.724L138.97 172.879V163.576L119.062 183.426Z" fill="#263238"/>
<path d="M138.97 199.158L133.404 204.712H138.97V199.158Z" fill="#263238"/>
<path d="M56.0554 35.6409V19.8953" stroke="#263238" stroke-linecap="round" stroke-linejoin="round"/>
<path d="M44.8689 35.6409V19.8953" stroke="black" stroke-miterlimit="10"/>
<path d="M33.678 35.6409V19.8953" stroke="black" stroke-miterlimit="10"/>
<path d="M95.8708 35.6409V19.8953" stroke="#263238" stroke-linecap="round" stroke-linejoin="round"/>
<path d="M84.6843 35.6409V19.8953" stroke="black" stroke-miterlimit="10"/>
<path d="M73.4934 35.6409V19.8953" stroke="black" stroke-miterlimit="10"/>
<path d="M103.874 36.0059H70.7725V41.9065H103.874V36.0059Z" fill="#263238" stroke="#263238" stroke-linecap="round" stroke-linejoin="round"/>
<path d="M103.874 38.0303H70.7725V41.9063H103.874V38.0303Z" fill="white" stroke="#263238" stroke-linecap="round" stroke-linejoin="round"/>
<path d="M103.874 38.0303H81.0029V41.9063H103.874V38.0303Z" fill="white" stroke="#263238" stroke-linecap="round" stroke-linejoin="round"/>
<path d="M62.5862 36.0059H29.4844V41.9065H62.5862V36.0059Z" fill="#263238" stroke="#263238" stroke-linecap="round" stroke-linejoin="round"/>
<path d="M62.5862 38.0303H29.4844V41.9063H62.5862V38.0303Z" fill="white" stroke="#263238" stroke-linecap="round" stroke-linejoin="round"/>
<path d="M62.5861 38.0303H39.7148V41.9063H62.5861V38.0303Z" fill="white" stroke="#263238" stroke-linecap="round" stroke-linejoin="round"/>
<path d="M103.44 29.4075H14.749V32.034H103.44V29.4075Z" fill="#263238" stroke="#263238" stroke-linecap="round" stroke-linejoin="round"/>
<path d="M129.425 114.374C127.999 114.374 126.906 114.114 126.146 113.594C125.388 113.069 124.839 112.294 124.596 111.405C124.3 110.332 124.16 109.221 124.18 108.108H127.939C127.93 108.731 127.976 109.354 128.076 109.969C128.13 110.388 128.304 110.783 128.579 111.104C128.727 111.237 128.901 111.338 129.09 111.398C129.279 111.459 129.479 111.478 129.677 111.455C129.887 111.463 130.095 111.416 130.281 111.319C130.467 111.222 130.624 111.079 130.738 110.904C130.988 110.439 131.126 109.922 131.14 109.394C131.191 108.738 131.218 107.967 131.218 107.078C131.225 106.439 131.182 105.8 131.09 105.167C131.039 104.697 130.871 104.247 130.601 103.858C130.463 103.699 130.289 103.574 130.093 103.495C129.898 103.416 129.686 103.384 129.476 103.402C129.267 103.394 129.059 103.43 128.866 103.509C128.672 103.587 128.498 103.707 128.355 103.858C128.024 104.25 127.802 104.722 127.71 105.226H124.395L124.674 93.6577H134.058V97.0002H127.88L127.656 101.505C127.932 101.202 128.284 100.975 128.675 100.849C129.173 100.663 129.695 100.552 130.226 100.521C131.15 100.389 132.091 100.605 132.865 101.127C133.602 101.689 134.144 102.467 134.415 103.352C134.776 104.512 134.946 105.722 134.918 106.936C134.922 107.934 134.855 108.931 134.717 109.919C134.61 110.749 134.344 111.55 133.935 112.281C133.543 112.947 132.965 113.485 132.27 113.827C131.378 114.23 130.404 114.418 129.425 114.374Z" fill="#263238"/>
<path d="M136.532 66.5942H120.306C119.452 66.5942 118.76 67.2843 118.76 68.1355V84.3144C118.76 85.1656 119.452 85.8557 120.306 85.8557H136.532C137.386 85.8557 138.078 85.1656 138.078 84.3144V68.1355C138.078 67.2843 137.386 66.5942 136.532 66.5942Z" fill="#263238" stroke="#263238" stroke-linecap="round" stroke-linejoin="round"/>
<path d="M124.395 84.2415V67.9167H129.59C130.427 67.8824 131.259 68.0747 131.995 68.4731C132.613 68.8465 133.094 69.4075 133.367 70.0736C133.693 70.8799 133.849 71.7446 133.825 72.6135C133.874 73.5626 133.667 74.5074 133.226 75.3495C132.858 75.9848 132.286 76.478 131.602 76.7495C130.848 77.0385 130.045 77.1794 129.238 77.1644H127.719V84.237L124.395 84.2415ZM127.728 74.8297H128.899C129.288 74.8514 129.676 74.7712 130.024 74.5971C130.158 74.5162 130.274 74.4096 130.366 74.2836C130.458 74.1576 130.523 74.0146 130.559 73.863C130.663 73.4408 130.71 73.007 130.701 72.5725C130.708 72.1533 130.672 71.7346 130.591 71.3231C130.528 71.0093 130.35 70.7301 130.093 70.5387C129.728 70.3226 129.304 70.2239 128.881 70.256H127.728V74.8297Z" fill="#4448AE"/>
<path d="M10.6697 204.712H337.681" stroke="#263238" stroke-linecap="round" stroke-linejoin="round"/>
</svg>
