<svg width="18" height="15" viewBox="0 0 18 15" fill="none" xmlns="http://www.w3.org/2000/svg">
<path fill-rule="evenodd" clip-rule="evenodd" d="M7.16947 10.2104C7.68987 10.5632 8.3241 10.7765 8.99898 10.7765C10.7878 10.7765 12.2433 9.30797 12.2433 7.50304C12.2433 6.82208 12.0319 6.18215 11.6823 5.65708L10.796 6.55134C10.9423 6.83029 11.0236 7.15846 11.0236 7.50304C11.0236 8.62702 10.113 9.54589 8.99898 9.54589C8.65748 9.54589 8.33223 9.46385 8.05577 9.31617L7.16947 10.2104ZM14.3574 2.95789C15.5364 4.04085 16.5366 5.5012 17.2846 7.25691C17.3497 7.41279 17.3497 7.59328 17.2846 7.74096C15.5446 11.8267 12.4466 14.2715 8.99898 14.2715H8.99085C7.42154 14.2715 5.91728 13.7547 4.5919 12.8112L3.01446 14.4028C2.89249 14.5259 2.738 14.5833 2.5835 14.5833C2.42901 14.5833 2.26639 14.5259 2.15255 14.4028C1.94927 14.1977 1.91675 13.8695 2.07937 13.6316L2.10377 13.5988L14.1297 1.46472C14.146 1.44831 14.1623 1.4319 14.1704 1.41549L14.1704 1.41549C14.1867 1.39908 14.2029 1.38267 14.2111 1.36627L14.9754 0.595068C15.2193 0.357145 15.6015 0.357145 15.8373 0.595068C16.0812 0.832991 16.0812 1.22679 15.8373 1.46472L14.3574 2.95789ZM5.74872 7.50624C5.74872 7.71955 5.77311 7.93286 5.80564 8.12976L2.79711 11.1653C1.98399 10.2136 1.27658 9.06504 0.715535 7.74416C0.650486 7.59648 0.650486 7.41599 0.715535 7.26011C2.4556 3.1744 5.55357 0.73774 8.99305 0.73774H9.00118C10.1639 0.73774 11.2942 1.01668 12.335 1.54176L9.61915 4.28197C9.424 4.24915 9.21259 4.22454 9.00118 4.22454C7.20419 4.22454 5.74872 5.6931 5.74872 7.50624Z" fill="#4448AE"/>
</svg>
