<svg width="18" height="15" viewBox="0 0 18 15" fill="none" xmlns="http://www.w3.org/2000/svg">
<path fill-rule="evenodd" clip-rule="evenodd" d="M7.16947 10.2105C7.68987 10.5633 8.3241 10.7766 8.99898 10.7766C10.7878 10.7766 12.2433 9.30803 12.2433 7.5031C12.2433 6.82215 12.0319 6.18221 11.6823 5.65714L10.796 6.55141C10.9423 6.83035 11.0236 7.15852 11.0236 7.5031C11.0236 8.62708 10.113 9.54595 8.99898 9.54595C8.65748 9.54595 8.33223 9.46391 8.05577 9.31623L7.16947 10.2105ZM14.3574 2.95795C15.5364 4.04091 16.5366 5.50126 17.2846 7.25697C17.3497 7.41285 17.3497 7.59334 17.2846 7.74102C15.5446 11.8267 12.4466 14.2716 8.99898 14.2716H8.99085C7.42154 14.2716 5.91728 13.7547 4.5919 12.8112L3.01446 14.4029C2.89249 14.5259 2.738 14.5834 2.5835 14.5834C2.42901 14.5834 2.26639 14.5259 2.15255 14.4029C1.94927 14.1978 1.91675 13.8696 2.07937 13.6317L2.10377 13.5988L14.1297 1.46478C14.146 1.44837 14.1623 1.43196 14.1704 1.41555L14.1704 1.41555C14.1867 1.39914 14.2029 1.38273 14.2111 1.36633L14.9754 0.595129C15.2193 0.357206 15.6015 0.357206 15.8373 0.595129C16.0812 0.833052 16.0812 1.22686 15.8373 1.46478L14.3574 2.95795ZM5.74872 7.5063C5.74872 7.71961 5.77311 7.93292 5.80564 8.12982L2.79711 11.1654C1.98399 10.2137 1.27658 9.0651 0.715535 7.74422C0.650486 7.59654 0.650486 7.41605 0.715535 7.26017C2.4556 3.17446 5.55357 0.737801 8.99305 0.737801H9.00118C10.1639 0.737801 11.2942 1.01674 12.335 1.54182L9.61915 4.28203C9.424 4.24921 9.21259 4.2246 9.00118 4.2246C7.20419 4.2246 5.74872 5.69316 5.74872 7.5063Z" fill="#9E9E9E"/>
</svg>
